<svg width="36" height="36" viewBox="0 0 36 36" fill="none" xmlns="http://www.w3.org/2000/svg">
<circle cx="18" cy="18" r="18" fill="#5CBBE5"/>
<circle cx="18" cy="18" r="17.5" stroke="white" stroke-opacity="0.3"/>
<g clip-path="url(#clip0_270_8226)">
<path d="M13.404 14.111C13.5995 14.3065 13.916 14.3065 14.111 14.111C14.306 13.9155 14.306 13.599 14.111 13.404L13.0505 12.343C12.855 12.1475 12.5385 12.1475 12.3435 12.343C12.148 12.5385 12.148 12.855 12.3435 13.05L13.404 14.111ZM13.705 21.595L12.6545 22.6455C12.461 22.839 12.461 23.1525 12.6545 23.346C12.848 23.5395 13.1615 23.5395 13.355 23.346L14.4055 22.2955C14.599 22.102 14.599 21.7885 14.4055 21.595C14.212 21.4015 13.8985 21.4015 13.705 21.595ZM18 12.5C18.276 12.5 18.5 12.276 18.5 12V10.5C18.5 10.224 18.276 10 18 10C17.724 10 17.5 10.224 17.5 10.5V12C17.5 12.276 17.724 12.5 18 12.5ZM22.8105 13.89L23.861 12.8395C24.0545 12.646 24.0545 12.3325 23.861 12.139C23.6675 11.9455 23.354 11.9455 23.1605 12.139L22.11 13.1895C21.9165 13.383 21.9165 13.6965 22.11 13.89C22.3035 14.0835 22.617 14.0835 22.8105 13.89ZM12 17.5H10.5C10.224 17.5 10 17.724 10 18C10 18.276 10.224 18.5 10.5 18.5H12C12.276 18.5 12.5 18.276 12.5 18C12.5 17.724 12.276 17.5 12 17.5ZM18 23.5C17.724 23.5 17.5 23.724 17.5 24V25.5C17.5 25.776 17.724 26 18 26C18.276 26 18.5 25.776 18.5 25.5V24C18.5 23.724 18.276 23.5 18 23.5ZM25.5 17.5H24C23.724 17.5 23.5 17.724 23.5 18C23.5 18.276 23.724 18.5 24 18.5H25.5C25.776 18.5 26 18.276 26 18C26 17.724 25.776 17.5 25.5 17.5ZM22.596 21.889C22.4005 21.6935 22.084 21.6935 21.889 21.889C21.6935 22.0845 21.6935 22.401 21.889 22.596L22.9495 23.6565C23.145 23.852 23.4615 23.852 23.6565 23.6565C23.8515 23.461 23.852 23.1445 23.6565 22.9495L22.596 21.889ZM18 13.497C15.513 13.497 13.497 15.513 13.497 18C13.497 20.487 15.513 22.503 18 22.503C20.487 22.503 22.503 20.487 22.503 18C22.503 15.513 20.487 13.497 18 13.497Z" fill="white"/>
</g>
<defs>
<clipPath id="clip0_270_8226">
<rect width="16" height="16" fill="white" transform="translate(10 10)"/>
</clipPath>
</defs>
</svg>
