<svg width="54" height="188" viewBox="0 0 54 188" fill="none" xmlns="http://www.w3.org/2000/svg">
<path opacity="0.35" d="M20.1986 18C19.9 18 19.6546 17.9093 19.4626 17.728C19.2706 17.536 19.1746 17.3013 19.1746 17.024V8.96L19.3986 9.312L18.2306 10.176C18.0813 10.2933 17.8946 10.352 17.6706 10.352C17.4146 10.352 17.1906 10.256 16.9986 10.064C16.8066 9.872 16.7106 9.64267 16.7106 9.376C16.7106 9.03467 16.876 8.75733 17.2066 8.544L19.5106 7.008C19.6173 6.93333 19.7346 6.88 19.8626 6.848C20.0013 6.816 20.1293 6.8 20.2466 6.8C20.556 6.8 20.8013 6.896 20.9826 7.088C21.164 7.26933 21.2546 7.49867 21.2546 7.776V17.024C21.2546 17.3013 21.1533 17.536 20.9506 17.728C20.7586 17.9093 20.508 18 20.1986 18Z" fill="#2B2B2B"/>
<path d="M8.61998 57.02C8.90798 57.02 9.14798 57.116 9.33998 57.308C9.53198 57.5 9.62798 57.74 9.62798 58.028C9.62798 58.304 9.53198 58.538 9.33998 58.73C9.14798 58.91 8.90798 59 8.61998 59H2.49998C2.18798 59 1.94198 58.904 1.76198 58.712C1.58198 58.52 1.49198 58.274 1.49198 57.974C1.49198 57.674 1.59998 57.41 1.81598 57.182L5.73998 52.988C6.18398 52.508 6.53198 52.016 6.78398 51.512C7.04798 51.008 7.17998 50.57 7.17998 50.198C7.17998 49.598 7.00598 49.118 6.65798 48.758C6.30998 48.386 5.84798 48.2 5.27198 48.2C5.04398 48.2 4.80998 48.254 4.56998 48.362C4.32998 48.47 4.09598 48.62 3.86798 48.812C3.65198 49.004 3.44798 49.226 3.25598 49.478C3.11198 49.67 2.96798 49.79 2.82398 49.838C2.67998 49.886 2.54798 49.91 2.42798 49.91C2.16398 49.91 1.91798 49.814 1.68998 49.622C1.47398 49.418 1.36598 49.184 1.36598 48.92C1.36598 48.716 1.43198 48.518 1.56398 48.326C1.70798 48.134 1.88198 47.936 2.08598 47.732C2.38598 47.432 2.72198 47.168 3.09398 46.94C3.46598 46.712 3.84998 46.538 4.24598 46.418C4.64198 46.286 5.02598 46.22 5.39798 46.22C6.20198 46.22 6.89798 46.382 7.48598 46.706C8.08598 47.018 8.54798 47.468 8.87198 48.056C9.19598 48.632 9.35798 49.316 9.35798 50.108C9.35798 50.768 9.15998 51.506 8.76398 52.322C8.37998 53.126 7.85798 53.882 7.19798 54.59L4.76798 57.182L4.56998 57.02H8.61998Z" fill="#2B2B2B"/>
<path opacity="0.35" d="M15.9951 97.744C16.0911 97.744 16.1925 97.76 16.2991 97.792C16.4165 97.824 16.5445 97.888 16.6831 97.984C16.8645 98.1227 17.0778 98.2453 17.3231 98.352C17.5791 98.4587 17.8725 98.512 18.2031 98.512C18.5338 98.512 18.8431 98.432 19.1311 98.272C19.4298 98.1013 19.6751 97.8667 19.8671 97.568C20.0591 97.2587 20.1551 96.8907 20.1551 96.464C20.1551 96.0587 20.0698 95.7227 19.8991 95.456C19.7391 95.1893 19.5205 94.9867 19.2431 94.848C18.9765 94.7093 18.6885 94.64 18.3791 94.64C18.1445 94.64 17.9471 94.6613 17.7871 94.704C17.6378 94.7467 17.4885 94.7947 17.3391 94.848C17.2005 94.8907 17.0351 94.912 16.8431 94.912C16.5978 94.912 16.4058 94.8267 16.2671 94.656C16.1391 94.4853 16.0751 94.2827 16.0751 94.048C16.0751 93.8987 16.1018 93.7653 16.1551 93.648C16.2191 93.5307 16.3098 93.4027 16.4271 93.264L19.2431 90.272L19.6751 90.64H15.7391C15.4831 90.64 15.2698 90.5547 15.0991 90.384C14.9285 90.2133 14.8431 90 14.8431 89.744C14.8431 89.4987 14.9285 89.296 15.0991 89.136C15.2698 88.9653 15.4831 88.88 15.7391 88.88H20.6351C20.9658 88.88 21.2111 88.9707 21.3711 89.152C21.5418 89.3333 21.6271 89.5627 21.6271 89.84C21.6271 89.9787 21.5898 90.1173 21.5151 90.256C21.4405 90.384 21.3498 90.5013 21.2431 90.608L18.4111 93.648L17.9791 93.104C18.0965 93.0507 18.2565 93.0027 18.4591 92.96C18.6725 92.9173 18.8485 92.896 18.9871 92.896C19.6165 92.896 20.1605 93.0613 20.6191 93.392C21.0885 93.712 21.4458 94.1333 21.6911 94.656C21.9471 95.168 22.0751 95.7227 22.0751 96.32C22.0751 97.1093 21.8991 97.792 21.5471 98.368C21.1951 98.944 20.6991 99.3867 20.0591 99.696C19.4191 100.005 18.6725 100.16 17.8191 100.16C17.4245 100.16 17.0351 100.112 16.6511 100.016C16.2671 99.92 15.9365 99.792 15.6591 99.632C15.4245 99.504 15.2645 99.3653 15.1791 99.216C15.1045 99.056 15.0671 98.9067 15.0671 98.768C15.0671 98.5227 15.1525 98.2933 15.3231 98.08C15.5045 97.856 15.7285 97.744 15.9951 97.744Z" fill="#2B2B2B"/>
<path opacity="0.35" d="M19.5209 141C19.2542 141 19.0302 140.909 18.8489 140.728C18.6675 140.536 18.5769 140.301 18.5769 140.024V132.504L18.9129 132.584L15.8249 136.408L15.7449 136.2H21.4089C21.6649 136.2 21.8782 136.285 22.0489 136.456C22.2195 136.627 22.3049 136.84 22.3049 137.096C22.3049 137.341 22.2195 137.549 22.0489 137.72C21.8782 137.88 21.6649 137.96 21.4089 137.96H14.4169C14.1929 137.96 13.9742 137.869 13.7609 137.688C13.5582 137.507 13.4569 137.283 13.4569 137.016C13.4569 136.781 13.5369 136.568 13.6969 136.376L18.7529 130.184C18.8382 130.067 18.9502 129.976 19.0889 129.912C19.2275 129.837 19.3822 129.8 19.5529 129.8C19.8302 129.8 20.0542 129.896 20.2249 130.088C20.4062 130.269 20.4969 130.499 20.4969 130.776V140.024C20.4969 140.301 20.4009 140.536 20.2089 140.728C20.0275 140.909 19.7982 141 19.5209 141Z" fill="#2B2B2B"/>
<path opacity="0.35" d="M17.2466 182.16C16.852 182.16 16.4306 182.101 15.9826 181.984C15.5346 181.856 15.1666 181.675 14.8786 181.44C14.74 181.323 14.628 181.173 14.5426 180.992C14.468 180.8 14.4306 180.619 14.4306 180.448C14.4306 180.267 14.5053 180.096 14.6546 179.936C14.8146 179.776 15.0386 179.696 15.3266 179.696C15.5186 179.696 15.7586 179.797 16.0466 180C16.2173 180.107 16.404 180.203 16.6066 180.288C16.8093 180.373 17.0173 180.416 17.2306 180.416C17.7426 180.416 18.1853 180.325 18.5586 180.144C18.932 179.952 19.22 179.691 19.4226 179.36C19.6253 179.029 19.7266 178.64 19.7266 178.192C19.7266 177.787 19.6306 177.44 19.4386 177.152C19.2573 176.864 19.012 176.64 18.7026 176.48C18.404 176.32 18.0786 176.24 17.7266 176.24C17.396 176.24 17.108 176.293 16.8626 176.4C16.6173 176.507 16.3933 176.619 16.1906 176.736C15.988 176.843 15.7853 176.896 15.5826 176.896C15.2306 176.896 14.9693 176.821 14.7986 176.672C14.628 176.512 14.5213 176.325 14.4786 176.112C14.436 175.899 14.4253 175.707 14.4466 175.536L14.9426 171.648C14.9853 171.424 15.092 171.243 15.2626 171.104C15.444 170.955 15.6573 170.88 15.9026 170.88H20.5266C20.7826 170.88 20.996 170.965 21.1666 171.136C21.3373 171.307 21.4226 171.52 21.4226 171.776C21.4226 172.021 21.3373 172.229 21.1666 172.4C20.996 172.56 20.7826 172.64 20.5266 172.64H16.3986L16.5746 172.496L16.1426 175.744L15.9346 175.136C15.9986 175.029 16.1373 174.928 16.3506 174.832C16.564 174.736 16.8093 174.656 17.0866 174.592C17.364 174.517 17.636 174.48 17.9026 174.48C18.6173 174.48 19.2573 174.645 19.8226 174.976C20.388 175.296 20.8306 175.739 21.1506 176.304C21.4813 176.859 21.6466 177.488 21.6466 178.192C21.6466 178.992 21.4653 179.691 21.1026 180.288C20.74 180.885 20.228 181.349 19.5666 181.68C18.916 182 18.1426 182.16 17.2466 182.16Z" fill="#2B2B2B"/>
<line opacity="0.35" x1="28" y1="12.5" x2="54" y2="12.5" stroke="white"/>
<line opacity="0.65" x1="17" y1="53.5" x2="54" y2="53.5" stroke="#6823CF"/>
<line opacity="0.35" x1="28" y1="94.5" x2="54" y2="94.5" stroke="white"/>
<line opacity="0.35" x1="28" y1="135.5" x2="54" y2="135.5" stroke="white"/>
<line opacity="0.35" x1="28" y1="176.5" x2="54" y2="176.5" stroke="white"/>
</svg>
