<svg width="145" height="145" viewBox="0 0 145 145" fill="none" xmlns="http://www.w3.org/2000/svg">
<g opacity="0.06">
<path d="M137.882 28.9543C129.374 21.2871 119.802 15.9852 109.595 13.1913C107.61 5.60354 100.721 0 92.4982 0C84.2913 0 77.402 5.60354 75.4018 13.1913C65.2107 15.9852 55.6228 21.2871 47.1143 28.9543C44.3204 31.4624 44.0982 35.7643 46.6222 38.5581C49.1303 41.3519 53.4321 41.5742 56.226 39.0502C62.655 33.2562 69.7983 29.1448 77.3543 26.7954C80.4498 31.9227 86.0692 35.3674 92.4823 35.3674C98.8954 35.3674 104.515 31.9227 107.61 26.7954C115.166 29.1448 122.31 33.272 128.739 39.0502C130.04 40.2249 131.675 40.7963 133.295 40.7963C135.152 40.7963 137.009 40.0344 138.342 38.5422C140.898 35.7643 140.676 31.4624 137.882 28.9543Z" fill="#5CBBE5"/>
<path d="M144.216 92.514C144.216 84.3071 138.612 77.4178 131.024 75.4177C128.23 65.2265 122.928 55.6386 115.261 47.1301C112.753 44.3362 108.451 44.114 105.657 46.638C102.864 49.1461 102.641 53.448 105.165 56.2418C110.959 62.6708 115.071 69.8141 117.42 77.3702C112.293 80.4656 108.848 86.085 108.848 92.4981C108.848 98.9113 112.293 104.531 117.42 107.626C115.071 115.182 110.943 122.326 105.165 128.754C102.657 131.548 102.879 135.85 105.657 138.358C106.959 139.533 108.594 140.104 110.213 140.104C112.071 140.104 113.928 139.342 115.261 137.85C122.928 129.342 128.23 119.77 131.024 109.563C138.612 107.61 144.216 100.721 144.216 92.514Z" fill="#EEA4C9"/>
<path d="M97.5623 105.642C95.0542 102.848 90.7523 102.626 87.9585 105.15C81.5295 110.944 74.3861 115.055 66.8301 117.404C63.7346 112.277 58.1152 108.832 51.7021 108.832C45.289 108.832 39.6696 112.277 36.5741 117.404C29.0181 115.055 21.8748 110.928 15.4458 105.15C12.6519 102.642 8.35005 102.864 5.84195 105.642C3.33385 108.436 3.55608 112.737 6.33404 115.246C14.8425 122.913 24.4146 128.215 34.6216 131.009C36.6059 138.596 43.4952 144.2 51.718 144.2C59.9249 144.2 66.8142 138.596 68.8143 131.009C79.0055 128.215 88.5934 122.913 97.1019 115.246C99.8481 112.737 100.07 108.436 97.5623 105.642Z" fill="#5CBBE5"/>
<path d="M26.7954 66.8298C31.9227 63.7344 35.3674 58.115 35.3674 51.7019C35.3674 45.2887 31.9227 39.6693 26.7954 36.5739C29.1448 29.0178 33.272 21.8745 39.0502 15.4455C41.5583 12.6517 41.3361 8.34981 38.5581 5.8417C35.7643 3.3336 31.4624 3.55584 28.9543 6.3338C21.2871 14.8423 15.9852 24.4144 13.1913 34.6214C5.60354 36.6056 0 43.495 0 51.7177C0 59.9405 5.60354 66.814 13.1913 68.8141C15.9852 79.0052 21.2871 88.5932 28.9543 97.1017C30.3036 98.5938 32.145 99.3558 34.0022 99.3558C35.6214 99.3558 37.2564 98.7843 38.5581 97.6096C41.3519 95.1015 41.5742 90.7997 39.0502 88.0058C33.272 81.5292 29.1448 74.3859 26.7954 66.8298Z" fill="#EEA4C9"/>
</g>
</svg>
