<svg width="36" height="36" viewBox="0 0 36 36" fill="none" xmlns="http://www.w3.org/2000/svg">
<circle cx="18" cy="18" r="18" fill="#EEA4C9"/>
<g clip-path="url(#clip0_270_8212)">
<path d="M25.3751 19.6615C25.4876 19.1514 25.5472 18.6242 25.5472 18.0818C25.5472 14.0173 22.206 10.7216 18.0833 10.7216C17.6485 10.7216 17.222 10.7587 16.8073 10.8292C16.1403 10.4144 15.3509 10.1738 14.5049 10.1738C12.1134 10.1738 10.1758 12.085 10.1758 14.4433C10.1758 15.2306 10.3934 15.9681 10.7705 16.6024C10.6712 17.0802 10.6194 17.5751 10.6194 18.0818C10.6194 22.1478 13.9606 25.3208 18.0828 25.3208C18.5499 25.3208 19.0067 25.2783 19.4493 25.1976C20.0591 25.5203 20.7555 25.826 21.4959 25.826C23.8869 25.826 25.8246 23.9153 25.8246 21.5571C25.8246 20.8768 25.6627 20.2327 25.3751 19.6615Z" fill="white"/>
<path d="M21.4876 21.0861C21.1995 21.4955 20.7779 21.8172 20.2229 22.0486C19.6678 22.2818 19.0105 22.3973 18.2501 22.3973C17.338 22.3973 16.5858 22.2388 15.9926 21.9214C15.573 21.6935 15.2311 21.3883 14.968 21.0078C14.7059 20.6273 14.5744 20.2567 14.5744 19.8962C14.5744 19.6879 14.6531 19.5089 14.8106 19.3607C14.968 19.2105 15.169 19.1367 15.4121 19.1367C15.6097 19.1367 15.7774 19.1939 15.9134 19.3108C16.0503 19.4267 16.1672 19.5984 16.2631 19.8267C16.3809 20.0982 16.5076 20.3246 16.645 20.506C16.781 20.6875 16.9737 20.8381 17.2211 20.9559C17.4696 21.0728 17.7957 21.1325 18.1987 21.1325C18.7533 21.1325 19.2042 21.0141 19.5514 20.7759C19.8977 20.5388 20.0718 20.2409 20.0718 19.8854C20.0718 19.6036 19.9779 19.3733 19.791 19.1987C19.6037 19.0227 19.3621 18.8881 19.0658 18.7957C18.7699 18.7023 18.3737 18.6035 17.8769 18.4994C17.2132 18.3571 16.6571 18.1888 16.2102 17.9981C15.7627 17.8059 15.4067 17.5452 15.1445 17.2151C14.8814 16.8836 14.7503 16.4728 14.7503 15.9823C14.7503 15.5138 14.8887 15.0986 15.1665 14.7352C15.4438 14.3713 15.8444 14.0921 16.3705 13.8965C16.8958 13.7009 17.514 13.6035 18.2236 13.6035C18.7909 13.6035 19.2819 13.6686 19.6961 13.7972C20.1103 13.9273 20.4532 14.0994 20.726 14.3141C20.9994 14.5288 21.1994 14.7538 21.3251 14.99C21.4513 15.2247 21.5144 15.4565 21.5144 15.6795C21.5144 15.8844 21.4361 16.0703 21.2787 16.2341C21.1212 16.3985 20.9246 16.4811 20.6893 16.4811C20.4746 16.4811 20.3118 16.4312 20.2003 16.3329C20.0887 16.2341 19.968 16.0728 19.8384 15.8483C19.6696 15.5275 19.4687 15.2771 19.2329 15.0976C18.9972 14.9176 18.6197 14.8276 18.0983 14.8276C17.6156 14.8276 17.2253 14.9245 16.929 15.1206C16.6326 15.3152 16.484 15.5509 16.484 15.8253C16.484 15.9945 16.5353 16.1422 16.6356 16.2659C16.7358 16.3906 16.8747 16.4958 17.0522 16.5843C17.2278 16.6733 17.4068 16.7428 17.5872 16.7941C17.7677 16.8445 18.0665 16.9173 18.4832 17.0142C19.0035 17.1262 19.4754 17.2504 19.898 17.3854C20.3201 17.5209 20.68 17.6857 20.9764 17.8778C21.2723 18.0715 21.5041 18.317 21.6698 18.6134C21.8356 18.9088 21.9193 19.2711 21.9193 19.7006C21.9194 20.2141 21.7747 20.6763 21.4876 21.0861Z" fill="#EEA4C9"/>
</g>
<defs>
<clipPath id="clip0_270_8212">
<rect width="15.6522" height="15.6522" fill="white" transform="translate(10.1738 10.1738)"/>
</clipPath>
</defs>
</svg>
