<svg width="52" height="52" viewBox="0 0 52 52" fill="none" xmlns="http://www.w3.org/2000/svg">
<circle opacity="0.1" cx="26" cy="26" r="26" fill="#5CBBE5"/>
<path d="M25.6249 17C22.5229 17 19.9999 19.523 19.9999 22.625C19.9999 25.6174 25.1097 32.3194 25.3272 32.6029C25.3984 32.6959 25.5079 32.7499 25.6249 32.7499C25.7419 32.7499 25.8514 32.6959 25.9226 32.6029C26.1401 32.3194 31.2499 25.6174 31.2499 22.625C31.2499 19.523 28.7269 17 25.6249 17ZM25.6249 25.25C24.1774 25.25 22.9999 24.0725 22.9999 22.625C22.9999 21.1774 24.1774 20 25.6249 20C27.0724 20 28.2499 21.1774 28.2499 22.625C28.2499 24.0725 27.0724 25.25 25.6249 25.25Z" fill="#5CBBE5"/>
<path d="M34.1869 34.4172L31.1869 29.9172C31.1172 29.813 31.0002 29.75 30.8749 29.75H28.8461C27.7594 31.4217 26.7537 32.7522 26.5182 33.059C26.3074 33.3342 25.9729 33.5 25.6249 33.5C25.2769 33.5 24.9424 33.3342 24.7309 33.0583C24.4962 32.7515 23.4897 31.421 22.4037 29.75H20.375C20.2497 29.75 20.1327 29.813 20.0629 29.9173L17.063 34.4172C16.9865 34.532 16.979 34.6805 17.0442 34.8027C17.1095 34.9235 17.2362 35 17.375 35H33.8749C34.0136 35 34.1404 34.9235 34.2049 34.802C34.2709 34.6797 34.2641 34.532 34.1869 34.4172Z" fill="#5CBBE5"/>
</svg>
