<svg width="163" height="160" viewBox="0 0 163 160" fill="none" xmlns="http://www.w3.org/2000/svg">
<path opacity="0.1" d="M142.456 137.33C138.273 141.642 134.525 144.176 131.658 146.092C103.693 164.753 71.7279 159.377 61.8454 157.535C45.8972 154.567 32.4382 152.474 20.8734 142.037C-5.40936 118.309 -4.12755 68.8109 15.9522 38.1457C18.3327 34.5085 38.3838 4.80978 70.4175 0.623483C71.2014 0.520541 71.7851 0.463351 72.3001 0.406162C77.2557 -0.119985 107.967 -2.88797 133.008 18.0835C136.591 21.086 142.365 26.4962 147.709 34.7544C167.268 64.9449 167.331 111.703 142.456 137.33Z" fill="#F4F7FA"/>
<path d="M112.929 63.6468C114.168 35.4411 90.4765 11.4924 60.0126 10.1558C29.5488 8.81921 3.84854 30.6009 2.60957 58.8066C1.3706 87.0122 25.0621 110.961 55.5259 112.298C85.9898 113.634 111.69 91.8525 112.929 63.6468Z" fill="#D086E3"/>
<path opacity="0.19" d="M54.784 98.4411C78.7112 98.4411 98.1079 80.1285 98.1079 57.5389C98.1079 34.9492 78.7112 16.6367 54.784 16.6367C30.8569 16.6367 11.4601 34.9492 11.4601 57.5389C11.4601 80.1285 30.8569 98.4411 54.784 98.4411Z" fill="white"/>
<g opacity="0.68">
<g opacity="0.68">
<path opacity="0.68" d="M71.9065 61.4736C71.9065 61.4736 71.9123 62.32 71.8894 63.9041C71.8665 65.4883 71.815 67.8159 71.6605 70.7726C71.506 73.7294 71.2428 77.3152 70.7335 81.41C70.2242 85.499 69.4974 90.1085 68.25 95.0383C67.6205 97.4975 66.8594 100.042 65.8409 102.593C65.3259 103.868 64.7479 105.144 64.0441 106.379C63.3402 107.614 62.5276 108.832 61.4518 109.862C60.9139 110.371 60.3074 110.834 59.6092 111.154C58.9168 111.475 58.1214 111.629 57.3432 111.549C56.5592 111.475 55.8153 111.166 55.1687 110.737C54.5164 110.308 53.9499 109.77 53.4348 109.193C52.4105 108.02 51.6094 106.676 50.8999 105.281C50.196 103.88 49.5952 102.416 49.0573 100.923C47.9872 97.9264 47.1632 94.7981 46.4822 91.6012C45.8012 88.4043 45.2691 85.1387 44.8456 81.8332C44.0044 75.222 43.6096 68.4565 43.5695 61.6852C43.5638 58.2995 43.6783 54.9196 43.8614 51.5569C44.0502 48.1941 44.3249 44.8485 44.7083 41.5372C45.0917 38.2316 45.5781 34.9604 46.2018 31.752C46.8313 28.5494 47.5923 25.4039 48.6052 22.39C49.1088 20.886 49.681 19.4105 50.3562 17.9979C51.0372 16.591 51.8154 15.2356 52.8111 14.0575C53.309 13.4741 53.8697 12.9308 54.5164 12.5076C55.1573 12.0844 55.8897 11.7813 56.6565 11.7127C56.8454 11.6955 57.0456 11.6898 57.2288 11.7013C57.4233 11.7127 57.6121 11.7356 57.801 11.7642C58.1729 11.8328 58.5392 11.9472 58.8825 12.1016C59.5692 12.4104 60.1815 12.8508 60.7194 13.3483C61.8066 14.3492 62.6478 15.5387 63.3803 16.7454C64.1127 17.9635 64.725 19.216 65.2686 20.4742C66.3559 22.9963 67.1742 25.5183 67.8551 27.9603C69.2056 32.8558 70.0125 37.4538 70.579 41.5372C70.8594 43.5789 71.0768 45.5005 71.2428 47.2733C71.4087 49.0519 71.5231 50.6876 71.6147 52.1631C71.7921 55.1198 71.8493 57.4474 71.8779 59.0316C71.9123 60.6272 71.9065 61.4736 71.9065 61.4736ZM71.1741 61.4736C71.1741 61.4736 71.1798 60.6329 71.1626 59.0544C71.1397 57.476 71.094 55.1598 70.9337 52.2145C70.8536 50.7448 70.7392 49.1149 70.5847 47.3477C70.4302 45.5805 70.2413 43.6647 69.9781 41.6287C69.7206 39.5927 69.3944 37.431 68.9824 35.1663C68.5704 32.9015 68.0669 30.5339 67.4202 28.0919C66.7736 25.6556 65.9896 23.1335 64.9425 20.6229C64.416 19.3704 63.8266 18.118 63.117 16.9113C62.4075 15.7046 61.5892 14.5264 60.5477 13.5428C60.027 13.0567 59.4433 12.622 58.791 12.3189C58.1386 12.0158 57.4176 11.8557 56.6909 11.9415C55.9698 12.0158 55.2774 12.3075 54.6651 12.7192C54.0529 13.131 53.515 13.6629 53.0343 14.2405C52.0729 15.4014 51.3233 16.7511 50.6652 18.1466C50.0129 19.5477 49.4693 21.0175 48.9829 22.5159C48.0158 25.5183 47.2948 28.6523 46.7054 31.8492C46.1217 35.0462 45.6754 38.306 45.332 41.6058C44.6511 48.2055 44.3936 54.9482 44.4164 61.6852C44.3993 68.4221 44.7369 75.1648 45.5151 81.7474C45.9043 85.0415 46.4078 88.2899 47.0602 91.4754C47.7125 94.6551 48.5022 97.772 49.5379 100.746C50.0587 102.233 50.6366 103.685 51.3233 105.069C52.01 106.448 52.7882 107.774 53.761 108.913C54.2474 109.479 54.791 109.993 55.3976 110.399C56.0042 110.806 56.6794 111.091 57.389 111.166C58.0928 111.246 58.8081 111.091 59.4433 110.794C60.0842 110.491 60.6564 110.056 61.16 109.565C62.1786 108.569 62.9625 107.374 63.6435 106.162C64.3187 104.938 64.8795 103.68 65.3774 102.416C66.3673 99.888 67.0941 97.3545 67.7006 94.9068C68.3015 92.4533 68.765 90.0799 69.1484 87.8095C69.5318 85.5391 69.8293 83.3773 70.064 81.3356C70.3043 79.2997 70.476 77.3838 70.619 75.6109C70.7621 73.838 70.8651 72.2138 70.9395 70.7383C71.0882 67.7931 71.134 65.4769 71.1569 63.8984C71.1798 62.3143 71.1741 61.4736 71.1741 61.4736Z" fill="white"/>
</g>
<g opacity="0.68">
<path opacity="0.68" d="M94.6696 61.4791C94.6696 61.4791 94.6638 61.7479 94.6524 62.274C94.6467 62.5371 94.6409 62.8631 94.6295 63.2463C94.6238 63.6352 94.6181 64.0812 94.578 64.5902C94.5494 65.0992 94.5151 65.6711 94.475 66.3002C94.4349 66.9293 94.3548 67.6098 94.2862 68.3476C94.2289 69.0853 94.103 69.8746 93.9886 70.7153C93.8856 71.5559 93.7139 72.4424 93.548 73.386C93.5022 73.6205 93.4679 73.8607 93.4164 74.1009C93.3649 74.3411 93.3134 74.5813 93.2561 74.8272C93.1474 75.319 93.0387 75.8223 92.93 76.337C92.7983 76.846 92.6667 77.3664 92.5294 77.904C92.4607 78.1728 92.3921 78.4416 92.3177 78.7104C92.2376 78.9792 92.1574 79.2537 92.0716 79.5282C91.4307 81.7357 90.5723 84.0748 89.4966 86.5054C88.415 88.9302 87.0989 91.4408 85.468 93.9343C83.8372 96.4278 81.8973 98.9041 79.5912 101.226C77.2965 103.559 74.5841 105.67 71.5341 107.431C71.1622 107.666 70.7616 107.854 70.3667 108.06C70.1665 108.163 69.9719 108.266 69.7716 108.369L69.4741 108.523C69.3768 108.575 69.2681 108.615 69.1708 108.661C68.7588 108.844 68.3468 109.027 67.9348 109.21C67.8317 109.255 67.7288 109.301 67.6258 109.347L67.3053 109.467C67.0936 109.547 66.8818 109.627 66.6644 109.707C65.8175 110.05 64.9305 110.279 64.0493 110.554C63.6029 110.662 63.1451 110.765 62.6931 110.874C62.4642 110.925 62.241 110.988 62.0121 111.028C61.7832 111.068 61.5486 111.103 61.3197 111.143C61.0908 111.183 60.8562 111.217 60.6273 111.257C60.3927 111.297 60.1638 111.337 59.9292 111.354C59.46 111.4 58.9907 111.446 58.5158 111.492C58.2812 111.52 58.0408 111.52 57.8062 111.532C57.5659 111.537 57.3312 111.549 57.0909 111.555C56.8506 111.56 56.6102 111.572 56.3756 111.577C56.1238 111.577 55.8949 111.566 55.6546 111.56C55.1796 111.543 54.699 111.537 54.2183 111.509C53.7376 111.463 53.2512 111.417 52.7648 111.366L52.3986 111.331L52.0381 111.274C51.7977 111.234 51.5574 111.194 51.3171 111.154C51.0767 111.114 50.8364 111.074 50.5903 111.034C50.35 110.988 50.1096 110.925 49.8693 110.874C47.9409 110.474 46.0468 109.822 44.2042 109.027L43.5118 108.724L43.1684 108.569L42.8308 108.398C42.3845 108.169 41.9324 107.934 41.4804 107.7C40.6048 107.185 39.7179 106.688 38.8824 106.099C38.459 105.813 38.0241 105.538 37.6235 105.224C37.2115 104.915 36.7937 104.612 36.3932 104.297C35.9983 103.965 35.5978 103.639 35.2029 103.308L34.9054 103.056L34.6193 102.793L34.047 102.267L33.4748 101.735C33.2859 101.558 33.1086 101.363 32.9254 101.18C32.5649 100.803 32.1873 100.443 31.8382 100.054C31.4891 99.6647 31.1458 99.2701 30.7967 98.8812C30.6193 98.6868 30.4534 98.4866 30.2874 98.2807L29.7896 97.6688L29.2918 97.0569C29.1258 96.851 28.977 96.6337 28.8225 96.4221C28.5135 95.9932 28.1931 95.5757 27.8898 95.141C27.3061 94.2603 26.6995 93.3853 26.1616 92.4645C25.5951 91.5667 25.103 90.6173 24.5823 89.6794C24.3362 89.2047 24.1073 88.7243 23.867 88.2439L23.5122 87.5233L23.186 86.7856C22.9686 86.2938 22.7454 85.8076 22.5337 85.3101C22.3334 84.8125 22.1388 84.3093 21.9385 83.806C21.7325 83.3085 21.5609 82.7995 21.3835 82.2848L21.1145 81.5184C21.023 81.2611 20.9314 81.0094 20.857 80.7521C20.5423 79.7169 20.2104 78.6875 19.9586 77.6295L19.7526 76.8403L19.6496 76.4457L19.5638 76.0511L19.2147 74.4612L19.1289 74.0609L19.0545 73.6605L18.9114 72.8599L18.7684 72.0592C18.7169 71.7904 18.6711 71.5216 18.6367 71.2528C18.4937 70.1719 18.3277 69.0968 18.2362 68.0102C17.9958 65.8427 17.9329 63.658 17.8986 61.4791L17.9329 59.8435L17.9501 59.0314C17.9558 58.7626 17.9787 58.4881 17.9958 58.2136L18.0931 56.5779C18.1275 56.0346 18.1961 55.4913 18.2419 54.948C18.3277 53.8614 18.4994 52.7862 18.6425 51.7053C18.6768 51.4366 18.7226 51.1678 18.7741 50.899L18.9171 50.0983L19.0602 49.2977L19.1346 48.8973L19.2204 48.497L19.5695 46.9071L19.6553 46.5125L19.7583 46.1179L19.9643 45.3287C20.2218 44.2764 20.548 43.2413 20.8685 42.2118C20.9428 41.9545 21.0344 41.6971 21.126 41.4455L21.3949 40.6791C21.5723 40.1702 21.744 39.6612 21.9557 39.1636C22.156 38.6603 22.3505 38.1628 22.5508 37.6652C22.7626 37.1677 22.9857 36.6816 23.2032 36.1897L23.5293 35.4577L23.8841 34.7371C24.1245 34.2567 24.3534 33.7763 24.5994 33.3017C25.1202 32.3695 25.6123 31.4201 26.1788 30.5222C26.711 29.6015 27.3175 28.7322 27.9069 27.8515C28.2102 27.4168 28.5307 26.9993 28.8397 26.5704C28.9999 26.3588 29.1487 26.1415 29.3089 25.9356L29.8068 25.3237L30.3046 24.7117C30.4706 24.5059 30.6365 24.3057 30.8139 24.1113C31.163 23.7224 31.512 23.3278 31.8554 22.9389C32.2101 22.5557 32.5821 22.1897 32.9426 21.8179C33.1257 21.6349 33.3031 21.4462 33.492 21.2632L34.0642 20.7371L34.6364 20.2109L34.9225 19.9478L35.2201 19.6962C35.6149 19.3645 36.0155 19.0385 36.4103 18.7068C36.8166 18.3923 37.2344 18.0892 37.6407 17.7803C38.0469 17.4658 38.4761 17.1913 38.8996 16.9053C39.735 16.3163 40.6277 15.8244 41.4975 15.3097C41.9496 15.081 42.3959 14.8465 42.848 14.6177L43.1856 14.4462L43.5289 14.2918L44.2214 13.9887C46.0639 13.1994 47.9523 12.5475 49.875 12.1471C51.792 11.7354 53.7319 11.4666 55.6546 11.4551C55.8949 11.4494 56.1296 11.438 56.3756 11.438C56.616 11.4437 56.8506 11.4551 57.0909 11.4609C57.3255 11.4666 57.5659 11.478 57.8005 11.4837C58.0351 11.4952 58.2754 11.4952 58.5101 11.5238C58.985 11.5695 59.4542 11.6153 59.9235 11.6667C60.1581 11.6839 60.3927 11.7239 60.6216 11.764C60.8505 11.804 61.0851 11.8383 61.314 11.8783C61.5429 11.9184 61.7775 11.9527 62.0064 11.9927C62.2353 12.0328 62.4585 12.0957 62.6874 12.1471C63.1394 12.2558 63.5915 12.353 64.0378 12.4674C64.9191 12.7419 65.806 12.9764 66.653 13.3138C66.8647 13.3939 67.0764 13.4739 67.2939 13.5483L67.6143 13.6684C67.7173 13.7084 67.8203 13.7599 67.9233 13.8056C68.3353 13.9887 68.7473 14.1717 69.1593 14.349C69.2623 14.3947 69.3653 14.4347 69.4626 14.4862L69.7602 14.6406C69.9605 14.7436 70.155 14.8465 70.3553 14.9437C70.7501 15.1496 71.1507 15.3383 71.5227 15.5728C74.5727 17.3285 77.2851 19.4388 79.574 21.7665C81.8801 24.0827 83.8257 26.559 85.4509 29.0467C87.0817 31.5402 88.4036 34.0451 89.4851 36.47C90.5609 38.8948 91.425 41.2339 92.0602 43.4414C92.1403 43.7159 92.2261 43.9904 92.3062 44.2592C92.3749 44.5337 92.4493 44.8025 92.518 45.0656C92.6553 45.5975 92.7926 46.1236 92.9242 46.6326C93.0387 47.1473 93.1474 47.6506 93.2561 48.1424C93.3076 48.3883 93.3649 48.6285 93.4164 48.8687C93.4679 49.1089 93.5022 49.3491 93.548 49.5836C93.7139 50.5215 93.8856 51.408 93.9886 52.2487C94.103 53.0893 94.2232 53.8786 94.2862 54.6163C94.3548 55.3541 94.4407 56.0346 94.475 56.658C94.5151 57.2871 94.5494 57.8533 94.578 58.3622C94.6181 58.8712 94.618 59.323 94.6295 59.7119C94.6352 60.1008 94.6467 60.4268 94.6524 60.6899C94.6638 61.216 94.6696 61.4905 94.6696 61.4905V61.4791ZM93.8284 61.4734C93.8284 61.4734 93.8226 61.2046 93.8169 60.6842C93.8112 60.4211 93.8055 60.1008 93.7998 59.7176C93.794 59.3345 93.794 58.8884 93.754 58.3851C93.7254 57.8819 93.6968 57.3214 93.6624 56.698C93.6281 56.0804 93.548 55.4055 93.485 54.6792C93.4278 53.9472 93.3134 53.1694 93.2046 52.3402C93.1074 51.5052 92.9414 50.6302 92.7812 49.7037C92.7411 49.4692 92.7011 49.2347 92.6553 49.0003C92.6038 48.7658 92.5523 48.5256 92.5008 48.2797C92.3978 47.7936 92.2891 47.296 92.1803 46.787C92.0545 46.2838 91.9228 45.769 91.7912 45.2372C91.7225 44.9741 91.6539 44.7053 91.5852 44.4365C91.5051 44.1677 91.425 43.8989 91.3449 43.6301C90.7326 41.4455 89.9143 39.1236 88.8785 36.7159C87.8371 34.3082 86.5667 31.8147 84.9816 29.3327C83.3965 26.8506 81.5024 24.38 79.2478 22.0639C77.0047 19.742 74.3552 17.6088 71.3453 15.8588C70.979 15.6243 70.5842 15.4356 70.1951 15.2297C70.0005 15.1267 69.806 15.0238 69.6114 14.9266L69.3196 14.7722C69.2223 14.7207 69.1193 14.6807 69.0163 14.6349C68.61 14.4519 68.2094 14.2689 67.7974 14.0859C67.6944 14.0401 67.5971 13.9944 67.4884 13.9486L67.1737 13.8285C66.962 13.7485 66.756 13.6684 66.5442 13.5883C65.7088 13.2452 64.8332 13.0164 63.9577 12.7419C63.5171 12.6333 63.065 12.5303 62.6187 12.4217C62.3955 12.3702 62.1724 12.3073 61.9435 12.2672C61.7146 12.2272 61.4857 12.1929 61.2625 12.1529C61.0336 12.1128 60.8047 12.0785 60.5758 12.0385C60.3469 11.9984 60.118 11.9584 59.8834 11.9413C59.4199 11.8955 58.9564 11.8498 58.4929 11.7983C58.264 11.7697 58.0237 11.7697 57.789 11.7583C57.5544 11.7525 57.3141 11.7411 57.0795 11.7354C56.8448 11.7297 56.6045 11.7182 56.3642 11.7125C56.1353 11.7125 55.8949 11.7239 55.6603 11.7354C53.7605 11.7525 51.8435 12.027 49.9437 12.4388C48.0382 12.8449 46.1727 13.4911 44.3587 14.2918L43.6777 14.5949L43.3401 14.7493L43.0082 14.9208C42.5676 15.1496 42.127 15.3841 41.6806 15.6186C40.8223 16.1333 39.9468 16.6308 39.1227 17.2142C38.705 17.5001 38.2816 17.7803 37.8867 18.0949C37.4861 18.4037 37.0799 18.7068 36.6793 19.0271C36.2902 19.3588 35.9068 19.6905 35.5177 20.0222L35.2258 20.2738L34.9454 20.5369L34.3904 21.063L33.8296 21.5949C33.6465 21.7722 33.4748 21.9666 33.2974 22.1496C32.9426 22.5271 32.5821 22.8874 32.2388 23.2763C31.9011 23.6652 31.5635 24.0598 31.2259 24.4487C31.0542 24.6431 30.894 24.8433 30.7338 25.0492L30.2531 25.6611L29.7724 26.273C29.6122 26.4789 29.4691 26.6962 29.3146 26.9078C29.0114 27.331 28.7023 27.7542 28.4105 28.1832C27.844 29.0639 27.2603 29.9275 26.7396 30.8425C26.1902 31.7347 25.7153 32.6783 25.2174 33.6048C24.9771 34.0737 24.7597 34.5541 24.5308 35.0288L24.1874 35.7437L23.8727 36.4757C23.6667 36.9618 23.4492 37.4479 23.249 37.9398C23.0601 38.4373 22.8713 38.9291 22.6824 39.4267C22.4822 39.9185 22.3219 40.4275 22.1503 40.9308L21.8985 41.6857C21.8126 41.9373 21.7268 42.189 21.6524 42.4463C21.3549 43.47 21.0344 44.488 20.7941 45.5288L20.5995 46.3066L20.5022 46.6955L20.4164 47.0901L20.0845 48.6629L19.9987 49.0575L19.93 49.4521L19.7927 50.247L19.6553 51.0419C19.6095 51.305 19.5638 51.5681 19.5352 51.8369C19.3978 52.9006 19.2319 53.9643 19.1518 55.0338C19.106 55.5657 19.043 56.1032 19.0087 56.6351L18.9171 58.2364C18.9057 58.5052 18.8828 58.7683 18.8771 59.0428L18.8656 59.8549L18.837 61.4677C18.8542 65.7683 19.2548 70.069 20.0902 74.2667L20.4221 75.8395L20.5079 76.2341L20.6052 76.623L20.7998 77.4007C21.0459 78.4416 21.3663 79.4596 21.6639 80.4833C21.7325 80.7406 21.8241 80.9923 21.9099 81.2439L22.1674 81.9988C22.3391 82.5021 22.4993 83.0111 22.6996 83.5029C22.8884 84.0005 23.0773 84.4923 23.2661 84.9898C23.4664 85.4817 23.6839 85.9621 23.8899 86.4539L24.2046 87.1802L24.5479 87.8951C24.7768 88.3698 25 88.8502 25.2403 89.3191C25.7382 90.2456 26.2131 91.1892 26.7625 92.0814C27.2775 92.9964 27.8669 93.86 28.4334 94.7407C28.731 95.1696 29.04 95.5928 29.3375 96.016C29.492 96.2276 29.6351 96.4392 29.7953 96.6451L30.276 97.257L30.7567 97.869C30.9169 98.0749 31.0771 98.275 31.2488 98.4695C31.5864 98.8584 31.924 99.253 32.2616 99.6419C32.605 100.025 32.9712 100.391 33.3203 100.763C33.4977 100.946 33.6751 101.135 33.8525 101.318L34.4133 101.844L34.9683 102.37L35.2487 102.633L35.5406 102.885C35.9297 103.216 36.3131 103.548 36.7022 103.88C37.097 104.2 37.509 104.497 37.9039 104.812C38.2987 105.126 38.7222 105.407 39.1399 105.693C39.9639 106.276 40.8394 106.773 41.6978 107.282C42.1384 107.511 42.5848 107.746 43.0254 107.974L43.3573 108.146L43.6949 108.3L44.3759 108.604C46.1898 109.398 48.0496 110.05 49.9494 110.456C50.184 110.508 50.4187 110.577 50.659 110.617C50.8993 110.657 51.1339 110.697 51.3743 110.737C51.6146 110.777 51.8492 110.817 52.0896 110.857L52.4444 110.92L52.7991 110.954C53.2741 111.005 53.7491 111.051 54.224 111.103C54.699 111.137 55.1796 111.143 55.6603 111.166C55.8949 111.171 56.1467 111.188 56.3699 111.188C56.6045 111.183 56.8448 111.171 57.0795 111.166C57.3141 111.16 57.5487 111.148 57.7833 111.143C58.0179 111.131 58.2525 111.131 58.4872 111.103C58.9507 111.057 59.4199 111.005 59.8834 110.96C60.118 110.943 60.3469 110.903 60.5758 110.863C60.8047 110.822 61.0336 110.782 61.2625 110.748C61.4914 110.708 61.7203 110.674 61.9435 110.634C62.1724 110.594 62.3898 110.531 62.6187 110.479C63.065 110.371 63.5114 110.273 63.952 110.159C64.8218 109.885 65.6973 109.656 66.5328 109.313C66.7445 109.233 66.9505 109.153 67.1622 109.078L67.477 108.958C67.58 108.918 67.683 108.867 67.786 108.821C68.1923 108.638 68.5985 108.455 68.9991 108.278C69.1021 108.232 69.1994 108.192 69.3024 108.14L69.5942 107.986C69.7888 107.883 69.9834 107.78 70.1779 107.683C70.567 107.477 70.9619 107.288 71.3281 107.054C74.3438 105.309 76.9875 103.182 79.2307 100.86C81.4853 98.5495 83.3794 96.0789 84.9645 93.6026C86.5495 91.1206 87.8256 88.6328 88.8671 86.2251C89.9028 83.8174 90.7269 81.5013 91.3391 79.3109C91.4193 79.0364 91.4994 78.7676 91.5795 78.5045C91.6482 78.2357 91.7168 77.9669 91.7855 77.7038C91.9171 77.1777 92.0487 76.663 92.1803 76.1597C92.2891 75.6507 92.3978 75.1532 92.5008 74.6671C92.5523 74.4269 92.6038 74.1867 92.6553 73.9465C92.7011 73.712 92.7411 73.4718 92.7812 73.243C92.9414 72.3166 93.1074 71.4416 93.2046 70.6066C93.3134 69.7773 93.4335 68.9996 93.4908 68.2675C93.5537 67.5412 93.6338 66.8664 93.6682 66.2487C93.7025 65.6311 93.7368 65.0706 93.7597 64.5673C93.794 64.0698 93.794 63.618 93.8055 63.2291C93.8112 62.8402 93.8169 62.5142 93.8227 62.2569C93.8341 61.7307 93.8341 61.4619 93.8341 61.4619L93.8284 61.4734Z" fill="white"/>
</g>
<g opacity="0.68">
<path opacity="0.68" d="M11.6042 41.6513C11.6042 41.6513 13.0405 41.6342 15.5583 41.6113C18.0761 41.5941 21.6698 41.5656 25.9844 41.537C30.2991 41.5198 35.3347 41.4969 40.7309 41.474C46.1271 41.4683 51.878 41.4569 57.6347 41.4512C63.3857 41.4626 69.1423 41.474 74.5385 41.4798C77.2337 41.4912 79.8431 41.5026 82.3152 41.5084C84.7872 41.5198 87.1277 41.537 89.285 41.5484C93.5997 41.5656 97.199 41.6113 99.7111 41.6285C102.229 41.6571 103.665 41.6742 103.665 41.6742C103.688 41.6742 103.7 41.6914 103.7 41.7142C103.7 41.7371 103.682 41.7486 103.665 41.7486C103.665 41.7486 102.229 41.7657 99.7111 41.7943C97.1933 41.8115 93.5997 41.8572 89.285 41.8744C87.1277 41.8858 84.7872 41.8973 82.3152 41.9144C79.8431 41.9258 77.2337 41.9316 74.5385 41.943C69.1423 41.9544 63.3914 41.9602 57.6347 41.9716C51.8838 41.9659 46.1271 41.9544 40.7309 41.9487C35.3347 41.9258 30.3048 41.903 25.9844 41.8858C21.6698 41.8515 18.0704 41.8286 15.5583 41.8115C13.0405 41.7829 11.6042 41.7714 11.6042 41.7714C11.5755 41.7714 11.5469 41.7486 11.5469 41.7142C11.5469 41.6742 11.5698 41.6513 11.6042 41.6513Z" fill="white"/>
</g>
<g opacity="0.68">
<path opacity="0.68" d="M24.9537 22.3899C24.9537 22.3899 25.9723 22.3727 27.7634 22.3498C29.5488 22.3327 32.1009 22.3041 35.1681 22.2755C36.7017 22.264 38.3612 22.2526 40.1122 22.2412C41.869 22.2297 43.7173 22.2126 45.6343 22.2126C49.4625 22.2069 53.5483 22.1954 57.634 22.1897C61.7198 22.2011 65.8055 22.2126 69.6338 22.2183C71.5508 22.2183 73.3991 22.2354 75.1559 22.2469C76.9126 22.2583 78.5721 22.2755 80.1 22.2869C83.1614 22.3041 85.7193 22.3498 87.5047 22.367C89.2901 22.3956 90.3144 22.4127 90.3144 22.4127C90.3372 22.4127 90.3487 22.4299 90.3487 22.4528C90.3487 22.4756 90.3315 22.4871 90.3144 22.4871C90.3144 22.4871 89.2958 22.5042 87.5047 22.5328C85.7193 22.55 83.1672 22.5957 80.1 22.6129C78.5664 22.6243 76.9069 22.6358 75.1559 22.6529C73.3991 22.6701 71.5508 22.6815 69.6338 22.6815C65.8055 22.6929 61.7198 22.6987 57.634 22.7101C53.5483 22.7044 49.4625 22.6929 45.6343 22.6872C43.7173 22.6872 41.869 22.6701 40.1122 22.6586C38.3554 22.6472 36.696 22.6358 35.1681 22.6243C32.1066 22.59 29.5488 22.5671 27.7634 22.55C25.978 22.5214 24.9537 22.5099 24.9537 22.5099C24.9251 22.5099 24.8965 22.4871 24.8965 22.4528C24.8965 22.4127 24.9194 22.3899 24.9537 22.3899Z" fill="white"/>
</g>
<g opacity="0.68">
<path opacity="0.68" d="M7.6041 60.9128C7.6041 60.9128 9.1663 60.8957 11.9016 60.8728C14.6369 60.8556 18.5452 60.827 23.2376 60.7984C27.9299 60.7813 33.4005 60.7584 39.2602 60.7355C45.1256 60.7298 51.3744 60.7184 57.6289 60.7126C63.8834 60.7241 70.138 60.7355 75.9977 60.7412C78.9275 60.7527 81.7601 60.7641 84.4496 60.7698C87.1391 60.7813 89.6798 60.7984 92.0202 60.8099C96.7126 60.8442 100.621 60.8728 103.356 60.8899C106.092 60.9185 107.654 60.9357 107.654 60.9357C107.677 60.9357 107.688 60.9528 107.688 60.9757C107.688 60.9986 107.671 61.01 107.654 61.01C107.654 61.01 106.092 61.0272 103.356 61.0558C100.621 61.0729 96.7126 61.1015 92.0202 61.1359C89.6741 61.1473 87.1334 61.1587 84.4496 61.1759C81.7601 61.1873 78.9275 61.193 75.9977 61.2045C70.1322 61.2159 63.8834 61.2216 57.6289 61.2331C51.3744 61.2274 45.1198 61.2159 39.2602 61.2102C33.3947 61.1873 27.9242 61.1644 23.2376 61.1473C18.5452 61.113 14.6369 61.0901 11.9016 61.0729C9.1663 61.0443 7.6041 61.0329 7.6041 61.0329C7.57549 61.0329 7.54688 61.01 7.54688 60.9757C7.54688 60.9357 7.57549 60.9128 7.6041 60.9128Z" fill="white"/>
</g>
<g opacity="0.68">
<path opacity="0.68" d="M11.6042 80.1746C11.6042 80.1746 13.0405 80.1574 15.5583 80.1345C18.0761 80.1174 21.6698 80.0888 25.9844 80.0602C30.2991 80.043 35.3347 80.0201 40.7309 79.9972C46.1271 79.9915 51.878 79.9801 57.6347 79.9744C63.3857 79.9858 69.1423 79.9972 74.5385 80.003C77.2337 80.0144 79.8431 80.0258 82.3152 80.0316C84.7872 80.043 87.1277 80.0602 89.285 80.0716C93.5997 80.0888 97.199 80.1345 99.7111 80.1517C102.229 80.1803 103.665 80.1974 103.665 80.1974C103.688 80.1974 103.7 80.2146 103.7 80.2375C103.7 80.2604 103.682 80.2718 103.665 80.2718C103.665 80.2718 102.229 80.289 99.7111 80.3176C97.1933 80.3347 93.5997 80.3805 89.285 80.3977C87.1277 80.4091 84.7872 80.4205 82.3152 80.4377C79.8431 80.4491 77.2337 80.4548 74.5385 80.4663C69.1423 80.4777 63.3914 80.4834 57.6347 80.4949C51.8838 80.4892 46.1271 80.4777 40.7309 80.472C35.3347 80.4491 30.3048 80.4262 25.9844 80.4091C21.6698 80.3748 18.0704 80.3519 15.5583 80.3347C13.0405 80.3061 11.6042 80.2947 11.6042 80.2947C11.5755 80.2947 11.5469 80.2718 11.5469 80.2375C11.5469 80.2032 11.5698 80.1746 11.6042 80.1746Z" fill="white"/>
</g>
<path opacity="0.68" d="M91.9572 99.6876H26.5967C26.4879 99.6876 26.4021 99.6019 26.4021 99.4932C26.4021 99.3846 26.4879 99.2988 26.5967 99.2988H91.9572C92.0659 99.2988 92.1518 99.3846 92.1518 99.4932C92.1518 99.6019 92.0659 99.6876 91.9572 99.6876Z" fill="white"/>
</g>
<path d="M15.6033 65.4596V137.101C15.6033 142.998 19.8436 147.813 25.1597 147.967C48.7815 148.642 131.406 150.278 153.895 149.912C157.758 149.849 160.894 146.423 161.002 142.145C161.437 125.503 162.141 85.4818 159.532 66.9008C158.982 62.989 156.001 60.0608 152.43 59.935C132.637 59.2316 45.0505 57.0069 22.5732 57.5674C18.6991 57.6589 15.6033 61.1646 15.6033 65.4596Z" fill="#402385"/>
<path d="M19.66 65.1107V133.178C19.66 136.621 22.1549 139.423 25.2622 139.475L150.662 141.19C153.74 141.242 156.264 138.497 156.275 135.088L156.487 67.6328C156.493 65.1908 154.742 63.1949 152.539 63.1377L24.152 60.2668C21.6857 60.1867 19.66 62.3828 19.66 65.1107Z" fill="#8039FB"/>
<path d="M24.2839 67.4327V129.083C24.2839 132.2 26.6243 134.739 29.5427 134.785L147.326 136.341C150.216 136.386 152.59 133.899 152.602 130.81L152.796 69.7146C152.802 67.5071 151.154 65.6941 149.088 65.6427L28.5012 63.0405C26.1894 62.9719 24.2839 64.9621 24.2839 67.4327Z" fill="#9B5EFC"/>
<path opacity="0.1" d="M157.22 143.958L19.6548 141.362C19.5575 141.362 19.4832 141.282 19.4832 141.185C19.4832 141.087 19.5633 141.019 19.6605 141.013L157.22 143.609C157.317 143.609 157.392 143.689 157.392 143.787C157.392 143.884 157.317 143.958 157.22 143.958Z" fill="white"/>
<path d="M45.2847 110.754C41.1017 110.708 37.5653 107.385 37.2277 103.182L36.4666 93.6427C36.2835 91.3666 37.0331 89.1362 38.5209 87.5291C39.9458 85.985 41.8914 85.1329 43.9972 85.1329L118.525 84.9956C120.86 84.9956 122.897 85.9278 124.282 87.6206C125.695 89.3535 126.233 91.704 125.747 94.0774L123.709 104.086C122.862 108.243 118.811 111.503 114.485 111.503C114.479 111.497 45.2847 110.754 45.2847 110.754Z" fill="#BDD0FB"/>
<path d="M118.525 86.9287L43.9975 87.066C40.6156 87.0717 38.115 89.9998 38.3954 93.4884L39.1564 103.028C39.4139 106.224 42.1549 108.781 45.3022 108.815L114.4 109.559C117.81 109.593 121.118 107.037 121.799 103.691L123.836 93.6828C124.591 90.0284 122.222 86.923 118.525 86.9287Z" fill="#AA54FD"/>
<path d="M61.3021 93.8086L57.863 104.309H57.8515C57.6913 104.823 57.285 105.189 56.8387 105.298H56.8272C56.8158 105.298 56.7872 105.31 56.7757 105.31H56.7471C56.7357 105.31 56.7185 105.321 56.7071 105.321H56.6785H56.6384H56.6098H56.564H56.5354H56.4953H56.4667H56.4381H56.3981H56.3694C56.358 105.321 56.3408 105.31 56.3294 105.31H56.3008C56.2893 105.31 56.2607 105.298 56.2493 105.298H56.2378C55.7915 105.189 55.3852 104.823 55.2078 104.309L53.039 97.6918L50.8703 104.309C50.71 104.823 50.3038 105.189 49.8574 105.298H49.846C49.8174 105.298 49.8059 105.31 49.7945 105.31H49.7659C49.7544 105.31 49.7372 105.321 49.7258 105.321H49.6972H49.6571H49.6285H49.5885H49.5599H49.5255H49.4969H49.4569H49.4282H49.3996C49.3882 105.321 49.371 105.31 49.3596 105.31H49.331C49.3023 105.31 49.2909 105.298 49.2795 105.298H49.268C48.8102 105.189 48.4154 104.823 48.238 104.309L44.7989 93.8086V93.78C44.7474 93.6199 44.7188 93.4426 44.7188 93.2768C44.7188 92.6534 45.085 92.0701 45.6515 91.8699C45.7888 91.8184 45.9376 91.8013 46.0692 91.8013C46.6529 91.8013 47.208 92.2073 47.3968 92.8421C47.4083 92.8707 48.5871 96.4565 49.5656 99.4304C50.5384 96.4508 51.7172 92.865 51.7172 92.8421C51.866 92.3846 52.175 92.0586 52.5584 91.8928L52.5698 91.8813C52.5813 91.8813 52.5984 91.8699 52.6099 91.8699H52.6213C52.6328 91.8699 52.6328 91.8585 52.6499 91.8585H52.6785C52.69 91.847 52.7071 91.847 52.7186 91.847L52.73 91.8356C52.7586 91.8356 52.7701 91.8356 52.7815 91.8241H52.793C52.8216 91.8241 52.833 91.8241 52.8445 91.8127H52.8559H52.9074H52.9189C52.9475 91.8127 52.9589 91.8127 52.9704 91.8013H52.999H53.0276H53.0677H53.0963C53.1077 91.8127 53.1249 91.8127 53.1363 91.8127H53.1649H53.2164C53.245 91.8241 53.2565 91.8241 53.2851 91.8241C53.3137 91.8356 53.3252 91.8356 53.3366 91.8356C53.348 91.8356 53.348 91.8356 53.348 91.847C53.3767 91.847 53.3881 91.847 53.3995 91.8585H53.4282C53.4282 91.8585 53.4396 91.8699 53.4568 91.8699H53.4682C53.4797 91.8699 53.4968 91.8813 53.5083 91.8813L53.5197 91.8928C53.8974 92.0529 54.2121 92.3789 54.3609 92.8421C54.3609 92.8707 55.5397 96.4565 56.5125 99.4304C57.4853 96.4508 58.6641 92.865 58.6641 92.8421C58.8644 92.2073 59.4252 91.8013 60.0031 91.8013C60.1405 91.8013 60.2893 91.8127 60.4209 91.8699C60.9874 92.0701 61.3536 92.6534 61.3536 93.2768C61.3536 93.4369 61.325 93.6142 61.2735 93.78V93.8086H61.3021Z" fill="white"/>
<path d="M78.6517 93.8086L75.2126 104.309H75.2011C75.0409 104.823 74.6346 105.189 74.1883 105.298H74.1769C74.1654 105.298 74.1368 105.31 74.1253 105.31H74.0967C74.0853 105.31 74.0681 105.321 74.0567 105.321H74.0281H73.988H73.9594H73.9193H73.8907H73.8507H73.8221H73.7935H73.7534H73.7248C73.7133 105.321 73.6962 105.31 73.6847 105.31H73.6561C73.6447 105.31 73.6161 105.298 73.6046 105.298H73.5932C73.1468 105.189 72.7405 104.823 72.5631 104.309L70.3944 97.6918L68.2256 104.309C68.0654 104.823 67.6591 105.189 67.2128 105.298H67.2013C67.1727 105.298 67.1613 105.31 67.1498 105.31H67.1212C67.1098 105.31 67.0926 105.321 67.0811 105.321H67.0525H67.0125H66.9839H66.9438H66.9152H66.8751H66.8465H66.8065H66.7779H66.7492C66.7378 105.321 66.7206 105.31 66.7092 105.31H66.6806C66.652 105.31 66.6405 105.298 66.6291 105.298H66.6176C66.1598 105.189 65.765 104.823 65.5876 104.309L62.1485 93.8086V93.78C62.097 93.6199 62.0684 93.4426 62.0684 93.2768C62.0684 92.6534 62.4346 92.0701 63.0011 91.8699C63.1384 91.8184 63.2872 91.8013 63.4188 91.8013C64.0025 91.8013 64.5576 92.2073 64.7464 92.8421C64.7579 92.8707 65.9367 96.4565 66.9152 99.4304C67.888 96.4508 69.0668 92.865 69.0668 92.8421C69.2156 92.3846 69.5246 92.0586 69.908 91.8928L69.9194 91.8813C69.9309 91.8813 69.948 91.8699 69.9595 91.8699H69.9709C69.9824 91.8699 69.9824 91.8585 69.9995 91.8585H70.0282C70.0396 91.847 70.0568 91.847 70.0682 91.847L70.0796 91.8356C70.1083 91.8356 70.1197 91.8356 70.1311 91.8241H70.1426C70.1712 91.8241 70.1826 91.8241 70.1941 91.8127H70.2055H70.257H70.2685C70.2971 91.8127 70.3085 91.8127 70.32 91.8013H70.3486H70.3772H70.4173H70.4459C70.4573 91.8127 70.4745 91.8127 70.4859 91.8127H70.5146H70.566C70.5947 91.8241 70.6061 91.8241 70.6347 91.8241C70.6633 91.8356 70.6748 91.8356 70.6862 91.8356C70.6977 91.8356 70.6977 91.8356 70.6977 91.847C70.7263 91.847 70.7377 91.847 70.7492 91.8585H70.7778C70.7778 91.8585 70.7892 91.8699 70.8064 91.8699H70.8178C70.8293 91.8699 70.8464 91.8813 70.8579 91.8813L70.8693 91.8928C71.247 92.0529 71.5617 92.3789 71.7105 92.8421C71.7105 92.8707 72.8893 96.4565 73.8621 99.4304C74.8349 96.4508 76.0137 92.865 76.0137 92.8421C76.214 92.2073 76.7748 91.8013 77.3528 91.8013C77.4901 91.8013 77.6389 91.8127 77.7705 91.8699C78.337 92.0701 78.7032 92.6534 78.7032 93.2768C78.7032 93.4369 78.6746 93.6142 78.6231 93.78V93.8086H78.6517Z" fill="white"/>
<path d="M96.0025 93.8086L92.5633 104.309H92.5519C92.3916 104.823 91.9854 105.189 91.539 105.298H91.5276C91.5161 105.298 91.4875 105.31 91.4761 105.31H91.4475C91.436 105.31 91.4188 105.321 91.4074 105.321H91.3788H91.3387H91.3101H91.2701H91.2414H91.2014H91.1728H91.1442H91.1041H91.0755C91.0641 105.321 91.0469 105.31 91.0354 105.31H91.0068C90.9954 105.31 90.9668 105.298 90.9553 105.298H90.9439C90.4975 105.189 90.0913 104.823 89.9139 104.309L87.7451 97.6918L85.5763 104.309C85.4161 104.823 85.0098 105.189 84.5634 105.298H84.552C84.5234 105.298 84.5119 105.31 84.5005 105.31H84.4719C84.4604 105.31 84.4433 105.321 84.4318 105.321H84.4032H84.3631H84.3345H84.2945H84.2659H84.2258H84.1972H84.1571H84.1285H84.0999C84.0885 105.321 84.0713 105.31 84.0599 105.31H84.0312C84.0026 105.31 83.9912 105.298 83.9797 105.298H83.9683C83.5105 105.189 83.1157 104.823 82.9383 104.309L79.4991 93.8086V93.78C79.4476 93.6199 79.419 93.4426 79.419 93.2768C79.419 92.6534 79.7852 92.0701 80.3518 91.8699C80.4891 91.8184 80.6379 91.8013 80.7695 91.8013C81.3532 91.8013 81.9082 92.2073 82.0971 92.8421C82.1085 92.8707 83.2873 96.4565 84.2659 99.4304C85.2387 96.4508 86.4175 92.865 86.4175 92.8421C86.5663 92.3846 86.8753 92.0586 87.2587 91.8928L87.2701 91.8813C87.2816 91.8813 87.2987 91.8699 87.3102 91.8699H87.3216C87.3331 91.8699 87.3331 91.8585 87.3502 91.8585H87.3788C87.3903 91.847 87.4074 91.847 87.4189 91.847L87.4303 91.8356C87.459 91.8356 87.4704 91.8356 87.4818 91.8241H87.4933C87.5219 91.8241 87.5333 91.8241 87.5448 91.8127H87.5562H87.6077H87.6192C87.6478 91.8127 87.6592 91.8127 87.6707 91.8013H87.6993H87.7279H87.768H87.7966C87.808 91.8127 87.8252 91.8127 87.8366 91.8127H87.8652H87.9167C87.9454 91.8241 87.9568 91.8241 87.9854 91.8241C88.014 91.8356 88.0255 91.8356 88.0369 91.8356C88.0484 91.8356 88.0484 91.8356 88.0484 91.847C88.077 91.847 88.0884 91.847 88.0999 91.8585H88.1285C88.1285 91.8585 88.1399 91.8699 88.1571 91.8699H88.1685C88.18 91.8699 88.1971 91.8813 88.2086 91.8813L88.22 91.8928C88.5977 92.0529 88.9124 92.3789 89.0612 92.8421C89.0612 92.8707 90.24 96.4565 91.2128 99.4304C92.1856 96.4508 93.3645 92.865 93.3645 92.8421C93.5647 92.2073 94.1255 91.8013 94.7035 91.8013C94.8408 91.8013 94.9896 91.8127 95.1212 91.8699C95.6877 92.0701 96.054 92.6534 96.054 93.2768C96.054 93.4369 96.0254 93.6142 95.9739 93.78V93.8086H96.0025Z" fill="white"/>
<path d="M99.682 105.532C99.682 105.853 99.4245 106.116 99.0983 106.116C98.7779 106.116 98.5146 105.858 98.5146 105.532V89.4564C98.5146 89.1361 98.7722 88.873 99.0983 88.873C99.4188 88.873 99.682 89.1304 99.682 89.4564V105.532Z" fill="white"/>
<path d="M130.427 118.915L121.752 108.341C121.684 108.255 121.661 108.146 121.695 108.043C121.729 107.94 121.815 107.866 121.918 107.837L129.58 106.002C129.889 105.927 130.13 105.676 130.181 105.355C130.233 105.041 130.09 104.726 129.821 104.555L107.962 90.749C107.698 90.5831 107.355 90.5831 107.098 90.7604C106.834 90.932 106.703 91.2465 106.754 91.5553L111.298 118.978C111.355 119.31 111.607 119.567 111.933 119.63C112.259 119.693 112.591 119.544 112.763 119.252L117.003 112.138C117.054 112.047 117.152 111.989 117.255 111.984C117.358 111.978 117.461 112.024 117.524 112.104L125.603 122.455C126.067 123.05 126.908 123.181 127.532 122.758L130.124 120.997C130.456 120.774 130.679 120.419 130.736 120.019C130.794 119.624 130.685 119.224 130.427 118.915Z" fill="white"/>
<path d="M37.5131 140.178H35.9853V156.712H37.5131V140.178Z" fill="#7D97F4"/>
<path d="M43.4478 157.032H30.0518V156.512C30.0518 156.248 30.2635 156.037 30.5267 156.037H42.9328C43.2189 156.037 43.4478 156.266 43.4478 156.552V157.032Z" fill="#7D97F4"/>
<path d="M45.9824 139.566C45.9824 140.527 45.1985 141.316 44.2314 141.316H29.8282C28.8668 141.316 28.0771 140.533 28.0771 139.566V137.988C28.0771 137.027 28.8611 136.238 29.8282 136.238H44.2314C45.1927 136.238 45.9824 137.021 45.9824 137.988V139.566Z" fill="#7D97F4"/>
<path d="M23.1907 151.69C23.1907 151.69 18.2466 153.818 18.527 156.048C18.527 156.048 23.6371 155.07 24.5526 153.606C25.4682 152.148 24.9646 151.302 24.9646 151.302L23.1907 151.69Z" fill="#0F1091"/>
<path d="M24.3981 149.26L24.6499 151.427C24.69 151.753 24.5069 152.079 24.1979 152.188C24.0434 152.245 23.8374 152.279 23.5741 152.285C23.1964 152.285 22.8645 152.039 22.7615 151.673L22.2751 149.917L24.3981 149.26Z" fill="#FEAAA8"/>
<path d="M35.2023 132.623C35.2023 132.623 26.1038 132.2 21.5832 134.842C17.0625 137.484 21.8121 150.141 21.8121 150.141C21.8121 150.141 22.9966 150.392 24.6961 149.483C24.6961 149.483 22.2641 140.212 26.4872 138.6C31.231 136.787 36.1408 137.227 36.1408 137.227L35.231 132.904L35.2023 132.623Z" fill="#AA54FD"/>
<path d="M19.5227 155.07C20.5584 154.841 23.6256 153.572 24.0891 153.589C24.5527 153.606 25.2165 154.304 25.2165 154.304C25.2165 154.304 25.3309 154.687 24.999 155.23C24.2093 155.848 22.5041 156.975 20.5298 157.101C19.0764 157.192 18.2008 156.614 17.6973 156.054C18.1264 155.625 18.8303 155.219 19.5227 155.07Z" fill="#AA54FD"/>
<path d="M20.5242 157.107C22.5042 156.981 24.2037 155.854 24.9934 155.236C24.7702 155.608 24.3411 156.054 23.5342 156.506C21.5314 157.633 18.2296 157.473 17.5715 157.215C17.0451 157.009 17.211 156.523 17.686 156.054C18.1895 156.615 19.065 157.192 20.5242 157.107Z" fill="#4F52FF"/>
<path d="M26.2978 153.172C26.2291 153.429 25.5081 154.195 25.0846 154.624C24.8844 154.83 24.5983 154.916 24.3179 154.853C24.1405 154.813 23.9402 154.756 23.7685 154.659C23.511 154.516 23.4194 154.19 23.5625 153.932L24.6211 152.005L26.2978 153.172Z" fill="#FEAAA8"/>
<path d="M44.2147 131.863C44.2147 131.863 45.0101 137.49 42.7155 138.64C40.4208 139.789 35.3852 140.544 33.6513 143.461C31.9174 146.383 28.8045 152.114 25.9662 153.755C25.9662 153.755 24.3468 153.229 23.8718 152.434C23.8718 152.434 27.2366 143.592 28.6385 141.448C29.8517 139.589 31.6313 136.907 34.1549 135.746C34.8759 135.414 34.9331 134.648 34.8072 133.864L34.5783 132.435L44.2147 131.863Z" fill="#AA54FD"/>
<path d="M22.9396 125.48C26.1556 126.401 27.5976 117.348 27.5862 117.125L32.5188 122.89C32.5188 122.89 29.5775 128.06 25.137 128.609C24.0154 128.746 23.0598 128.552 22.2587 128.185C22.8538 127.225 22.9854 126.27 22.9396 125.48Z" fill="#D570FE"/>
<path d="M16.9822 122.518C18.3841 121.94 19.5744 123.09 19.5744 123.09C20.9649 124.514 22.0693 125.229 22.9391 125.48C22.9849 126.269 22.8476 127.225 22.2582 128.191C20.5243 127.396 19.5114 125.795 19.0994 124.988C18.9506 124.702 18.5959 124.577 18.304 124.72C18.0065 124.863 17.6974 125.08 17.6803 125.383C17.6402 125.972 16.9421 126.006 16.9364 125.789C16.9307 125.572 17.48 124.411 17.48 124.411C17.48 124.411 15.8663 125.446 15.2426 125.841C14.6131 126.235 14.0809 125.583 14.0809 125.583C14.0809 125.583 15.5802 123.095 16.9822 122.518Z" fill="#FEAAA8"/>
<path d="M42.9786 113.402C42.9786 113.402 38.6525 110.451 28.2092 115.787C28.2092 115.787 27.1334 117.148 27.637 118.686C28.1406 120.225 34.3436 128.54 34.5839 132.44C34.5839 132.44 38.8242 134.934 44.3291 132.463C44.3234 132.463 46.1717 122.152 42.9786 113.402Z" fill="#D570FE"/>
<path d="M32.9134 108.781L35.683 112.978C35.8547 113.31 35.8146 113.71 35.5858 114.002C35.1165 114.591 34.1323 115.386 32.4556 114.871C31.9578 114.717 31.5744 114.317 31.4542 113.808L30.5673 110.073L32.9134 108.781Z" fill="#FEAAA8"/>
<path d="M46.1779 125.092C46.4698 123.056 41.0908 119.115 41.0908 119.115L42.9734 113.408C42.9734 113.408 53.2393 120.728 51.082 126.71C50.773 127.568 50.3095 128.191 49.7487 128.632C48.6614 126.395 47.1908 125.475 46.1779 125.092Z" fill="#D570FE"/>
<path d="M38.6757 125.652C38.6757 125.652 44.7585 127.35 46.0231 125.497C46.109 125.372 46.1605 125.234 46.1776 125.086C47.1848 125.469 48.6611 126.395 49.7484 128.62C46.8586 130.891 41.2908 128.346 39.7744 127.579C39.5226 127.453 39.2365 127.431 38.9732 127.511C38.4353 127.676 37.5026 127.939 36.9819 127.911C36.2208 127.871 35.4025 130.616 34.1093 129.918C34.115 129.93 34.6987 125.24 38.6757 125.652Z" fill="#FEAAA8"/>
<path d="M26.5956 106.127C26.5899 106.202 27.8488 110.554 28.4954 112.773C28.69 113.448 29.4339 113.802 30.0862 113.533L30.5841 113.328C31.2651 113.042 32.4553 112.161 32.524 111.429L32.2951 106.167C32.2951 106.162 26.6872 104.52 26.5956 106.127Z" fill="#FEAAA8"/>
<path d="M32.2607 104.703C32.3923 104.211 32.398 103.474 31.4653 103.153C30.5154 102.827 29.8802 103.371 29.5483 103.8C29.411 103.971 29.1764 104.017 28.9818 103.92C28.8731 103.863 28.7357 103.851 28.5812 103.971C28.3752 104.126 28.0719 104.057 27.9403 103.834C27.6828 103.405 27.1964 102.965 26.3152 103.193C24.753 103.605 24.7301 105.372 25.2394 106.362C25.7487 107.351 27.4139 106.814 28.2207 106.219C28.833 105.767 29.7143 106.11 30.0977 106.293C30.2178 106.35 30.3094 106.465 30.338 106.596L30.7729 108.552C31.2593 108.598 31.7343 108.689 32.2092 108.781C32.2035 108.638 32.1978 108.512 32.1978 108.421C32.2149 107.774 32.9703 107.317 33.3022 107.151C33.4109 107.094 33.491 107.002 33.5253 106.882C33.6512 106.47 33.7886 105.533 32.5926 105.258C32.3465 105.201 32.192 104.949 32.2607 104.703Z" fill="#1A0F91"/>
<path d="M32.4387 109.57C32.4387 109.57 31.6261 107.803 32.2556 107.3C32.885 106.797 33.8978 106.94 33.7948 108.278C33.669 109.942 32.4387 109.57 32.4387 109.57Z" fill="#FEBBBA"/>
<path d="M30.9045 129.524C30.893 129.524 30.8816 129.524 30.8701 129.524L16.6558 129.507C16.3067 129.507 16.0206 129.221 16.0206 128.872C16.0206 128.523 16.3067 128.231 16.6558 128.237L30.8701 128.254C31.2192 128.254 31.5053 128.54 31.5053 128.889C31.5053 129.232 31.2421 129.512 30.9045 129.524Z" fill="#1A0F91"/>
<path d="M3.87197 116.627H15.7115C16.587 116.627 17.3824 117.131 17.7544 117.92L23.2307 129.518H8.51279C7.952 129.518 7.44271 129.175 7.23671 128.649L2.99073 117.914C2.75039 117.297 3.20818 116.627 3.87197 116.627Z" fill="#1A0F91"/>
<path d="M5.79417 160C5.71406 160 5.63395 159.983 5.55955 159.954C5.25627 159.829 5.11893 159.485 5.24483 159.194L17.7768 131.01C17.9084 130.719 18.2574 130.582 18.5607 130.707C18.864 130.833 19.0013 131.176 18.8754 131.468L6.34352 159.651C6.24624 159.869 6.02306 160 5.79417 160Z" fill="#91B3FA"/>
<path d="M19.9056 160C19.6767 160 19.4535 159.869 19.3563 159.651L6.82433 131.468C6.69272 131.176 6.83578 130.833 7.13906 130.707C7.44235 130.582 7.79141 130.719 7.92302 131.01L20.455 159.194C20.5866 159.485 20.4435 159.829 20.1402 159.954C20.0658 159.983 19.9857 160 19.9056 160Z" fill="#91B3FA"/>
<path d="M44.5803 160C44.5002 160 44.4201 159.983 44.3457 159.954C44.0424 159.829 43.9051 159.485 44.031 159.194L56.5629 131.01C56.6945 130.719 57.0436 130.582 57.3469 130.707C57.6502 130.833 57.7875 131.176 57.6616 131.468L45.1297 159.651C45.0266 159.869 44.8092 160 44.5803 160Z" fill="#91B3FA"/>
<path d="M58.6909 160C58.462 160 58.2388 159.869 58.1415 159.651L45.6096 131.468C45.4779 131.176 45.621 130.833 45.9243 130.707C46.2276 130.582 46.5766 130.719 46.7082 131.01L59.2402 159.194C59.3718 159.485 59.2288 159.829 58.9255 159.954C58.8511 159.983 58.771 160 58.6909 160Z" fill="#91B3FA"/>
<path d="M60.1628 130.141C60.1972 129.958 60.1514 129.764 60.0426 129.621C59.9339 129.478 59.7737 129.392 59.6077 129.392H2.6074C2.38423 129.392 2.17823 129.518 2.05806 129.73C1.93789 129.935 1.92072 130.198 2.018 130.427L2.63602 131.926C2.77907 132.269 3.08236 132.486 3.41998 132.486H59.2186C59.5334 132.486 59.8023 132.234 59.8595 131.891L60.1628 130.141Z" fill="#91B3FA"/>
<path d="M141.54 5.38156L128.819 4.71815C127.778 4.66668 126.954 5.47306 126.982 6.51963L127.309 18.215C127.337 19.17 128.161 19.9021 129.145 19.8506L141.225 19.2558C142.044 19.2158 142.719 18.4895 142.747 17.6316L143.039 7.15444C143.068 6.22225 142.398 5.42731 141.54 5.38156Z" fill="#EEA4C9"/>
<path d="M134.8 17.037C132.156 17.037 130.01 14.8866 130.01 12.2502C130.01 9.61372 132.162 7.46338 134.8 7.46338C137.443 7.46338 139.589 9.61372 139.589 12.2502C139.589 14.8866 137.438 17.037 134.8 17.037ZM134.8 8.25832C132.602 8.25832 130.811 10.0484 130.811 12.2445C130.811 14.4405 132.602 16.2306 134.8 16.2306C136.997 16.2306 138.788 14.4405 138.788 12.2445C138.788 10.0484 136.997 8.25832 134.8 8.25832Z" fill="white"/>
<path fill-rule="evenodd" clip-rule="evenodd" d="M133.294 14.0918V10.649C133.294 10.283 133.695 10.0542 134.009 10.243L136.911 11.9644C137.22 12.1474 137.22 12.5992 136.911 12.7822L134.009 14.5036C133.695 14.6866 133.294 14.4578 133.294 14.0918Z" fill="white"/>
<path d="M16.9315 98.1892L6.28791 97.6345C5.41811 97.5888 4.72571 98.2693 4.7486 99.1443L5.02327 108.929C5.04616 109.73 5.73856 110.342 6.55686 110.302L16.6625 109.805C17.3492 109.77 17.9157 109.164 17.9329 108.443L18.1789 99.6819C18.2076 98.8927 17.6468 98.2236 16.9315 98.1892Z" fill="#5CBBE5"/>
<path d="M15.0146 107.277H9.33805C9.1206 107.277 8.93176 107.134 8.87454 106.928L7.26655 101.421L5.63568 101.135C5.37246 101.089 5.19506 100.837 5.24084 100.574C5.28662 100.311 5.5384 100.134 5.80163 100.18L7.73006 100.517C7.91318 100.551 8.06196 100.683 8.11346 100.86L9.70428 106.305H14.6141L15.3408 102.381C15.3923 102.118 15.6441 101.947 15.9073 101.992C16.1705 102.044 16.3422 102.296 16.2964 102.559L15.4953 106.876C15.4438 107.111 15.2435 107.277 15.0146 107.277Z" fill="white"/>
<path d="M15.5695 102.822H8.01026C7.74131 102.822 7.52386 102.604 7.52386 102.336C7.52386 102.067 7.74131 101.85 8.01026 101.85H15.5695C15.8384 101.85 16.0559 102.067 16.0559 102.336C16.0559 102.604 15.8384 102.822 15.5695 102.822Z" fill="white"/>
<path d="M10.6263 106.596C10.3573 106.596 10.1399 106.379 10.1399 106.11V102.427C10.1399 102.158 10.3573 101.941 10.6263 101.941C10.8952 101.941 11.1127 102.158 11.1127 102.427V106.11C11.1127 106.379 10.8952 106.596 10.6263 106.596Z" fill="white"/>
<path d="M13.3392 106.596C13.0702 106.596 12.8528 106.379 12.8528 106.11V102.427C12.8528 102.158 13.0702 101.941 13.3392 101.941C13.6081 101.941 13.8256 102.158 13.8256 102.427V106.11C13.8256 106.379 13.6081 106.596 13.3392 106.596Z" fill="white"/>
<path d="M15.1811 104.76H8.78352C8.51457 104.76 8.29712 104.543 8.29712 104.274C8.29712 104.005 8.51457 103.788 8.78352 103.788H15.1811C15.4501 103.788 15.6675 104.005 15.6675 104.274C15.6675 104.543 15.4501 104.76 15.1811 104.76Z" fill="white"/>
<path d="M10.9291 108.243C10.9291 108.615 10.6258 108.913 10.2596 108.913C9.88765 108.913 9.59009 108.609 9.59009 108.243C9.59009 107.872 9.89337 107.574 10.2596 107.574C10.6258 107.569 10.9291 107.872 10.9291 108.243Z" fill="white"/>
<path d="M15.0207 108.243C15.0207 108.615 14.7174 108.913 14.3512 108.913C13.9792 108.913 13.6816 108.609 13.6816 108.243C13.6816 107.872 13.9849 107.574 14.3512 107.574C14.7174 107.569 15.0207 107.872 15.0207 108.243Z" fill="white"/>
<path d="M153.918 94.8782L143.2 94.3235C142.324 94.2777 141.626 94.9583 141.649 95.839L141.924 105.693C141.947 106.499 142.645 107.111 143.469 107.071L153.649 106.568C154.341 106.533 154.908 105.921 154.93 105.195L155.177 96.3708C155.205 95.5873 154.639 94.9125 153.918 94.8782Z" fill="#EEA4C9"/>
<path d="M152.201 104.372H144.654C144.007 104.372 143.486 103.846 143.486 103.205V97.7951C143.486 97.1488 144.013 96.6284 144.654 96.6284H152.201C152.848 96.6284 153.369 97.1546 153.369 97.7951V103.205C153.369 103.846 152.842 104.372 152.201 104.372ZM144.654 97.5892C144.545 97.5892 144.453 97.6807 144.453 97.7894V103.199C144.453 103.308 144.545 103.4 144.654 103.4H152.201C152.31 103.4 152.402 103.308 152.402 103.199V97.7894C152.402 97.6807 152.31 97.5892 152.201 97.5892H144.654Z" fill="white"/>
<path d="M148.356 101.021C148.259 101.021 148.161 100.992 148.075 100.929L143.869 97.9437C143.652 97.7893 143.601 97.4862 143.755 97.2689C143.91 97.0516 144.213 97.0001 144.43 97.1545L148.356 99.9397L152.23 97.1888C152.447 97.0344 152.751 97.0859 152.905 97.3032C153.06 97.5205 153.008 97.8236 152.791 97.978L148.636 100.929C148.55 100.992 148.453 101.021 148.356 101.021Z" fill="white"/>
<path d="M144.224 104.429L144.081 103.474L144.15 103.954L143.744 103.691C143.83 103.554 145.34 100.906 146.336 99.1675C146.468 98.9331 146.765 98.853 147 98.9845C147.234 99.1161 147.314 99.4135 147.183 99.6479C147.183 99.6479 146.536 100.786 145.884 101.924C145.558 102.49 145.232 103.062 144.985 103.485C144.453 104.389 144.453 104.389 144.224 104.429Z" fill="white"/>
<path d="M152.459 104.429C152.23 104.389 152.23 104.389 151.704 103.48C151.458 103.051 151.132 102.484 150.805 101.918C150.153 100.78 149.506 99.6421 149.506 99.6421C149.375 99.4076 149.455 99.1159 149.69 98.9787C149.918 98.8471 150.216 98.9272 150.348 99.1617C151.343 100.906 152.854 103.548 152.94 103.685L152.534 103.948L152.459 104.429Z" fill="white"/>
<path d="M156.006 19.805L145.288 19.2502C144.413 19.2045 143.715 19.885 143.738 20.7658L144.012 30.6195C144.035 31.4259 144.733 32.0378 145.557 31.9978L155.738 31.4945C156.43 31.4602 156.996 30.8483 157.019 30.122L157.265 21.2976C157.294 20.5141 156.733 19.845 156.006 19.805Z" fill="#EEA4C9"/>
<path d="M151.274 21.6521C151.097 21.5892 150.908 21.7208 150.908 21.9095V22.2984V23.059V26.8278C150.536 26.519 150.015 26.3303 149.437 26.3303C148.304 26.3303 147.383 27.0623 147.383 27.9716C147.383 28.8752 148.304 29.613 149.437 29.613C150.57 29.613 151.492 28.8809 151.492 27.9716C151.492 27.9659 151.492 27.9545 151.492 27.9487V23.0647C152.304 23.1905 152.859 23.8025 153.18 24.3057C153.317 24.5173 153.643 24.4087 153.626 24.157C153.546 22.6358 151.995 21.9095 151.274 21.6521Z" fill="white"/>
<path d="M26.8767 52.8324C26.1786 53.9075 24.7366 54.2107 23.6608 53.5129C22.585 52.8152 22.2817 51.374 22.9798 50.2989C23.678 49.2237 25.12 48.9206 26.1958 49.6183C27.2716 50.316 27.5749 51.7572 26.8767 52.8324ZM23.7524 50.8021C23.3289 51.4484 23.512 52.3177 24.1644 52.7409C24.811 53.1641 25.6808 52.9753 26.1042 52.3291C26.5277 51.6829 26.3446 50.8136 25.6922 50.3904C25.0456 49.9671 24.1758 50.1502 23.7524 50.8021Z" fill="white"/>
<path d="M20.7702 48.8633C22.2637 46.57 25.3423 45.9237 27.6313 47.4106C27.7743 47.5022 27.906 47.5994 28.0376 47.708C28.2092 47.851 28.4667 47.7938 28.564 47.5879L28.8673 46.9245C28.936 46.7816 28.8902 46.61 28.7643 46.5128C28.6441 46.4213 28.5183 46.3355 28.3924 46.2497C25.4625 44.3453 21.5255 45.1745 19.6143 48.1084C19.4712 48.3314 19.3396 48.5602 19.2309 48.7889C19.145 48.9605 19.2252 49.1721 19.4026 49.2464L20.0549 49.5267C20.2208 49.5953 20.4097 49.5267 20.4898 49.3665C20.5642 49.195 20.6615 49.0291 20.7702 48.8633Z" fill="white"/>
<path d="M17.7715 46.913C20.3409 42.9726 25.634 41.8517 29.5825 44.4138H29.5882C29.7599 44.5282 29.9945 44.4653 30.0803 44.2766L30.3779 43.6246C30.3321 43.4644 30.3035 43.3558 30.252 43.1957C25.6798 40.2904 19.5798 41.6 16.6156 46.1524C16.3581 46.547 16.135 46.9588 15.9404 47.3763C15.8603 47.5478 15.9404 47.748 16.1121 47.8223L16.7644 48.1026C16.9304 48.1769 17.1249 48.1026 17.1993 47.9424C17.3653 47.5936 17.5541 47.2504 17.7715 46.913Z" fill="white"/>
<path d="M14.7735 44.9629C18.3213 39.5127 25.5429 37.8656 31.0879 41.1483C31.2596 41.2513 31.4885 41.1826 31.5686 40.9996L31.8661 40.3534C31.9405 40.199 31.8833 40.0102 31.7345 39.9187C25.5658 36.3157 17.5546 38.1573 13.6176 44.208C13.2456 44.7742 12.9309 45.3632 12.6562 45.9637C12.5761 46.1353 12.6619 46.3355 12.8336 46.4098L13.486 46.69C13.6576 46.7644 13.8522 46.6843 13.9266 46.5185C14.1669 45.9866 14.4473 45.4662 14.7735 44.9629Z" fill="white"/>
<path d="M144.86 79.797L134.039 79.2365C133.157 79.1908 132.448 79.8771 132.476 80.7692L132.757 90.7145C132.78 91.5266 133.484 92.15 134.319 92.11L144.596 91.601C145.294 91.5667 145.867 90.949 145.89 90.217L146.141 81.3068C146.153 80.5119 145.586 79.837 144.86 79.797Z" fill="#5CBBE5"/>
<path d="M143.44 80.9351H135.79C135.08 80.9351 134.182 81.4498 134.182 82.1818V86.4367C134.182 87.1402 135.086 87.7178 135.79 87.7178H141.054C141.237 87.7178 141.352 88.0552 141.352 88.2325V88.8616C141.352 89.1189 141.598 89.2161 141.729 89.2562C141.792 89.2962 141.89 89.3648 142.015 89.3648C142.124 89.3648 142.221 89.3191 142.29 89.239L143.435 87.9008C144.15 87.8836 144.453 87.1287 144.453 86.431V82.1761C144.453 81.4841 144.138 80.9351 143.44 80.9351ZM143.681 86.431C143.681 86.7627 143.709 87.1287 143.44 87.1287H143.154L141.741 88.4727V87.5462C141.741 87.3632 141.912 87.1287 141.729 87.1287H135.79C135.463 87.1287 134.765 86.757 134.765 86.431V82.3534C134.765 81.8787 135.463 81.9016 135.79 81.9016H143.44C143.766 81.9016 143.681 81.8558 143.681 82.1761V86.431Z" fill="white"/>
<path d="M142.903 83.0626C142.903 83.1712 142.817 83.257 142.708 83.257H135.733C135.624 83.257 135.538 83.1712 135.538 83.0626C135.538 82.9539 135.624 82.8682 135.733 82.8682H142.708C142.817 82.8682 142.903 82.9596 142.903 83.0626Z" fill="white"/>
<path d="M142.903 84.2235C142.903 84.3322 142.817 84.4179 142.708 84.4179H135.733C135.624 84.4179 135.538 84.3322 135.538 84.2235C135.538 84.1148 135.624 84.0291 135.733 84.0291H142.708C142.817 84.0348 142.903 84.1206 142.903 84.2235Z" fill="white"/>
<path d="M142.903 85.9679C142.903 86.0765 142.817 86.1623 142.708 86.1623H135.733C135.624 86.1623 135.538 86.0765 135.538 85.9679C135.538 85.8592 135.624 85.7734 135.733 85.7734H142.708C142.817 85.7734 142.903 85.8649 142.903 85.9679Z" fill="white"/>
<path d="M98.131 75.0504C98.1539 75.0389 111.401 51.8599 113.186 49.681C113.49 49.315 113.953 49.1262 114.423 49.1834L118.119 49.6238L122.462 59.0144L115.229 54.8052C115.945 59.7521 106.652 67.1067 103.464 69.7889C103.138 70.0634 103.115 70.5495 103.407 70.8526L104.677 72.1852C102.589 74.3012 100.18 75.6623 97.4558 76.2914L98.131 75.0504Z" fill="#FEBBBA"/>
<path d="M103.945 71.4646C103.945 71.4646 104.758 71.7277 105.032 72.4483C105.164 72.7914 105.021 73.186 104.723 73.4033C103.384 74.3584 98.9722 77.4524 96.9407 78.0586C96.7748 78.1101 96.6145 77.9557 96.6546 77.7898C96.7576 77.3151 97.0952 76.3715 98.1882 74.9932L98.0909 75.1934C97.965 75.445 98.2397 75.7024 98.48 75.5651C99.8363 74.7931 102.612 73.1117 103.945 71.4646Z" fill="#D570FE"/>
<path d="M103.293 80.7406C103.316 80.7292 105.301 75.9424 105.324 75.9252C107.144 64.8419 111.59 55.3484 112.9 52.8492C113.124 52.4317 113.541 52.1515 114.011 52.1114L117.719 51.7969L123.87 60.1123L115.933 57.4529C117.639 62.1539 110.022 71.2357 107.447 74.5069C107.184 74.8386 107.258 75.3247 107.607 75.5649L109.124 76.6115C107.504 79.105 105.421 80.9236 102.886 82.0903L103.293 80.7406Z" fill="#FEBBBA"/>
<path d="M108.259 76.0569C108.259 76.0569 109.106 76.1484 109.523 76.8004C109.724 77.1149 109.661 77.5267 109.409 77.7955C108.293 79.0022 104.602 82.9254 102.731 83.9262C102.577 84.0063 102.393 83.8919 102.393 83.7204C102.399 83.2342 102.542 82.2449 103.326 80.6721L103.269 80.8837C103.2 81.1525 103.515 81.3527 103.727 81.1697C104.906 80.1403 107.28 77.9327 108.259 76.0569Z" fill="#D570FE"/>
<path d="M135.085 50.0468C135.085 50.0468 138.439 55.0338 138.713 57.31C138.988 59.5861 137.786 60.3696 134.273 60.6613C123.824 61.5249 118.668 58.3966 118.668 58.3966C119.452 56.2233 120.396 51.6653 114.428 49.189C114.428 49.189 119.36 49.9782 120.877 49.3891C122.399 48.7944 135.085 50.0468 135.085 50.0468Z" fill="#D570FE"/>
<path d="M116.14 23.4649C116.197 23.8995 123.813 45.0884 123.813 45.0884L135.47 46.9127C137.719 47.2673 139.927 46.0835 140.877 44.0132C143.241 38.8775 140.992 32.804 135.853 30.4478L134.131 29.6586C131.561 28.4804 129.049 26.4445 126.835 24.3113C124.981 22.5155 122.52 21.4804 119.945 21.3489L116.14 23.4649Z" fill="#1A0F91"/>
<path d="M138.857 42.1316C138.84 42.1316 138.817 42.1259 138.805 42.1087C138.782 42.0802 138.788 42.0401 138.817 42.0172C140.03 41.0507 139.921 39.2321 139.818 38.4944C139.612 37.0303 139.028 35.6291 138.136 34.4453C136.528 32.3179 134.067 31.054 131.681 29.8301L131.189 29.5785C128.745 28.3146 126.027 26.7533 124.665 24.1454C124.648 24.1111 124.66 24.0768 124.694 24.0596C124.728 24.0425 124.763 24.0539 124.78 24.0882C126.13 26.6618 128.825 28.2116 131.252 29.4641L131.744 29.7157C134.141 30.9453 136.619 32.2206 138.239 34.371C139.143 35.572 139.732 36.9903 139.944 38.4772C140.053 39.2378 140.161 41.1136 138.897 42.1202C138.885 42.1259 138.874 42.1316 138.857 42.1316Z" fill="#91B3FA"/>
<path d="M137.633 39.8386C137.627 39.8386 137.633 39.8386 137.633 39.8386C137.593 39.8386 137.564 39.8043 137.57 39.77C137.667 38.2316 137.45 36.9047 136.918 35.8124C135.956 33.8394 133.925 32.5812 132.265 31.7005C131.928 31.5232 131.59 31.3516 131.252 31.18C129.713 30.3908 128.117 29.5787 126.875 28.3491C126.852 28.3263 126.852 28.2805 126.875 28.2576C126.898 28.2348 126.944 28.2348 126.966 28.2576C128.197 29.4758 129.782 30.2879 131.315 31.0657C131.653 31.2372 131.996 31.4145 132.328 31.5918C134.005 32.4783 136.059 33.7536 137.038 35.761C137.576 36.8704 137.805 38.2258 137.702 39.7814C137.696 39.8157 137.667 39.8386 137.633 39.8386Z" fill="#91B3FA"/>
<path d="M112.883 39.7812C112.883 39.7812 116.866 44.5509 120.878 40.6791L122.428 44.2706C122.428 44.2706 116.569 48.8058 112.128 41.6685L112.883 39.7812Z" fill="#FEBBBA"/>
<path d="M126.011 49.3836C126.011 49.3836 122.102 45.6662 120.18 43.2014C119.138 41.8689 118.812 40.1188 119.293 38.5004C120.168 35.5437 121.73 32.484 121.873 32.0036C122.091 31.2716 126.474 31.3059 126.474 31.3059C126.474 31.3059 130.6 31.9464 130.634 38.9293C130.64 40.5935 131.104 42.2234 131.973 43.6417C132.969 45.2716 133.936 47.7136 135.086 50.0413L126.011 49.3836Z" fill="#91B3FA"/>
<path d="M123.464 26.0444L126.411 31.5174C126.217 32.7127 123.207 32.747 122.743 32.0322C122.697 31.9578 122.669 31.8777 122.652 31.792L120.889 28.1375C120.815 27.783 121.793 26.582 122.114 26.4104L123.287 25.7871C123.727 25.5411 121.851 25.5183 123.464 26.0444Z" fill="#FEBBBA"/>
<path d="M117.502 24.7576C117.502 24.7576 117.17 26.6048 118.623 28.9553C120.077 31.3058 121.524 31.1972 122.263 30.3622C123.001 29.5215 123.882 28.1261 123.476 25.7813C123.075 23.4365 118.005 22.4013 117.502 24.7576Z" fill="#FEBBBA"/>
<path d="M121.719 26.0386C121.719 26.0386 119.368 22.9504 117.559 25.644L117.588 26.5762C117.588 26.5762 115.236 26.4676 115.494 24.3001C115.751 22.1326 117.668 20.6571 120.329 21.3948C122.99 22.1326 124.546 22.979 124.844 24.8205C125.147 26.6677 123.636 26.3646 123.636 26.3646C123.636 26.3646 123.059 25.0893 122.366 25.0035C121.668 24.9177 121.92 25.9243 121.92 25.9243L121.719 26.0386Z" fill="#1A0F91"/>
<path d="M122.257 25.9586C122.257 25.9586 121.038 24.3744 122.149 24.0484C123.259 23.7225 123.219 25.5983 123.144 26.296L122.257 25.9586Z" fill="#FEBBBA"/>
<path d="M131.344 45.1686C131.344 45.1686 122.943 44.002 120.174 41.4113C120.174 41.4113 118.835 40.1474 117.868 39.9929C117.347 39.9129 116.757 39.8557 116.328 39.8214C116.134 39.8042 116.042 40.0616 116.202 40.176C116.511 40.3933 116.923 40.6278 117.278 40.6678C117.959 40.7364 117.232 41.2397 117.976 42.5493C118.72 43.859 119.785 43.3672 119.785 43.3672C119.785 43.3672 125.353 48.1597 130.669 48.1197C130.674 48.1139 131.985 47.685 131.344 45.1686Z" fill="#FEBBBA"/>
<path d="M110.263 36.4988L113.164 36.1156C113.513 36.0584 113.868 36.2586 114.08 36.636L115.991 40.8566C116.351 41.4857 116.094 42.3207 115.51 42.4179L113.181 42.7153C112.958 42.7496 112.729 42.6123 112.603 42.3607L110.023 37.2079C109.874 36.9105 110 36.5445 110.263 36.4988Z" fill="#1A0F91"/>
<path d="M129.461 33.7076C129.461 33.7076 137.375 45.42 130.674 48.108L129.461 44.8424C129.461 44.8424 130.262 43.0352 127.905 38.4887C127.596 37.8882 127.447 37.219 127.47 36.5442C127.55 34.5883 127.899 30.9396 129.461 33.7076Z" fill="#7D97F4"/>
<path opacity="0.43" d="M129.462 44.9858C129.513 44.9858 129.57 44.9572 129.593 44.9C129.628 44.8256 130.394 42.9784 128.031 38.4261C127.997 38.3575 127.911 38.3289 127.842 38.3632C127.774 38.3975 127.745 38.4833 127.779 38.5519C130.068 42.9555 129.342 44.7627 129.336 44.7799C129.307 44.8542 129.336 44.9343 129.41 44.9686C129.422 44.98 129.439 44.9858 129.462 44.9858Z" fill="#1A0F91"/>
<path d="M112.243 42.1891C112.243 42.1891 110.292 39.3468 110.515 38.9979C110.738 38.649 112.455 38.1458 112.855 38.0314C113.262 37.9113 114.017 40.4906 112.243 42.1891Z" fill="#FEBBBA"/>
<path d="M142.474 141.379C143.258 141.534 147.721 144.193 147.721 141.156C147.721 140.87 147.721 137.765 147.721 137.765C147.721 137.765 142.25 141.333 142.474 141.379Z" fill="#FEBBBA"/>
<path d="M145.266 135.677C145.266 135.677 143.304 132.366 143.058 129.118C142.811 125.869 143.212 124.445 142.84 123.501C142.474 122.558 140.683 118.972 140.603 120.047C140.523 121.122 141.175 122.249 141.175 122.249C141.175 122.249 140.042 123.153 140.237 124.188C140.431 125.229 140.832 125.332 140.832 125.332C140.832 125.332 140.895 127.579 140.998 127.579C141.101 127.579 139.201 138.857 141.324 139.103C143.447 139.36 145.163 140.87 145.266 135.677Z" fill="#FEBBBA"/>
<path d="M139.658 123.399C139.641 123.25 138.262 120.259 138.508 119.922C138.754 119.584 139 119.281 139.389 120.288C139.773 121.294 140.236 124.034 140.088 124.051C139.939 124.068 139.733 123.931 139.658 123.399Z" fill="#FEBBBA"/>
<path d="M126.794 155.957C126.794 155.957 125.758 155.093 124.379 155.219C123.418 155.385 122.29 156.237 121.564 156.866C121.438 156.975 121.392 157.152 121.455 157.306C121.518 157.461 121.672 157.558 121.844 157.558C123.647 157.518 127.177 157.415 127.177 157.146C127.172 156.792 126.794 155.957 126.794 155.957Z" fill="#D570FE"/>
<path d="M127.51 154.436L126.68 155.997C126.68 155.997 124.809 156.151 124.872 155.413C124.935 154.676 125.393 153.789 125.393 153.789L127.51 154.436Z" fill="#FEBBBA"/>
<path d="M148.654 155.499C147.355 148.419 146.411 143.873 146.411 143.873C146.411 143.873 132.031 134.602 130.56 136.873C129.09 139.143 124.872 154.619 124.872 154.619L127.688 155.385C127.688 155.385 133.067 148.105 133.553 141.894C134.938 146.429 136.225 157.255 146.88 157.57C147.407 157.587 147.916 157.358 148.259 156.958C148.603 156.557 148.752 156.02 148.654 155.499Z" fill="#7D97F4"/>
<path d="M117.576 155.328L115.859 156.952L114.509 155.602L116.289 153.549L117.576 155.328Z" fill="#FEBBBA"/>
<path d="M152.436 122.409L155.795 126.727C155.95 126.927 155.978 127.196 155.858 127.402C155.423 128.151 154.159 129.804 151.486 129.827C151.183 129.827 150.891 129.632 150.737 129.341L148.648 125.229L152.436 122.409Z" fill="#FEBBBA"/>
<path d="M144.43 116.782C144.43 116.782 143.572 121.711 144.917 123.747C146.262 125.783 150.141 125.835 152.487 122.666L152.081 115.821L144.43 116.782Z" fill="#FEBBBA"/>
<path d="M150.519 120.059C150.365 120.059 150.251 119.922 150.279 119.773C150.354 119.315 150.468 118.4 150.331 117.708C150.331 117.708 150.703 117.148 148.665 117.52C146.628 117.891 143.572 118.417 142.302 117.108C141.06 115.827 140.843 111.326 144.562 113.35C144.706 113.425 144.883 113.35 144.917 113.196C145.083 112.521 145.638 111.028 147.332 111.034C148.917 111.046 149.495 111.949 149.69 112.447C149.747 112.595 149.924 112.647 150.056 112.561C150.668 112.138 152.225 111.32 153.701 112.636C154.914 113.716 154.857 114.666 154.657 115.198C154.594 115.369 154.731 115.547 154.914 115.529C155.412 115.472 156.145 115.592 156.545 116.645C157.094 118.103 155.446 118.681 154.966 118.812C154.886 118.835 154.823 118.892 154.8 118.972C154.6 119.573 153.747 122.261 151.95 123.319C151.796 123.41 151.504 123.216 151.487 123.033L151.258 120.288C151.246 120.162 151.137 120.065 151.012 120.065L150.519 120.059Z" fill="#1A0F91"/>
<path d="M150.233 120.362C150.233 120.362 151.67 118.04 152.345 119.161C153.02 120.282 151.252 121.7 150.062 121.7L150.233 120.362Z" fill="#FEBBBA"/>
<path d="M146.977 134.27C146.977 134.27 140.425 137.027 139.201 135.62C137.976 134.208 138.651 126.304 138.651 126.304L135.893 125.566C135.893 125.566 132.5 139.52 138.262 141.608C142.445 143.123 150.428 138.194 150.428 138.194L146.977 134.27Z" fill="#FEBBBA"/>
<path d="M153.134 124.725C152.075 124.96 150.919 125.966 150.015 126.933C148.98 128.037 148.287 129.421 148.03 130.913C148.024 130.959 148.012 131.01 148.007 131.062C145.729 133.561 143.721 135.174 142.365 135.774C144.734 139.143 146.021 140.418 146.021 140.418C146.021 140.418 146.296 140.361 146.754 140.241C146.307 144.256 146.067 147.367 146.067 147.367C146.067 147.367 150.702 151.965 156.31 153.269C161.42 149.511 162.198 138.754 162.198 138.754C162.599 126.001 156.705 123.942 153.134 124.725Z" fill="#D570FE"/>
<path d="M156.311 153.275C156.311 153.275 154.01 160.109 142.657 156.277C137.152 154.418 129.444 143.65 129.444 143.65C129.444 143.65 127.544 148.86 117.605 155.848L115.396 153.864C115.396 153.864 125.456 136.535 130.606 138.337C135.762 140.132 157.884 148.837 156.311 153.275Z" fill="#91B3FA"/>
<path d="M116.695 156.157C116.277 156.163 114.509 155.385 114.509 155.385L112.861 155.825C111.424 155.602 110.194 156.094 109.364 156.592C109.181 156.7 109.095 156.918 109.153 157.118C109.21 157.324 109.393 157.467 109.605 157.467C111.23 157.495 113.896 157.518 115.247 157.438C117.267 157.324 117.576 157.381 116.695 156.157Z" fill="#D570FE"/>
<path d="M149.02 139.641C148.986 139.641 148.957 139.618 148.952 139.583C148.94 139.543 148.963 139.503 149.003 139.498C149.02 139.492 150.76 139.057 152.631 137.988C154.353 137.004 156.539 135.266 157.186 132.578C157.197 132.538 157.238 132.515 157.272 132.526C157.312 132.538 157.335 132.572 157.323 132.612C156.665 135.351 154.445 137.118 152.7 138.114C150.811 139.194 149.055 139.629 149.037 139.635C149.032 139.641 149.026 139.641 149.02 139.641Z" fill="#AA54FD"/>
<path d="M134.429 119.178C134.383 119.058 134.389 118.921 134.452 118.806C134.514 118.692 134.623 118.612 134.755 118.589L137.954 117.977C138.079 117.954 138.2 118.028 138.24 118.149L140.7 126.075C140.712 126.109 140.706 126.144 140.689 126.178C140.672 126.212 140.643 126.235 140.609 126.241L137.936 127.042C137.719 127.104 137.484 126.996 137.404 126.779L134.429 119.178Z" fill="#1A0F91"/>
<path d="M135.435 119.252C135.407 119.184 135.418 119.104 135.453 119.041C135.487 118.978 135.556 118.932 135.624 118.921L137.747 118.56C137.867 118.537 137.988 118.612 138.028 118.732L140.116 125.48C140.128 125.514 140.122 125.555 140.105 125.589C140.088 125.623 140.053 125.646 140.019 125.652L138.119 126.109C138.051 126.126 137.988 126.092 137.965 126.023L135.435 119.252Z" fill="#91B3FA"/>
<path d="M136.461 118.6C136.466 118.623 136.506 118.635 136.558 118.629L137.256 118.48C137.302 118.469 137.336 118.44 137.33 118.417L137.325 118.395C137.319 118.372 137.279 118.36 137.227 118.366L136.529 118.515C136.484 118.526 136.449 118.555 136.455 118.578L136.461 118.6Z" fill="#D570FE"/>
<path d="M135.847 125.715C135.807 125.366 134.623 123.124 135.086 122.266C135.544 121.408 135.733 119.939 136.173 120.35C136.62 120.762 136.065 122.203 136.265 122.632C136.465 123.061 137.232 124.153 137.329 125C137.432 125.852 137.999 127.059 136.803 127.23C135.607 127.402 135.847 125.715 135.847 125.715Z" fill="#FEBBBA"/>
<path d="M148.488 130.788C148.477 130.788 148.46 130.782 148.448 130.776C148.414 130.753 148.408 130.708 148.431 130.673C148.568 130.479 151.767 125.852 153.61 126.63C153.644 126.647 153.661 126.687 153.65 126.727C153.632 126.762 153.592 126.779 153.552 126.767C151.818 126.03 148.58 130.708 148.551 130.759C148.534 130.776 148.511 130.788 148.488 130.788Z" fill="#AA54FD"/>
<path d="M141.295 126.464C141.272 126.464 141.249 126.453 141.237 126.435C140.677 125.658 141.031 124.777 141.18 124.4C141.197 124.354 141.22 124.302 141.226 124.274C141.157 124.119 140.888 123.336 140.974 122.844C140.991 122.73 141.054 122.695 141.1 122.69C141.352 122.638 141.901 123.473 142.124 123.833C142.147 123.868 142.136 123.913 142.102 123.931C142.067 123.953 142.021 123.942 142.004 123.908C141.638 123.319 141.243 122.833 141.134 122.833C141.134 122.833 141.129 122.844 141.123 122.873C141.043 123.341 141.329 124.154 141.369 124.222C141.392 124.268 141.375 124.314 141.323 124.451C141.18 124.806 140.848 125.641 141.363 126.35C141.386 126.384 141.38 126.43 141.346 126.453C141.323 126.458 141.312 126.464 141.295 126.464Z" fill="#FEBBBA"/>
<path d="M142.743 116.816C142.697 116.816 142.657 116.793 142.634 116.753C142.067 115.781 141.884 114.952 142.102 114.294C142.313 113.648 142.828 113.413 142.851 113.407C142.914 113.379 142.994 113.407 143.023 113.476C143.052 113.539 143.023 113.619 142.954 113.648C142.931 113.659 142.514 113.848 142.342 114.385C142.153 114.969 142.325 115.724 142.851 116.627C142.886 116.69 142.868 116.765 142.805 116.805C142.788 116.81 142.765 116.816 142.743 116.816Z" fill="#91B3FA"/>
</svg>
