<svg width="20" height="14" viewBox="0 0 20 14" fill="none" xmlns="http://www.w3.org/2000/svg">
<path d="M18.7604 4.17935C18.7469 4.16384 18.7355 4.14874 18.7195 4.13364L18.0187 3.45728C18.5999 3.32544 19.2257 2.83848 19.2257 2.33887C19.2257 1.75681 18.4179 1.55027 17.7285 1.55027C17.0076 1.55027 16.924 2.04416 16.9154 2.39316L15.1071 0.649822C14.7398 0.286134 14.043 0 13.5222 0H10.0004H9.99959H6.477C5.95657 0 5.26021 0.286134 4.89244 0.649822L3.08462 2.39316C3.07523 2.04416 2.99155 1.55027 2.27152 1.55027C1.58129 1.55027 0.773909 1.75681 0.773909 2.33887C0.773909 2.83848 1.40006 3.32544 1.98131 3.45728L1.28046 4.13364C1.26454 4.14874 1.25352 4.16384 1.23964 4.17935C0.489816 4.8202 0 6.00882 0 6.8713V9.43426C0 10.0563 0.245316 10.6208 0.641659 11.0417V12.0356C0.641659 12.6168 1.12821 13.0907 1.7266 13.0907H3.03849C3.63688 13.0907 4.12303 12.6177 4.12303 12.0356V11.7813H9.99959H10.0004H15.8766V12.0356C15.8766 12.6177 16.3623 13.0907 16.9615 13.0907H18.273C18.8718 13.0907 19.3575 12.6168 19.3575 12.0356V11.0417C19.7543 10.6208 19.9992 10.0563 19.9992 9.43426V6.8713C20 6.00882 19.5102 4.8202 18.7604 4.17935ZM5.55655 1.42455C5.81085 1.2127 6.25536 1.05188 6.477 1.05188H9.99959H10.0004H13.523C13.7446 1.05188 14.1891 1.2127 14.4434 1.42455L16.8146 3.7226H10.0004H9.99959H3.18584L5.55655 1.42455ZM0.813503 6.48353C0.813503 5.85248 1.3074 5.34022 1.91722 5.34022C2.52663 5.34022 4.51814 6.50924 4.51814 7.14029C4.51814 7.77134 2.52663 7.62521 1.91722 7.62521C1.3074 7.62521 0.813503 7.11498 0.813503 6.48353ZM4.12343 10.6576H3.91322H3.70301L2.45602 10.6596C2.10988 10.5519 1.86579 10.4261 1.69313 10.291C1.60578 10.2229 1.53884 10.1518 1.48659 10.0812C1.43394 10.0098 1.39557 9.93959 1.37067 9.86938C1.21556 9.431 1.53598 9.02812 1.53598 9.02812H3.66423L5.08306 10.6568L4.12343 10.6576ZM13.0601 10.6584H10.0004H9.99959H6.93988C6.30189 10.6584 5.78391 10.1404 5.78391 9.50284H9.99959H10.0004H14.2161C14.2161 10.1412 13.6981 10.6584 13.0601 10.6584ZM13.3287 8.71423H10.0004H9.99959H6.67129C5.97739 8.71423 5.4141 7.85869 5.4141 6.80354H9.99959H10.0004H14.5859C14.5859 7.8591 14.0226 8.71423 13.3287 8.71423ZM18.6297 9.8702C18.6044 9.9404 18.5661 10.0106 18.5134 10.0816C18.4616 10.1522 18.3946 10.2233 18.3069 10.2914C18.1346 10.4265 17.8901 10.5531 17.544 10.66L16.297 10.658H16.0868H15.8766H14.9161L16.3358 9.02935H18.4636C18.4636 9.02894 18.7844 9.431 18.6297 9.8702ZM18.0828 7.62521C17.4738 7.62521 15.4823 7.77052 15.4823 7.14029C15.4823 6.51006 17.4738 5.34022 18.0828 5.34022C18.6926 5.34022 19.1865 5.85248 19.1865 6.48353C19.1865 7.11417 18.6926 7.62521 18.0828 7.62521Z" fill="#DED9E2"/>
</svg>
