<svg width="20" height="18" viewBox="0 0 20 18" fill="none" xmlns="http://www.w3.org/2000/svg">
<path d="M9.8986 4.71094C11.9129 3.44976 12.6478 2.43351 12.6478 1.56878C12.6478 0.702355 11.9454 0 11.079 0C10.6082 0 10.1862 0.207667 9.8986 0.536043C9.61104 0.207667 9.18902 0 8.71823 0C7.85181 0 7.14941 0.702355 7.14941 1.56878C7.14945 2.43351 7.88432 3.44976 9.8986 4.71094Z" fill="#DED9E2"/>
<path d="M6.69957 12.6857C6.69957 11.7145 7.13534 10.8435 7.82097 10.2564C7.11854 9.6815 6.22153 9.33594 5.24513 9.33594H4.0738C1.8275 9.33594 0 11.1634 0 13.4097V18H6.08827C6.26682 16.8207 6.98184 15.815 7.97597 15.2404C7.20137 14.6562 6.69957 13.7285 6.69957 12.6857Z" fill="#DED9E2"/>
<path d="M9.89792 15.8843C8.61075 15.8843 7.53141 16.7915 7.26562 18H12.5302C12.2645 16.7915 11.1851 15.8843 9.89792 15.8843Z" fill="#DED9E2"/>
<path d="M15.7226 10.6456H14.5513C13.8756 10.6456 13.2382 10.8117 12.6767 11.1042C12.9435 11.571 13.0968 12.1107 13.0968 12.6857C13.0968 13.7286 12.595 14.6562 11.8204 15.2405C12.8145 15.815 13.5295 16.8207 13.7081 18H19.7964V14.7194C19.7964 12.4731 17.9689 10.6456 15.7226 10.6456Z" fill="#DED9E2"/>
<path d="M15.4055 9.46561C16.8865 9.31826 17.9676 7.99828 17.8202 6.51736C17.6729 5.03643 16.3529 3.95535 14.8719 4.10271C13.391 4.25006 12.3099 5.57003 12.4572 7.05096C12.6046 8.53189 13.9246 9.61296 15.4055 9.46561Z" fill="#DED9E2"/>
<path d="M5.69414 7.97205C7.06941 7.402 7.72217 5.825 7.15212 4.44973C6.58207 3.07446 5.00507 2.4217 3.6298 2.99175C2.25453 3.56181 1.60177 5.1388 2.17182 6.51408C2.74187 7.88935 4.31887 8.54211 5.69414 7.97205Z" fill="#DED9E2"/>
<path d="M9.89753 10.6456C8.77262 10.6456 7.85742 11.5608 7.85742 12.6857C7.85742 13.8107 8.77262 14.7259 9.89753 14.7259C11.0224 14.7259 11.9376 13.8107 11.9376 12.6857C11.9377 11.5608 11.0225 10.6456 9.89753 10.6456Z" fill="#DED9E2"/>
</svg>
