<svg width="20" height="12" viewBox="0 0 20 12" fill="none" xmlns="http://www.w3.org/2000/svg">
<path fill-rule="evenodd" clip-rule="evenodd" d="M19.9334 8.87433L18.5928 3.13559C18.2318 1.58962 16.8171 0 14.6629 0H5.33724C3.76056 0 1.90052 1.02322 1.40721 3.13559L0.066581 8.87433C-0.297339 10.4321 0.876513 11.9266 2.46723 11.9266C3.14319 11.9266 3.77902 11.5639 4.12646 10.9802L5.15917 9.24675C5.33571 8.9501 5.65859 8.76596 6.00191 8.76596H13.9979C14.3412 8.76596 14.6643 8.95026 14.8408 9.24691L15.8734 10.9801C16.221 11.5639 16.8568 11.9266 17.5335 11.9266C19.1218 11.9266 20.2976 10.4337 19.9334 8.87433ZM7.48993 4.97313H6.82069V5.64728C6.82069 5.97314 6.55839 6.23736 6.23476 6.23736C5.91127 6.23736 5.64897 5.97314 5.64897 5.64728V4.97313H4.97973C4.65624 4.97313 4.39395 4.70891 4.39395 4.38306C4.39395 4.05705 4.65624 3.79283 4.97973 3.79283H5.64897V3.11868C5.64897 2.79282 5.91127 2.52861 6.23476 2.52861C6.55839 2.52861 6.82069 2.79282 6.82069 3.11868V3.79283H7.48993C7.81342 3.79283 8.07572 4.05705 8.07572 4.38306C8.07572 4.70891 7.81342 4.97313 7.48993 4.97313ZM12.51 4.97313C12.1867 4.97313 11.9243 4.70876 11.9243 4.38306C11.9243 4.0572 12.1869 3.79283 12.51 3.79283C12.8335 3.79283 13.096 4.0572 13.096 4.38306C13.096 4.70876 12.8335 4.97313 12.51 4.97313ZM13.7652 6.23736C13.4419 6.23736 13.1793 5.97299 13.1793 5.64728C13.1793 5.32158 13.4419 5.05706 13.7652 5.05706C14.0886 5.05706 14.351 5.32158 14.351 5.64728C14.351 5.97299 14.0886 6.23736 13.7652 6.23736ZM13.7652 3.70891C13.4419 3.70891 13.1793 3.44453 13.1793 3.11868C13.1793 2.79298 13.4419 2.52861 13.7652 2.52861C14.0886 2.52861 14.351 2.79298 14.351 3.11868C14.351 3.44453 14.0886 3.70891 13.7652 3.70891ZM15.0203 4.97313C14.6969 4.97313 14.4343 4.70876 14.4343 4.38306C14.4343 4.0572 14.6969 3.79283 15.0203 3.79283C15.3436 3.79283 15.606 4.0572 15.606 4.38306C15.606 4.70876 15.3436 4.97313 15.0203 4.97313Z" fill="#DED9E2"/>
</svg>
