<svg width="107" height="80" viewBox="0 0 107 80" fill="none" xmlns="http://www.w3.org/2000/svg">
<path d="M70.8784 14.4474C68.528 12.3126 65.8542 10.8463 63.0294 10.0701C62.4687 7.95685 60.5712 6.4043 58.2855 6.4043C55.9998 6.4043 54.1022 7.95685 53.5415 10.0701C50.7168 10.8463 48.0645 12.3126 45.6925 14.4474C44.9162 15.1374 44.8515 16.345 45.5631 17.1212C46.2532 17.8975 47.4607 17.9622 48.237 17.2506C50.0267 15.6549 52.0106 14.5121 54.1022 13.8436C54.9647 15.2668 56.5173 16.2156 58.307 16.2156C60.0968 16.2156 61.6493 15.2668 62.5119 13.8436C64.6035 14.4905 66.5873 15.6334 68.3771 17.2506C68.7437 17.5741 69.1965 17.725 69.6493 17.725C70.1668 17.725 70.6843 17.5094 71.0509 17.0997C71.7194 16.345 71.6547 15.1374 70.8784 14.4474Z" fill="#5CBBE5"/>
<path d="M72.6466 32.0866C72.6466 29.8009 71.0941 27.9033 68.9809 27.3427C68.2046 24.5179 66.7383 21.8656 64.6035 19.4937C63.9135 18.7174 62.706 18.6527 61.9297 19.3643C61.1534 20.0543 61.0887 21.2619 61.8003 22.0381C63.396 23.8279 64.5389 25.8117 65.2073 27.9033C63.7841 28.7659 62.8354 30.3184 62.8354 32.1082C62.8354 33.8979 63.7841 35.4505 65.2073 36.313C64.5604 38.4047 63.4176 40.3885 61.8003 42.1782C61.1103 42.9545 61.175 44.1405 61.9297 44.8521C62.2963 45.1755 62.7491 45.3265 63.2019 45.3265C63.7194 45.3265 64.237 45.1108 64.6035 44.7011C66.7383 42.3507 68.2046 39.6769 68.9809 36.8521C71.0725 36.2699 72.6466 34.3508 72.6466 32.0866Z" fill="#EEA4C9"/>
<path d="M59.6871 35.709C58.997 34.9327 57.7895 34.868 57.0132 35.5796C55.2235 37.1753 53.2396 38.3182 51.148 38.9866C50.2855 37.5634 48.7329 36.6147 46.9432 36.6147C45.1534 36.6147 43.6009 37.5634 42.7383 38.9866C40.6467 38.3397 38.6629 37.1969 36.8731 35.5796C36.0968 34.8896 34.9108 34.9543 34.1993 35.709C33.5092 36.4853 33.5739 37.6713 34.3286 38.3828C36.679 40.5176 39.3529 41.9839 42.1777 42.7602C42.7383 44.8734 44.6359 46.4259 46.9216 46.4259C49.2073 46.4259 51.1049 44.8734 51.6655 42.7602C54.4903 41.9839 57.1426 40.5176 59.5146 38.3828C60.334 37.6928 60.3987 36.4853 59.6871 35.709Z" fill="#5CBBE5"/>
<path d="M40.0641 24.9488C41.4873 24.0862 42.4361 22.5337 42.4361 20.7439C42.4361 18.9542 41.4873 17.4016 40.0641 16.5391C40.711 14.4475 41.8538 12.4636 43.4711 10.6739C44.1611 9.8976 44.0964 8.71162 43.3417 8.00004C42.5654 7.31001 41.3795 7.3747 40.6679 8.12942C38.5331 10.4798 37.0668 13.1537 36.2905 15.9784C34.1773 16.5391 32.6248 18.4367 32.6248 20.7224C32.6248 23.0081 34.1773 24.9056 36.2905 25.4663C37.0668 28.2911 38.5331 30.9434 40.6679 33.3153C41.0344 33.725 41.552 33.9406 42.0695 33.9406C42.5223 33.9406 42.9751 33.7897 43.3417 33.4663C44.118 32.7762 44.1827 31.5687 43.4711 30.7924C41.8754 29.0242 40.7326 27.0404 40.0641 24.9488Z" fill="#EEA4C9"/>
<path d="M8.71156 57.6602V67.1696H6.51211V63.2666H2.19945V67.1696H0V57.6602H2.19945V61.4122H6.51211V57.6602H8.71156Z" fill="white"/>
<path d="M12.2912 66.1996C11.5365 65.4449 11.1483 64.3667 11.1483 62.9866V57.6605H13.3478V62.9004C13.3478 64.6039 14.0594 65.4449 15.461 65.4449C16.151 65.4449 16.6685 65.2292 17.0351 64.8195C17.4017 64.4098 17.5742 63.7629 17.5742 62.8788V57.6389H19.7521V62.9651C19.7521 64.3667 19.3639 65.4233 18.6092 66.178C17.8545 66.9327 16.7979 67.2993 15.4394 67.2993C14.1025 67.3424 13.0459 66.9543 12.2912 66.1996Z" fill="white"/>
<path d="M28.6361 62.2752H30.6415V66.135C30.124 66.5231 29.5202 66.825 28.8517 67.0407C28.1833 67.2563 27.4933 67.3425 26.8032 67.3425C25.8113 67.3425 24.9272 67.1269 24.151 66.7172C23.3531 66.2859 22.7493 65.7037 22.2965 64.9706C21.8437 64.2159 21.6281 63.3749 21.6281 62.4477C21.6281 61.5205 21.8437 60.6579 22.2965 59.9032C22.7493 59.1485 23.3747 58.5663 24.1725 58.1566C24.9704 57.7469 25.876 57.5312 26.8679 57.5312C27.7089 57.5312 28.4636 57.6822 29.1321 57.9625C29.8005 58.2428 30.3827 58.6525 30.8356 59.1916L29.4124 60.4854C28.7224 59.7738 27.903 59.4073 26.9542 59.4073C26.3504 59.4073 25.8113 59.5366 25.3369 59.7954C24.8625 60.0542 24.496 60.3992 24.2372 60.8736C23.9784 61.3264 23.8491 61.8655 23.8491 62.4692C23.8491 63.0515 23.9784 63.5905 24.2372 64.0434C24.496 64.4962 24.8625 64.8628 25.3369 65.1215C25.8113 65.3803 26.3288 65.5097 26.9326 65.5097C27.5579 65.5097 28.1402 65.3803 28.6361 65.1V62.2752Z" fill="white"/>
<path d="M33.9192 67.0188C33.2077 66.8247 32.647 66.5444 32.2373 66.2209L32.992 64.5606C33.4017 64.8624 33.8761 65.0996 34.4368 65.2721C34.9974 65.4447 35.558 65.5525 36.1187 65.5525C36.744 65.5525 37.1969 65.4662 37.4987 65.2721C37.8006 65.0781 37.9516 64.8409 37.9516 64.539C37.9516 64.3234 37.8653 64.1293 37.6928 63.9783C37.5203 63.8274 37.2831 63.7196 37.0244 63.6118C36.744 63.5255 36.3775 63.4177 35.9031 63.3099C35.1699 63.1374 34.5877 62.9649 34.1133 62.7924C33.6605 62.6199 33.2508 62.3395 32.9273 61.973C32.6039 61.5848 32.4314 61.0889 32.4314 60.442C32.4314 59.8813 32.5823 59.3854 32.8842 58.9325C33.1861 58.4797 33.6389 58.1347 34.2427 57.8759C34.8465 57.6172 35.5796 57.4878 36.4421 57.4878C37.0459 57.4878 37.6497 57.5525 38.2319 57.7034C38.8141 57.8544 39.3101 58.0484 39.7629 58.3288L39.0944 60.0107C38.2103 59.5147 37.3478 59.256 36.4637 59.256C35.8384 59.256 35.3855 59.3638 35.1052 59.5579C34.8033 59.7519 34.674 60.0107 34.674 60.3557C34.674 60.6792 34.8465 60.9164 35.1915 61.0889C35.5365 61.2398 36.054 61.4123 36.744 61.5633C37.4772 61.7358 38.0594 61.9083 38.5338 62.0808C38.9866 62.2533 39.3963 62.5336 39.7198 62.9002C40.0432 63.2668 40.2157 63.7843 40.2157 64.4096C40.2157 64.9487 40.0648 65.4446 39.7629 65.8975C39.461 66.3503 39.0082 66.6953 38.4044 66.9541C37.8006 67.2128 37.0675 67.3422 36.1834 67.3422C35.3424 67.3422 34.6093 67.2344 33.9192 67.0188Z" fill="white"/>
<path d="M52.2912 65.1211H47.8707L47.0298 67.1696H44.7656L49.0136 57.6602H51.1915L55.4394 67.1696H53.1322L52.2912 65.1211ZM51.5796 63.4607L50.0702 59.8165L48.5608 63.4607H51.5796Z" fill="white"/>
<path d="M62.9867 62.2752H64.9921V66.135C64.4746 66.5231 63.8708 66.825 63.2023 67.0407C62.5123 67.2563 61.8438 67.3425 61.1538 67.3425C60.1619 67.3425 59.2778 67.1269 58.5015 66.7172C57.7253 66.3075 57.0999 65.7037 56.6471 64.9706C56.1943 64.2159 55.9786 63.3749 55.9786 62.4477C55.9786 61.5205 56.1943 60.6579 56.6471 59.9032C57.0999 59.1485 57.7253 58.5663 58.5231 58.1566C59.3209 57.7253 60.2266 57.5312 61.2185 57.5312C62.0595 57.5312 62.8142 57.6822 63.4827 57.9625C64.1511 58.2428 64.7333 58.6525 65.1862 59.1916L63.7845 60.4854C63.0945 59.7738 62.2751 59.4073 61.3263 59.4073C60.7226 59.4073 60.1835 59.5366 59.7091 59.7954C59.2347 60.0542 58.8681 60.3992 58.6094 60.8736C58.3506 61.3264 58.2212 61.8655 58.2212 62.4692C58.2212 63.0515 58.3506 63.5905 58.6094 64.0434C58.8681 64.4962 59.2347 64.8628 59.7091 65.1215C60.1835 65.3803 60.701 65.5097 61.3048 65.5097C61.9301 65.5097 62.5123 65.3803 63.0083 65.1V62.2752H62.9867Z" fill="white"/>
<path d="M74.6744 65.4014V67.1696H67.2998V57.6602H74.4804V59.4283H69.4777V61.4984H73.8982V63.2019H69.4777V65.4014H74.6744Z" fill="white"/>
<path d="M85.412 57.6602V67.1696H83.6007L78.8567 61.3906V67.1696H76.6788V57.6602H78.4901L83.2125 63.4391V57.6602H85.412Z" fill="white"/>
<path d="M89.8754 66.6957C89.0992 66.2644 88.4738 65.6822 88.021 64.9491C87.5682 64.1944 87.3525 63.3534 87.3525 62.4262C87.3525 61.499 87.5682 60.6364 88.021 59.8817C88.4738 59.127 89.0776 58.5448 89.8754 58.1351C90.6517 57.7038 91.5358 57.5098 92.5277 57.5098C93.3471 57.5098 94.1018 57.6607 94.7703 57.941C95.4388 58.2214 95.9994 58.6526 96.4522 59.1917L95.0291 60.4855C94.3822 59.7523 93.5843 59.3642 92.6355 59.3642C92.0533 59.3642 91.5142 59.4936 91.0614 59.7523C90.6086 60.0111 90.242 60.3777 89.9833 60.8305C89.7245 61.2833 89.5951 61.8224 89.5951 62.4046C89.5951 62.9868 89.7245 63.5259 89.9833 63.9787C90.242 64.4316 90.6086 64.7981 91.0614 65.0569C91.5142 65.3157 92.0533 65.445 92.6355 65.445C93.5843 65.445 94.3822 65.0785 95.0291 64.3237L96.4522 65.6175C95.9994 66.1782 95.4388 66.5879 94.7703 66.8898C94.1018 67.1701 93.3471 67.321 92.5277 67.321C91.5142 67.3426 90.6517 67.127 89.8754 66.6957Z" fill="white"/>
<path d="M102.641 63.806V67.1699H100.441V63.7629L96.754 57.6389H99.0829L101.627 61.8653L104.172 57.6389H106.328L102.641 63.806Z" fill="white"/>
<path d="M33.5087 73.9192L30.878 80H29.4979L26.8672 73.9192H28.3766L30.2311 78.2534L32.1071 73.9192H33.5087Z" fill="white"/>
<path d="M35.3204 73.9192H36.722V80H35.3204V73.9192Z" fill="white"/>
<path d="M44.1825 78.8787V80H39.4817V73.9192H44.0747V75.0405H40.8833V76.3558H43.7081V77.4556H40.8833V78.8572H44.1825V78.8787Z" fill="white"/>
<path d="M47.8479 75.062H45.9072V73.9192H51.2118V75.062H49.2711V80H47.8695V75.062H47.8479Z" fill="white"/>
<path d="M58.8251 73.9192V80H57.6606L54.6418 76.3127V80H53.2617V73.9192H54.4261L57.445 77.6065V73.9192H58.8251Z" fill="white"/>
<path d="M65.5732 78.7062H62.7485L62.2094 80H60.7646L63.4816 73.9192H64.8617L67.5786 80H66.1123L65.5732 78.7062ZM65.142 77.6281L64.1716 75.2992L63.2013 77.6281H65.142Z" fill="white"/>
<path d="M75.0615 80V76.3558L73.2717 79.3531H72.6464L70.8566 76.4205V80H69.5413V73.9192H70.7057L72.9698 77.6928L75.2124 73.9192H76.3768L76.3984 80H75.0615Z" fill="white"/>
</svg>
