<svg width="46" height="46" viewBox="0 0 46 46" fill="none" xmlns="http://www.w3.org/2000/svg">
<circle opacity="0.1" cx="23" cy="23" r="23" fill="#F9FEFC"/>
<path fill-rule="evenodd" clip-rule="evenodd" d="M27.5416 13H18.4584C17.705 13 16.9943 13.142 16.3262 13.426C15.6723 13.71 15.0967 14.1005 14.5991 14.5974C14.1016 15.0944 13.7107 15.6766 13.4264 16.344C13.1421 16.9972 13 17.7 13 18.4526V27.5474C13 28.2858 13.1421 28.9886 13.4264 29.656C13.7107 30.3234 14.1016 30.902 14.5991 31.3919C15.0967 31.8818 15.6723 32.2687 16.3262 32.5527C16.9943 32.8509 17.705 33 18.4584 33H27.5416C28.295 33 29.0057 32.8509 29.6738 32.5527C30.3277 32.2687 30.9033 31.8818 31.4009 31.3919C31.8984 30.902 32.2893 30.3234 32.5736 29.656C32.8579 28.9886 33 28.2858 33 27.5474V18.4526C33 17.7 32.8579 16.9972 32.5736 16.344C32.2893 15.6766 31.8984 15.0944 31.4009 14.5974C30.9033 14.1005 30.3277 13.71 29.6738 13.426C29.0057 13.142 28.295 13 27.5416 13ZM31.1878 27.5468C31.1878 28.5407 30.8324 29.3927 30.1217 30.1027C29.4109 30.8127 28.551 31.1676 27.5417 31.1676H18.4586C17.4493 31.1676 16.5893 30.8127 15.8786 30.1027C15.1679 29.3927 14.8125 28.5407 14.8125 27.5468V18.452C14.8125 17.458 15.1679 16.6025 15.8786 15.8854C16.5893 15.1683 17.4493 14.8098 18.4586 14.8098H27.5417C28.551 14.8098 29.4109 15.1683 30.1217 15.8854C30.8324 16.6025 31.1878 17.458 31.1878 18.452V27.5468ZM23.7254 18.4523C23.498 18.4097 23.2705 18.3884 23.0431 18.3884C22.8157 18.3884 22.5882 18.4097 22.3608 18.4523C21.7496 18.5375 21.1881 18.7434 20.6764 19.07C20.1646 19.3966 19.7382 19.7942 19.3971 20.2628C19.0559 20.7313 18.8071 21.2567 18.6508 21.8389C18.4944 22.4211 18.4589 23.0175 18.5442 23.628C18.6295 24.2244 18.8285 24.7818 19.1412 25.3C19.4539 25.8183 19.859 26.262 20.3565 26.6312C20.7688 26.901 21.2023 27.1211 21.6572 27.2915C22.1121 27.4619 22.5882 27.5471 23.0858 27.5471C23.1853 27.5471 23.2954 27.5436 23.4162 27.5365C23.5371 27.5294 23.6401 27.4974 23.7254 27.4406C24.3224 27.3554 24.8804 27.1566 25.3992 26.8442C25.918 26.5318 26.3622 26.1272 26.7318 25.6302C27.1014 25.1332 27.3537 24.5972 27.4887 24.0221C27.6238 23.447 27.6415 22.8613 27.542 22.2649C27.4141 21.2709 26.9983 20.4225 26.2947 19.7196C25.5911 19.0168 24.7347 18.5943 23.7254 18.4523ZM25.2814 24.5441C25.054 24.8139 24.7839 25.0517 24.4712 25.2576C24.1585 25.4635 23.8173 25.5877 23.4478 25.6303C22.7228 25.7155 22.0512 25.5416 21.4328 25.1085C20.8145 24.6754 20.4556 24.0897 20.3561 23.3513C20.2281 22.6271 20.3952 21.9562 20.8571 21.3385C21.3191 20.7208 21.9126 20.3623 22.6375 20.2629C22.6802 20.2629 22.7406 20.2629 22.8188 20.2629C22.8969 20.2629 22.9573 20.2629 23 20.2629C23.0426 20.2629 23.1031 20.2629 23.1812 20.2629C23.2594 20.2629 23.3198 20.2629 23.3625 20.2629C23.9595 20.3623 24.4641 20.6179 24.8763 21.0297C25.2886 21.4415 25.5444 21.9456 25.6439 22.5419C25.7292 22.9111 25.7328 23.2697 25.6546 23.6175C25.5764 23.9654 25.452 24.2743 25.2814 24.5441ZM27.3712 17.3665C27.2717 17.4517 27.2006 17.544 27.1579 17.6434C27.1153 17.7428 27.094 17.8635 27.094 18.0055C27.094 18.1333 27.1153 18.2469 27.1579 18.3463C27.2006 18.4457 27.2717 18.5451 27.3712 18.6445C27.4564 18.7297 27.5595 18.7936 27.6803 18.8362C27.8012 18.8788 27.9113 18.9001 28.0108 18.9001C28.1387 18.9001 28.2525 18.8788 28.352 18.8362C28.4515 18.7936 28.551 18.7297 28.6505 18.6445C28.7358 18.5451 28.7997 18.435 28.8424 18.3143C28.885 18.1936 28.9063 18.0907 28.9063 18.0055C28.9063 17.8635 28.885 17.7428 28.8424 17.6434C28.7997 17.544 28.7358 17.4517 28.6505 17.3665C28.4657 17.1819 28.2525 17.0896 28.0108 17.0896C27.7692 17.0896 27.556 17.1819 27.3712 17.3665Z" fill="white"/>
</svg>
