<svg width="26" height="18" viewBox="0 0 26 18" fill="none" xmlns="http://www.w3.org/2000/svg">
<path d="M24.4523 7.71859H3.75103C3.36912 7.71859 3.05756 7.83417 2.81635 8.06533C2.57515 8.29648 2.45455 8.60301 2.45455 8.98492C2.45455 9.38694 2.57515 9.70352 2.81635 9.93467C3.05756 10.1658 3.36912 10.2814 3.75103 10.2814H24.4523C24.8342 10.2814 25.1457 10.1658 25.3869 9.93467C25.6281 9.70352 25.7487 9.38694 25.7487 8.98492C25.7487 8.60301 25.6281 8.29648 25.3869 8.06533C25.1457 7.83417 24.8342 7.71859 24.4523 7.71859ZM1.29648 2.56281H24.4523C24.8342 2.56281 25.1457 2.44724 25.3869 2.21608C25.6281 1.98492 25.7487 1.66834 25.7487 1.26633C25.7487 0.88442 25.6281 0.577891 25.3869 0.346734C25.1457 0.115577 24.8342 0 24.4523 0H1.29648C0.914571 0 0.603016 0.115577 0.361809 0.346734C0.120602 0.577891 0 0.88442 0 1.26633C0 1.66834 0.120602 1.98492 0.361809 2.21608C0.603016 2.44724 0.914571 2.56281 1.29648 2.56281ZM24.4523 15.4372H1.29648C0.914571 15.4372 0.603016 15.5528 0.361809 15.7839C0.120602 16.0151 0 16.3216 0 16.7035C0 17.1055 0.120602 17.4221 0.361809 17.6533C0.603016 17.8844 0.914571 18 1.29648 18H24.4523C24.8342 18 25.1457 17.8844 25.3869 17.6533C25.6281 17.4221 25.7487 17.1055 25.7487 16.7035C25.7487 16.3216 25.6281 16.0151 25.3869 15.7839C25.1457 15.5528 24.8342 15.4372 24.4523 15.4372Z" fill="white"/>
</svg>
