<svg width="162" height="160" viewBox="0 0 162 160" fill="none" xmlns="http://www.w3.org/2000/svg">
<path opacity="0.1" d="M142.211 137.606C138 141.926 134.236 144.468 131.357 146.383C103.241 165.079 71.103 159.691 61.1669 157.851C45.1383 154.879 31.6052 152.782 19.9767 142.32C-6.44122 118.543 -5.15618 68.9501 15.0316 38.2251C17.4238 34.5795 37.5829 4.82015 69.7893 0.625964C70.5753 0.523109 71.1661 0.465968 71.6825 0.408826C76.6677 -0.116876 107.537 -2.88824 132.716 18.117C136.319 21.1226 142.119 26.5511 147.5 34.8194C167.154 65.0759 167.217 111.926 142.211 137.606Z" fill="#F4F7FA"/>
<path d="M122.946 49.9048C135.934 51.6419 153.879 59.9103 155.795 71.9786C158.193 87.064 133.554 95.4523 131.655 121.257C130.788 133.011 135.539 136.189 132.051 142.154C124.002 155.919 87.6076 157.902 67.1388 139.394C63.146 135.783 53.663 125.88 52.4927 111.406C49.9227 79.5098 89.3115 45.4078 122.946 49.9048Z" fill="#EEA4C9"/>
<path d="M43.8996 16.8141C34.4224 13.0999 9.29524 37.3507 13.8216 53.4761C17.1546 65.3558 34.1642 64.1787 37.1703 76.7327C39.9412 88.2867 26.672 94.0066 28.4619 108.269C29.7871 118.84 38.8225 129.6 48.6496 131.131C57.9605 132.583 63.2154 125.012 82.2902 109.84C112.913 85.4868 119.31 89.1438 126.618 75.9384C134.111 62.3959 138.499 38.465 124.639 23.1111C112.862 10.0656 91.4519 7.14571 77.5401 13.6484C64.7356 19.6426 59.5381 33.0251 53.0039 31.0023C47.422 29.2823 49.3036 18.9283 43.8996 16.8141Z" fill="#5CBBE5"/>
<path d="M92.9719 157.537H75.2165C74.2527 157.537 73.4668 156.76 73.4668 155.794V126.88H94.7159V155.794C94.7217 156.76 93.9414 157.537 92.9719 157.537Z" fill="url(#paint0_linear_270_5930)"/>
<path d="M90.7748 140.069H77.4196C76.1919 140.069 75.1994 139.08 75.1994 137.857V113.698H92.9949V137.857C92.9949 139.074 92.0025 140.069 90.7748 140.069Z" fill="url(#paint1_linear_270_5930)"/>
<path d="M81.8084 22.3684L64.3857 24.1912C52.7573 25.4084 44.3184 35.791 45.5404 47.3735L51.1509 100.498C52.3729 112.081 62.7966 120.486 74.4251 119.269L91.8477 117.446C103.476 116.229 111.915 105.846 110.693 94.2638L105.083 41.1394C103.855 29.5511 93.4368 21.1456 81.8084 22.3684Z" fill="url(#paint2_linear_270_5930)"/>
<mask id="mask0_270_5930" style="mask-type:alpha" maskUnits="userSpaceOnUse" x="45" y="22" width="66" height="98">
<path d="M81.8083 22.3684L64.3857 24.1912C52.7572 25.4084 44.3184 35.791 45.5403 47.3735L51.1509 100.498C52.3729 112.081 62.7966 120.486 74.4251 119.269L91.8477 117.446C103.476 116.229 111.915 105.846 110.693 94.2638L105.082 41.1394C103.855 29.5511 93.4368 21.1456 81.8083 22.3684Z" fill="#AA54FD"/>
</mask>
<g mask="url(#mask0_270_5930)">
<path d="M128.942 38.5623C119.333 36.8138 109.558 35.8538 99.7534 35.6653C98.388 35.6367 97.4185 36.8995 97.5849 38.4709C97.7512 40.0423 98.9904 41.2937 100.35 41.288C110.131 41.2708 119.872 41.8937 129.436 43.1679C130.766 43.3394 131.736 42.4937 131.604 41.2594C131.466 40.0309 130.285 38.8138 128.942 38.5623Z" fill="url(#paint3_linear_270_5930)"/>
<path d="M129.809 46.745C120.286 45.8308 110.573 45.4651 100.809 45.6422C99.4495 45.6651 98.48 46.9679 98.6464 48.5336C98.8128 50.105 100.046 51.3221 101.4 51.2649C111.141 50.8821 120.819 50.9049 130.296 51.3564C131.616 51.4135 132.574 50.465 132.442 49.2307C132.31 47.9964 131.134 46.8765 129.809 46.745Z" fill="url(#paint4_linear_270_5930)"/>
<path d="M130.668 54.922C121.231 54.8363 111.582 55.0706 101.858 55.6134C100.504 55.6877 99.5407 57.0248 99.707 58.5962C99.8734 60.1676 101.101 61.3447 102.455 61.2419C112.162 60.4933 121.776 59.9162 131.162 59.5391C132.464 59.4819 133.416 58.4362 133.284 57.202C133.153 55.962 131.982 54.9392 130.668 54.922Z" fill="url(#paint5_linear_270_5930)"/>
<path d="M131.536 63.0988C122.185 63.8416 112.599 64.6759 102.915 65.5845C101.567 65.7102 100.609 67.0816 100.769 68.653C100.936 70.2244 102.163 71.3672 103.506 71.2129C113.172 70.0986 122.724 68.9272 132.023 67.7158C133.314 67.5387 134.255 66.3959 134.123 65.1616C133.991 63.9274 132.838 63.0017 131.536 63.0988Z" fill="url(#paint6_linear_270_5930)"/>
<path d="M132.396 71.2816C123.137 72.853 113.614 74.2873 103.964 75.5615C102.622 75.7387 101.664 77.1501 101.83 78.7158C101.997 80.2871 103.219 81.3957 104.555 81.1843C114.182 79.6986 123.67 77.9329 132.884 75.893C134.163 75.6015 135.092 74.3616 134.96 73.1273C134.834 71.8931 133.687 71.0702 132.396 71.2816Z" fill="url(#paint7_linear_270_5930)"/>
<path d="M133.263 79.4587C124.089 81.8586 114.629 83.8872 105.02 85.5328C103.684 85.7614 102.731 87.2071 102.898 88.7785C103.064 90.3499 104.28 91.4184 105.617 91.1613C115.203 89.3099 124.629 86.9442 133.756 84.0757C135.024 83.67 135.942 82.3272 135.81 81.0929C135.672 79.8587 134.542 79.133 133.263 79.4587Z" fill="url(#paint8_linear_270_5930)"/>
<path d="M134.123 87.6412C125.036 90.8754 115.639 93.4982 106.07 95.5096C104.739 95.7895 103.787 97.2695 103.953 98.8409C104.12 100.412 105.336 101.447 106.661 101.138C116.213 98.9209 125.575 95.9553 134.611 92.2582C135.867 91.7382 136.773 90.2983 136.642 89.064C136.515 87.824 135.391 87.1955 134.123 87.6412Z" fill="url(#paint9_linear_270_5930)"/>
<path d="M91.2166 35.6994C81.4067 35.9565 71.6139 36.9851 61.9646 38.7622C60.6222 39.0136 59.6757 40.5107 59.842 42.0936C60.0084 43.6764 61.2303 44.7621 62.5785 44.5335C72.2393 42.8821 82.0377 41.8593 91.8304 41.4707C93.1958 41.4136 94.1596 40.0993 93.9932 38.5165C93.8268 36.9337 92.582 35.6651 91.2166 35.6994Z" fill="url(#paint10_linear_270_5930)"/>
<path d="M92.2947 45.9334C82.5135 46.4248 72.715 47.4476 63.0428 48.9962C61.6946 49.2133 60.7423 50.6818 60.9144 52.2647C61.0808 53.8475 62.3085 54.9617 63.6566 54.7675C73.3403 53.3503 83.1388 52.3218 92.9085 51.7047C94.2682 51.619 95.2319 50.2704 95.0656 48.6876C94.8992 47.1048 93.6601 45.8648 92.2947 45.9334Z" fill="url(#paint11_linear_270_5930)"/>
<path d="M93.3793 56.1675C83.621 56.8875 73.8226 57.916 64.1274 59.2303C62.7792 59.4131 61.8212 60.8531 61.9876 62.4359C62.1539 64.0187 63.3816 65.1673 64.7355 65.0015C74.4479 63.8187 84.2406 62.7902 93.9874 61.9388C95.3413 61.8188 96.305 60.4417 96.1387 58.8588C95.9723 57.276 94.7389 56.0646 93.3793 56.1675Z" fill="url(#paint12_linear_270_5930)"/>
<path d="M94.458 66.4016C84.7227 67.3559 74.9243 68.3787 65.2061 69.4644C63.8522 69.6187 62.8942 71.0243 63.0606 72.6072C63.2269 74.19 64.4604 75.3671 65.8142 75.2357C75.5496 74.2814 85.348 73.2586 95.0661 72.1729C96.42 72.0186 97.3781 70.6129 97.2117 69.0301C97.0453 67.4473 95.8119 66.2702 94.458 66.4016Z" fill="url(#paint13_linear_270_5930)"/>
<path d="M95.5361 76.6299C85.8237 77.8127 76.031 78.8413 66.2841 79.6927C64.9303 79.8127 63.9665 81.1898 64.1328 82.7726C64.2992 84.3555 65.5326 85.5669 66.8922 85.464C76.6505 84.744 86.449 83.7155 96.1442 82.4012C97.4923 82.2184 98.4503 80.7784 98.284 79.1955C98.1176 77.6184 96.8899 76.4699 95.5361 76.6299Z" fill="url(#paint14_linear_270_5930)"/>
<path d="M96.6208 86.8639C86.9371 88.281 77.1386 89.3096 67.3689 89.9267C66.0093 90.0124 65.0455 91.361 65.2118 92.9438C65.3782 94.5266 66.6174 95.7665 67.977 95.698C77.7582 95.2066 87.5567 94.1837 97.2289 92.6352C98.577 92.4181 99.5294 90.9495 99.3573 89.3667C99.1909 87.7896 97.9689 86.6697 96.6208 86.8639Z" fill="url(#paint15_linear_270_5930)"/>
<path d="M97.6988 97.098C88.038 98.7494 78.2396 99.7722 68.4469 100.161C67.0873 100.218 66.1177 101.532 66.2841 103.115C66.4505 104.698 67.6954 105.966 69.0607 105.932C78.8706 105.675 88.6634 104.646 98.3126 102.869C99.6551 102.618 100.602 101.121 100.435 99.538C100.263 97.9551 99.047 96.8694 97.6988 97.098Z" fill="url(#paint16_linear_270_5930)"/>
<path d="M53.6121 40.4995C44.0604 42.7166 34.6979 45.6766 25.6625 49.3793C24.4061 49.8993 23.4997 51.3393 23.6317 52.5736C23.7636 53.8078 24.888 54.4364 26.1501 53.9907C35.2372 50.7565 44.6341 48.1337 54.203 46.1223C55.534 45.8423 56.4863 44.3623 56.3199 42.7909C56.1535 41.2252 54.9373 40.191 53.6121 40.4995Z" fill="url(#paint17_linear_270_5930)"/>
<path d="M54.662 50.4764C45.0759 52.3277 35.6503 54.6934 26.5231 57.5619C25.2553 57.9676 24.3374 59.3104 24.4693 60.5447C24.6013 61.7789 25.7371 62.5046 27.0107 62.1789C36.1838 59.779 45.6438 57.7505 55.2529 56.1048C56.5896 55.8762 57.5419 54.4305 57.3755 52.8592C57.2149 51.2878 55.9987 50.2135 54.662 50.4764Z" fill="url(#paint18_linear_270_5930)"/>
<path d="M55.7171 60.4477C46.0907 61.9334 36.6021 63.699 27.3888 65.739C26.1095 66.0304 25.1801 67.2704 25.312 68.5046C25.444 69.7389 26.5856 70.5674 27.8764 70.3503C37.1356 68.7789 46.6587 67.3447 56.308 66.0704C57.6504 65.8933 58.6084 64.4819 58.442 62.9162C58.2757 61.3505 57.0537 60.242 55.7171 60.4477Z" fill="url(#paint19_linear_270_5930)"/>
<path d="M56.7671 70.4187C47.1006 71.533 37.5488 72.7044 28.2495 73.9158C26.9587 74.0929 26.0178 75.2358 26.1498 76.47C26.2817 77.7043 27.4348 78.63 28.7371 78.5329C38.0881 77.79 47.6742 76.9557 57.358 76.0472C58.7061 75.9215 59.6642 74.5501 59.5035 72.9787C59.3429 71.4073 58.1152 70.2645 56.7671 70.4187Z" fill="url(#paint20_linear_270_5930)"/>
<path d="M57.8231 80.3958C48.1164 81.1444 38.5073 81.7215 29.1162 82.0986C27.8082 82.1558 26.8616 83.2014 26.9935 84.4357C27.1255 85.6699 28.2901 86.6928 29.6038 86.7099C39.0408 86.7956 48.6901 86.5613 58.4139 86.0185C59.7678 85.9442 60.7316 84.6071 60.5652 83.0357C60.4046 81.4701 59.1712 80.2873 57.8231 80.3958Z" fill="url(#paint21_linear_270_5930)"/>
<path d="M58.873 90.3668C49.132 90.7497 39.454 90.7268 29.9768 90.2754C28.6573 90.2183 27.6993 91.1668 27.8312 92.401C27.9632 93.6353 29.1392 94.7553 30.4644 94.8924C39.9875 95.8066 49.6999 96.1724 59.4639 95.9952C60.8235 95.9724 61.7931 94.6695 61.6267 93.1039C61.4661 91.5325 60.2269 90.3097 58.873 90.3668Z" fill="url(#paint22_linear_270_5930)"/>
<path d="M59.9289 100.344C50.1477 100.361 40.4066 99.7382 30.8434 98.464C29.5124 98.2925 28.5429 99.1382 28.6749 100.372C28.8068 101.607 29.9943 102.824 31.331 103.075C40.9401 104.824 50.7156 105.784 60.5198 105.972C61.8852 106.001 62.8547 104.738 62.6883 103.167C62.5277 101.59 61.2885 100.338 59.9289 100.344Z" fill="url(#paint23_linear_270_5930)"/>
</g>
<g opacity="0.6">
<path opacity="0.35" d="M89.2891 65.1274C83.6498 53.2248 67.541 56.0476 62.4008 45.3964C60.3298 41.0994 60.0086 34.5395 65.47 24.0769L64.38 24.1912C52.7515 25.4083 44.3127 35.7909 45.5346 47.3735L51.1452 100.498C52.3671 112.081 62.7909 120.486 74.4194 119.269L91.842 117.446C94.2801 117.189 96.5748 116.532 98.6688 115.549C90.7692 107.309 88.1762 99.938 87.4763 94.2124C85.8987 81.2356 93.7753 74.59 89.2891 65.1274Z" fill="#AA54FD"/>
</g>
<path d="M84.0973 136.577C87.1864 136.577 89.6906 134.083 89.6906 131.006C89.6906 127.929 87.1864 125.435 84.0973 125.435C81.0081 125.435 78.5039 127.929 78.5039 131.006C78.5039 134.083 81.0081 136.577 84.0973 136.577Z" fill="url(#paint24_linear_270_5930)"/>
<path d="M129.733 56.8989C129.733 60.6703 125.975 64.8873 121.053 66.4073C115.793 68.0301 111.249 65.9787 111.249 61.7217C111.249 57.4646 115.787 53.0419 121.053 51.9219C125.975 50.8705 129.733 53.1276 129.733 56.8989Z" fill="url(#paint25_linear_270_5930)"/>
<path d="M129.733 56.8991L127.495 57.4819V23.1399L129.733 23.0828V56.8991Z" fill="url(#paint26_linear_270_5930)"/>
<path d="M135.481 31.8539C135.647 32.1396 134.184 21.7227 127.495 19.5913V25.334C127.495 25.3397 130.318 23.0712 135.481 31.8539Z" fill="url(#paint27_linear_270_5930)"/>
<path d="M147.822 40.945C147.822 43.4592 145.315 46.2763 142.033 47.2877C138.522 48.3734 135.493 47.002 135.493 44.1621C135.493 41.3221 138.522 38.3736 142.033 37.6251C145.315 36.928 147.822 38.4308 147.822 40.945Z" fill="#CB84E5"/>
<path d="M147.822 40.9451L146.33 41.3394V18.4314L147.822 18.3914V40.9451Z" fill="#CB84E5"/>
<path d="M151.654 24.2426C151.768 24.4369 150.787 17.4828 146.324 16.0657V19.8942C146.33 19.8942 148.212 18.3856 151.654 24.2426Z" fill="#CB84E5"/>
<defs>
<linearGradient id="paint0_linear_270_5930" x1="97.8227" y1="120.985" x2="53.9932" y2="187.338" gradientUnits="userSpaceOnUse">
<stop stop-color="#444B8C"/>
<stop offset="0.9964" stop-color="#26264F"/>
</linearGradient>
<linearGradient id="paint1_linear_270_5930" x1="69.7459" y1="170.353" x2="86.4423" y2="118.283" gradientUnits="userSpaceOnUse">
<stop offset="0.00359712" stop-color="#E38DDD"/>
<stop offset="1" stop-color="#9571F6"/>
</linearGradient>
<linearGradient id="paint2_linear_270_5930" x1="118.582" y1="14.7006" x2="51.6134" y2="108.301" gradientUnits="userSpaceOnUse">
<stop offset="0.00359712" stop-color="#E38DDD"/>
<stop offset="1" stop-color="#9571F6"/>
</linearGradient>
<linearGradient id="paint3_linear_270_5930" x1="109.71" y1="47.0655" x2="84.1296" y2="109.059" gradientUnits="userSpaceOnUse">
<stop stop-color="#444B8C"/>
<stop offset="0.9964" stop-color="#26264F"/>
</linearGradient>
<linearGradient id="paint4_linear_270_5930" x1="115.122" y1="49.2992" x2="89.5415" y2="111.293" gradientUnits="userSpaceOnUse">
<stop stop-color="#444B8C"/>
<stop offset="0.9964" stop-color="#26264F"/>
</linearGradient>
<linearGradient id="paint5_linear_270_5930" x1="120.534" y1="51.5331" x2="94.9535" y2="113.527" gradientUnits="userSpaceOnUse">
<stop stop-color="#444B8C"/>
<stop offset="0.9964" stop-color="#26264F"/>
</linearGradient>
<linearGradient id="paint6_linear_270_5930" x1="125.949" y1="53.7673" x2="100.368" y2="115.761" gradientUnits="userSpaceOnUse">
<stop stop-color="#444B8C"/>
<stop offset="0.9964" stop-color="#26264F"/>
</linearGradient>
<linearGradient id="paint7_linear_270_5930" x1="131.364" y1="56.0023" x2="105.783" y2="117.997" gradientUnits="userSpaceOnUse">
<stop stop-color="#444B8C"/>
<stop offset="0.9964" stop-color="#26264F"/>
</linearGradient>
<linearGradient id="paint8_linear_270_5930" x1="136.781" y1="58.2378" x2="111.2" y2="120.232" gradientUnits="userSpaceOnUse">
<stop stop-color="#444B8C"/>
<stop offset="0.9964" stop-color="#26264F"/>
</linearGradient>
<linearGradient id="paint9_linear_270_5930" x1="142.2" y1="60.4738" x2="116.619" y2="122.468" gradientUnits="userSpaceOnUse">
<stop stop-color="#444B8C"/>
<stop offset="0.9964" stop-color="#26264F"/>
</linearGradient>
<linearGradient id="paint10_linear_270_5930" x1="80.3831" y1="34.964" x2="54.8022" y2="96.9582" gradientUnits="userSpaceOnUse">
<stop stop-color="#444B8C"/>
<stop offset="0.9964" stop-color="#26264F"/>
</linearGradient>
<linearGradient id="paint11_linear_270_5930" x1="86.4952" y1="37.4866" x2="60.9143" y2="99.4808" gradientUnits="userSpaceOnUse">
<stop stop-color="#444B8C"/>
<stop offset="0.9964" stop-color="#26264F"/>
</linearGradient>
<linearGradient id="paint12_linear_270_5930" x1="92.608" y1="40.0092" x2="67.0271" y2="102.003" gradientUnits="userSpaceOnUse">
<stop stop-color="#444B8C"/>
<stop offset="0.9964" stop-color="#26264F"/>
</linearGradient>
<linearGradient id="paint13_linear_270_5930" x1="98.7206" y1="42.5321" x2="73.14" y2="104.526" gradientUnits="userSpaceOnUse">
<stop stop-color="#444B8C"/>
<stop offset="0.9964" stop-color="#26264F"/>
</linearGradient>
<linearGradient id="paint14_linear_270_5930" x1="104.832" y1="45.0543" x2="79.2513" y2="107.049" gradientUnits="userSpaceOnUse">
<stop stop-color="#444B8C"/>
<stop offset="0.9964" stop-color="#26264F"/>
</linearGradient>
<linearGradient id="paint15_linear_270_5930" x1="110.945" y1="47.5773" x2="85.3648" y2="109.571" gradientUnits="userSpaceOnUse">
<stop stop-color="#444B8C"/>
<stop offset="0.9964" stop-color="#26264F"/>
</linearGradient>
<linearGradient id="paint16_linear_270_5930" x1="117.057" y1="50.0996" x2="91.4763" y2="112.094" gradientUnits="userSpaceOnUse">
<stop stop-color="#444B8C"/>
<stop offset="0.9964" stop-color="#26264F"/>
</linearGradient>
<linearGradient id="paint17_linear_270_5930" x1="55.242" y1="24.5897" x2="29.6609" y2="86.5845" gradientUnits="userSpaceOnUse">
<stop stop-color="#444B8C"/>
<stop offset="0.9964" stop-color="#26264F"/>
</linearGradient>
<linearGradient id="paint18_linear_270_5930" x1="60.6608" y1="26.8259" x2="35.0798" y2="88.8204" gradientUnits="userSpaceOnUse">
<stop stop-color="#444B8C"/>
<stop offset="0.9964" stop-color="#26264F"/>
</linearGradient>
<linearGradient id="paint19_linear_270_5930" x1="66.0769" y1="29.0616" x2="40.496" y2="91.0559" gradientUnits="userSpaceOnUse">
<stop stop-color="#444B8C"/>
<stop offset="0.9964" stop-color="#26264F"/>
</linearGradient>
<linearGradient id="paint20_linear_270_5930" x1="71.4922" y1="31.2965" x2="45.9113" y2="93.2907" gradientUnits="userSpaceOnUse">
<stop stop-color="#444B8C"/>
<stop offset="0.9964" stop-color="#26264F"/>
</linearGradient>
<linearGradient id="paint21_linear_270_5930" x1="76.9065" y1="33.5318" x2="51.3262" y2="95.5252" gradientUnits="userSpaceOnUse">
<stop stop-color="#444B8C"/>
<stop offset="0.9964" stop-color="#26264F"/>
</linearGradient>
<linearGradient id="paint22_linear_270_5930" x1="82.3193" y1="35.7658" x2="56.739" y2="97.7589" gradientUnits="userSpaceOnUse">
<stop stop-color="#444B8C"/>
<stop offset="0.9964" stop-color="#26264F"/>
</linearGradient>
<linearGradient id="paint23_linear_270_5930" x1="87.7312" y1="37.999" x2="62.1504" y2="99.9925" gradientUnits="userSpaceOnUse">
<stop stop-color="#444B8C"/>
<stop offset="0.9964" stop-color="#26264F"/>
</linearGradient>
<linearGradient id="paint24_linear_270_5930" x1="94.5656" y1="115.911" x2="81.8167" y2="134.437" gradientUnits="userSpaceOnUse">
<stop stop-color="#444B8C"/>
<stop offset="0.9964" stop-color="#26264F"/>
</linearGradient>
<linearGradient id="paint25_linear_270_5930" x1="136.683" y1="26.3952" x2="108.001" y2="85.1437" gradientUnits="userSpaceOnUse">
<stop stop-color="#444B8C"/>
<stop offset="0.9964" stop-color="#26264F"/>
</linearGradient>
<linearGradient id="paint26_linear_270_5930" x1="133.537" y1="30.0157" x2="109.824" y2="78.5864" gradientUnits="userSpaceOnUse">
<stop stop-color="#444B8C"/>
<stop offset="0.9964" stop-color="#26264F"/>
</linearGradient>
<linearGradient id="paint27_linear_270_5930" x1="130.222" y1="28.3087" x2="106.724" y2="76.4379" gradientUnits="userSpaceOnUse">
<stop stop-color="#444B8C"/>
<stop offset="0.9964" stop-color="#26264F"/>
</linearGradient>
</defs>
</svg>
