<svg width="36" height="36" viewBox="0 0 36 36" fill="none" xmlns="http://www.w3.org/2000/svg">
<circle cx="18" cy="18" r="18" fill="#EEA4C9"/>
<g clip-path="url(#clip0_270_8219)">
<path d="M25.5917 21.0085L23.4984 18.9152C22.7508 18.1676 21.4799 18.4667 21.1809 19.4385C20.9566 20.1114 20.209 20.4852 19.5361 20.3356C18.0409 19.9618 16.0224 18.0181 15.6486 16.4481C15.4243 15.7752 15.8729 15.0276 16.5457 14.8034C17.5176 14.5043 17.8166 13.2334 17.069 12.4858L14.9757 10.3925C14.3777 9.86917 13.4805 9.86917 12.9572 10.3925L11.5368 11.8129C10.1163 13.3082 11.6863 17.2705 15.2 20.7842C18.7138 24.298 22.6761 25.9427 24.1713 24.4475L25.5917 23.027C26.1151 22.4289 26.1151 21.5318 25.5917 21.0085Z" fill="white"/>
</g>
<defs>
<clipPath id="clip0_270_8219">
<rect width="15" height="15" fill="white" transform="translate(11 10)"/>
</clipPath>
</defs>
</svg>
