<svg width="52" height="52" viewBox="0 0 52 52" fill="none" xmlns="http://www.w3.org/2000/svg">
<circle opacity="0.1" cx="26" cy="26" r="26" fill="#5CBBE5"/>
<path d="M34 29.5C32.755 29.5 31.55 29.3 30.43 28.93C30.085 28.82 29.69 28.9 29.415 29.175L27.215 31.38C24.38 29.94 22.065 27.625 20.625 24.795L22.825 22.585C23.1 22.31 23.18 21.915 23.07 21.57C22.7 20.45 22.5 19.245 22.5 18C22.5 17.445 22.055 17 21.5 17H18C17.45 17 17 17.445 17 18C17 27.39 24.61 35 34 35C34.555 35 35 34.555 35 34V30.5C35 29.945 34.555 29.5 34 29.5Z" fill="#5CBBE5"/>
</svg>
