<svg width="12" height="22" viewBox="0 0 12 22" fill="none" xmlns="http://www.w3.org/2000/svg">
<path d="M6.38923 8.90002C5.32283 7.90813 4.1189 6.42485 4.07556 4.19909C4.614 6.01213 6.45552 8.59411 11.4063 11.9787C11.4063 11.9787 5.97111 4.36937 7.81038 0.103894C7.81038 0.103894 6.79541 -0.419006 4.7692 0.88138C4.77055 0.878229 4.77156 0.87429 4.77292 0.870576C4.77292 0.870576 1.39342 3.13517 1.95785 5.60876C2.06871 6.09745 1.99116 6.68844 0.815144 7.25422C0.579242 7.36677 0.159886 7.50442 0.271534 8.14594C0.271534 8.14594 0.385546 8.60255 0.613344 8.77711C0.624599 8.78578 0.637767 8.79096 0.648009 8.80109C0.940748 9.07987 0.432366 9.00041 0.272322 9.05151C-0.000158292 9.13896 -0.00679896 9.67874 0.425275 10.1527C0.425275 10.1527 -0.271626 10.8498 0.118805 11.4633C0.118805 11.4633 0.215823 11.5739 0.620885 11.5187C0.620885 11.5187 0.309237 13.7184 2.00062 13.6649C2.99589 13.6322 5.1647 12.8143 5.9585 14.0973C5.9585 14.0973 8.64864 17.4008 5.38732 22C5.38732 22 9.14937 20.6069 9.5398 16.3403C9.53912 16.3421 10.7383 12.9412 6.38923 8.90002Z" fill="#DED9E2"/>
</svg>
