<svg width="200" height="200" viewBox="0 0 200 200" fill="none" xmlns="http://www.w3.org/2000/svg">
<g opacity="0.1">
<circle cx="2.91971" cy="2.91971" r="2.91971" fill="#EEA4C9"/>
<circle cx="2.91971" cy="16.7883" r="2.91971" fill="#EEA4C9"/>
<circle cx="2.91971" cy="30.6569" r="2.91971" fill="#EEA4C9"/>
<circle cx="2.91971" cy="44.5255" r="2.91971" fill="#EEA4C9"/>
<circle cx="2.91971" cy="58.3942" r="2.91971" fill="#EEA4C9"/>
<circle cx="2.91971" cy="72.2628" r="2.91971" fill="#EEA4C9"/>
<circle cx="2.91971" cy="86.1314" r="2.91971" fill="#EEA4C9"/>
<circle cx="2.91971" cy="100" r="2.91971" fill="#EEA4C9"/>
<circle cx="2.91971" cy="113.869" r="2.91971" fill="#EEA4C9"/>
<circle cx="2.91971" cy="127.737" r="2.91971" fill="#EEA4C9"/>
<circle cx="2.91971" cy="141.606" r="2.91971" fill="#EEA4C9"/>
<circle cx="2.91971" cy="155.474" r="2.91971" fill="#EEA4C9"/>
<circle cx="2.91971" cy="169.343" r="2.91971" fill="#EEA4C9"/>
<circle cx="2.91971" cy="183.212" r="2.91971" fill="#EEA4C9"/>
<circle cx="2.91971" cy="197.08" r="2.91971" fill="#EEA4C9"/>
<circle cx="16.7888" cy="2.91971" r="2.91971" fill="#EEA4C9"/>
<circle cx="16.7888" cy="16.7884" r="2.91971" fill="#EEA4C9"/>
<circle cx="16.7888" cy="30.6569" r="2.91971" fill="#EEA4C9"/>
<circle cx="16.7888" cy="44.5255" r="2.91971" fill="#EEA4C9"/>
<circle cx="16.7888" cy="58.3942" r="2.91971" fill="#EEA4C9"/>
<circle cx="16.7888" cy="72.2627" r="2.91971" fill="#EEA4C9"/>
<circle cx="16.7888" cy="86.1314" r="2.91971" fill="#EEA4C9"/>
<circle cx="16.7888" cy="100" r="2.91971" fill="#EEA4C9"/>
<circle cx="16.7888" cy="113.869" r="2.91971" fill="#EEA4C9"/>
<circle cx="16.7888" cy="127.737" r="2.91971" fill="#EEA4C9"/>
<circle cx="16.7888" cy="141.606" r="2.91971" fill="#EEA4C9"/>
<circle cx="16.7888" cy="155.474" r="2.91971" fill="#EEA4C9"/>
<circle cx="16.7888" cy="169.343" r="2.91971" fill="#EEA4C9"/>
<circle cx="16.7888" cy="183.212" r="2.91971" fill="#EEA4C9"/>
<circle cx="16.7888" cy="197.08" r="2.91971" fill="#EEA4C9"/>
<circle cx="30.6571" cy="2.91971" r="2.91971" fill="#EEA4C9"/>
<circle cx="30.6571" cy="16.7883" r="2.91971" fill="#EEA4C9"/>
<circle cx="30.6571" cy="30.6569" r="2.91971" fill="#EEA4C9"/>
<circle cx="30.6571" cy="44.5255" r="2.91971" fill="#EEA4C9"/>
<circle cx="30.6571" cy="58.3942" r="2.91971" fill="#EEA4C9"/>
<circle cx="30.6571" cy="72.2628" r="2.91971" fill="#EEA4C9"/>
<circle cx="30.6571" cy="86.1314" r="2.91971" fill="#EEA4C9"/>
<circle cx="30.6571" cy="100" r="2.91971" fill="#EEA4C9"/>
<circle cx="30.6571" cy="113.869" r="2.91971" fill="#EEA4C9"/>
<circle cx="30.6571" cy="127.737" r="2.91971" fill="#EEA4C9"/>
<circle cx="30.6571" cy="141.606" r="2.91971" fill="#EEA4C9"/>
<circle cx="30.6571" cy="155.474" r="2.91971" fill="#EEA4C9"/>
<circle cx="30.6571" cy="169.343" r="2.91971" fill="#EEA4C9"/>
<circle cx="30.6571" cy="183.212" r="2.91971" fill="#EEA4C9"/>
<circle cx="30.6571" cy="197.08" r="2.91971" fill="#EEA4C9"/>
<circle cx="44.5252" cy="2.91971" r="2.91971" fill="#EEA4C9"/>
<circle cx="44.5252" cy="16.7884" r="2.91971" fill="#EEA4C9"/>
<circle cx="44.5252" cy="30.6569" r="2.91971" fill="#EEA4C9"/>
<circle cx="44.5252" cy="44.5255" r="2.91971" fill="#EEA4C9"/>
<circle cx="44.5252" cy="58.3942" r="2.91971" fill="#EEA4C9"/>
<circle cx="44.5252" cy="72.2627" r="2.91971" fill="#EEA4C9"/>
<circle cx="44.5252" cy="86.1314" r="2.91971" fill="#EEA4C9"/>
<circle cx="44.5252" cy="100" r="2.91971" fill="#EEA4C9"/>
<circle cx="44.5252" cy="113.869" r="2.91971" fill="#EEA4C9"/>
<circle cx="44.5252" cy="127.737" r="2.91971" fill="#EEA4C9"/>
<circle cx="44.5252" cy="141.606" r="2.91971" fill="#EEA4C9"/>
<circle cx="44.5252" cy="155.474" r="2.91971" fill="#EEA4C9"/>
<circle cx="44.5252" cy="169.343" r="2.91971" fill="#EEA4C9"/>
<circle cx="44.5252" cy="183.212" r="2.91971" fill="#EEA4C9"/>
<circle cx="44.5252" cy="197.08" r="2.91971" fill="#EEA4C9"/>
<circle cx="58.3942" cy="2.91971" r="2.91971" fill="#EEA4C9"/>
<circle cx="58.3942" cy="16.7883" r="2.91971" fill="#EEA4C9"/>
<circle cx="58.3942" cy="30.6569" r="2.91971" fill="#EEA4C9"/>
<circle cx="58.3942" cy="44.5255" r="2.91971" fill="#EEA4C9"/>
<circle cx="58.3942" cy="58.3942" r="2.91971" fill="#EEA4C9"/>
<circle cx="58.3942" cy="72.2628" r="2.91971" fill="#EEA4C9"/>
<circle cx="58.3942" cy="86.1314" r="2.91971" fill="#EEA4C9"/>
<circle cx="58.3942" cy="100" r="2.91971" fill="#EEA4C9"/>
<circle cx="58.3942" cy="113.869" r="2.91971" fill="#EEA4C9"/>
<circle cx="58.3942" cy="127.737" r="2.91971" fill="#EEA4C9"/>
<circle cx="58.3942" cy="141.606" r="2.91971" fill="#EEA4C9"/>
<circle cx="58.3942" cy="155.474" r="2.91971" fill="#EEA4C9"/>
<circle cx="58.3942" cy="169.343" r="2.91971" fill="#EEA4C9"/>
<circle cx="58.3942" cy="183.212" r="2.91971" fill="#EEA4C9"/>
<circle cx="58.3942" cy="197.08" r="2.91971" fill="#EEA4C9"/>
<circle cx="72.2625" cy="2.91971" r="2.91971" fill="#EEA4C9"/>
<circle cx="72.2625" cy="16.7884" r="2.91971" fill="#EEA4C9"/>
<circle cx="72.2625" cy="30.6569" r="2.91971" fill="#EEA4C9"/>
<circle cx="72.2625" cy="44.5255" r="2.91971" fill="#EEA4C9"/>
<circle cx="72.2625" cy="58.3942" r="2.91971" fill="#EEA4C9"/>
<circle cx="72.2625" cy="72.2627" r="2.91971" fill="#EEA4C9"/>
<circle cx="72.2625" cy="86.1314" r="2.91971" fill="#EEA4C9"/>
<circle cx="72.2625" cy="100" r="2.91971" fill="#EEA4C9"/>
<circle cx="72.2625" cy="113.869" r="2.91971" fill="#EEA4C9"/>
<circle cx="72.2625" cy="127.737" r="2.91971" fill="#EEA4C9"/>
<circle cx="72.2625" cy="141.606" r="2.91971" fill="#EEA4C9"/>
<circle cx="72.2625" cy="155.474" r="2.91971" fill="#EEA4C9"/>
<circle cx="72.2625" cy="169.343" r="2.91971" fill="#EEA4C9"/>
<circle cx="72.2625" cy="183.212" r="2.91971" fill="#EEA4C9"/>
<circle cx="72.2625" cy="197.08" r="2.91971" fill="#EEA4C9"/>
<circle cx="86.1316" cy="2.91971" r="2.91971" fill="#EEA4C9"/>
<circle cx="86.1316" cy="16.7884" r="2.91971" fill="#EEA4C9"/>
<circle cx="86.1316" cy="30.6569" r="2.91971" fill="#EEA4C9"/>
<circle cx="86.1316" cy="44.5255" r="2.91971" fill="#EEA4C9"/>
<circle cx="86.1316" cy="58.3942" r="2.91971" fill="#EEA4C9"/>
<circle cx="86.1316" cy="72.2627" r="2.91971" fill="#EEA4C9"/>
<circle cx="86.1316" cy="86.1314" r="2.91971" fill="#EEA4C9"/>
<circle cx="86.1316" cy="100" r="2.91971" fill="#EEA4C9"/>
<circle cx="86.1316" cy="113.869" r="2.91971" fill="#EEA4C9"/>
<circle cx="86.1316" cy="127.737" r="2.91971" fill="#EEA4C9"/>
<circle cx="86.1316" cy="141.606" r="2.91971" fill="#EEA4C9"/>
<circle cx="86.1316" cy="155.474" r="2.91971" fill="#EEA4C9"/>
<circle cx="86.1316" cy="169.343" r="2.91971" fill="#EEA4C9"/>
<circle cx="86.1316" cy="183.212" r="2.91971" fill="#EEA4C9"/>
<circle cx="86.1316" cy="197.08" r="2.91971" fill="#EEA4C9"/>
<circle cx="99.9999" cy="2.91971" r="2.91971" fill="#EEA4C9"/>
<circle cx="99.9999" cy="16.7883" r="2.91971" fill="#EEA4C9"/>
<circle cx="99.9999" cy="30.6569" r="2.91971" fill="#EEA4C9"/>
<circle cx="99.9999" cy="44.5255" r="2.91971" fill="#EEA4C9"/>
<circle cx="99.9999" cy="58.3942" r="2.91971" fill="#EEA4C9"/>
<circle cx="99.9999" cy="72.2628" r="2.91971" fill="#EEA4C9"/>
<circle cx="99.9999" cy="86.1314" r="2.91971" fill="#EEA4C9"/>
<circle cx="99.9999" cy="100" r="2.91971" fill="#EEA4C9"/>
<circle cx="99.9999" cy="113.869" r="2.91971" fill="#EEA4C9"/>
<circle cx="99.9999" cy="127.737" r="2.91971" fill="#EEA4C9"/>
<circle cx="99.9999" cy="141.606" r="2.91971" fill="#EEA4C9"/>
<circle cx="99.9999" cy="155.474" r="2.91971" fill="#EEA4C9"/>
<circle cx="99.9999" cy="169.343" r="2.91971" fill="#EEA4C9"/>
<circle cx="99.9999" cy="183.212" r="2.91971" fill="#EEA4C9"/>
<circle cx="99.9999" cy="197.08" r="2.91971" fill="#EEA4C9"/>
<circle cx="113.869" cy="2.91971" r="2.91971" fill="#EEA4C9"/>
<circle cx="113.869" cy="16.7884" r="2.91971" fill="#EEA4C9"/>
<circle cx="113.869" cy="30.6569" r="2.91971" fill="#EEA4C9"/>
<circle cx="113.869" cy="44.5255" r="2.91971" fill="#EEA4C9"/>
<circle cx="113.869" cy="58.3942" r="2.91971" fill="#EEA4C9"/>
<circle cx="113.869" cy="72.2627" r="2.91971" fill="#EEA4C9"/>
<circle cx="113.869" cy="86.1314" r="2.91971" fill="#EEA4C9"/>
<circle cx="113.869" cy="100" r="2.91971" fill="#EEA4C9"/>
<circle cx="113.869" cy="113.869" r="2.91971" fill="#EEA4C9"/>
<circle cx="113.869" cy="127.737" r="2.91971" fill="#EEA4C9"/>
<circle cx="113.869" cy="141.606" r="2.91971" fill="#EEA4C9"/>
<circle cx="113.869" cy="155.474" r="2.91971" fill="#EEA4C9"/>
<circle cx="113.869" cy="169.343" r="2.91971" fill="#EEA4C9"/>
<circle cx="113.869" cy="183.212" r="2.91971" fill="#EEA4C9"/>
<circle cx="113.869" cy="197.08" r="2.91971" fill="#EEA4C9"/>
<circle cx="127.737" cy="2.91971" r="2.91971" fill="#EEA4C9"/>
<circle cx="127.737" cy="16.7883" r="2.91971" fill="#EEA4C9"/>
<circle cx="127.737" cy="30.6569" r="2.91971" fill="#EEA4C9"/>
<circle cx="127.737" cy="44.5255" r="2.91971" fill="#EEA4C9"/>
<circle cx="127.737" cy="58.3942" r="2.91971" fill="#EEA4C9"/>
<circle cx="127.737" cy="72.2628" r="2.91971" fill="#EEA4C9"/>
<circle cx="127.737" cy="86.1314" r="2.91971" fill="#EEA4C9"/>
<circle cx="127.737" cy="100" r="2.91971" fill="#EEA4C9"/>
<circle cx="127.737" cy="113.869" r="2.91971" fill="#EEA4C9"/>
<circle cx="127.737" cy="127.737" r="2.91971" fill="#EEA4C9"/>
<circle cx="127.737" cy="141.606" r="2.91971" fill="#EEA4C9"/>
<circle cx="127.737" cy="155.474" r="2.91971" fill="#EEA4C9"/>
<circle cx="127.737" cy="169.343" r="2.91971" fill="#EEA4C9"/>
<circle cx="127.737" cy="183.212" r="2.91971" fill="#EEA4C9"/>
<circle cx="127.737" cy="197.08" r="2.91971" fill="#EEA4C9"/>
<circle cx="141.606" cy="2.91971" r="2.91971" fill="#EEA4C9"/>
<circle cx="141.606" cy="16.7884" r="2.91971" fill="#EEA4C9"/>
<circle cx="141.606" cy="30.6569" r="2.91971" fill="#EEA4C9"/>
<circle cx="141.606" cy="44.5255" r="2.91971" fill="#EEA4C9"/>
<circle cx="141.606" cy="58.3942" r="2.91971" fill="#EEA4C9"/>
<circle cx="141.606" cy="72.2627" r="2.91971" fill="#EEA4C9"/>
<circle cx="141.606" cy="86.1314" r="2.91971" fill="#EEA4C9"/>
<circle cx="141.606" cy="100" r="2.91971" fill="#EEA4C9"/>
<circle cx="141.606" cy="113.869" r="2.91971" fill="#EEA4C9"/>
<circle cx="141.606" cy="127.737" r="2.91971" fill="#EEA4C9"/>
<circle cx="141.606" cy="141.606" r="2.91971" fill="#EEA4C9"/>
<circle cx="141.606" cy="155.474" r="2.91971" fill="#EEA4C9"/>
<circle cx="141.606" cy="169.343" r="2.91971" fill="#EEA4C9"/>
<circle cx="141.606" cy="183.212" r="2.91971" fill="#EEA4C9"/>
<circle cx="141.606" cy="197.08" r="2.91971" fill="#EEA4C9"/>
<circle cx="155.474" cy="2.91971" r="2.91971" fill="#EEA4C9"/>
<circle cx="155.474" cy="16.7883" r="2.91971" fill="#EEA4C9"/>
<circle cx="155.474" cy="30.6569" r="2.91971" fill="#EEA4C9"/>
<circle cx="155.474" cy="44.5255" r="2.91971" fill="#EEA4C9"/>
<circle cx="155.474" cy="58.3942" r="2.91971" fill="#EEA4C9"/>
<circle cx="155.474" cy="72.2628" r="2.91971" fill="#EEA4C9"/>
<circle cx="155.474" cy="86.1314" r="2.91971" fill="#EEA4C9"/>
<circle cx="155.474" cy="100" r="2.91971" fill="#EEA4C9"/>
<circle cx="155.474" cy="113.869" r="2.91971" fill="#EEA4C9"/>
<circle cx="155.474" cy="127.737" r="2.91971" fill="#EEA4C9"/>
<circle cx="155.474" cy="141.606" r="2.91971" fill="#EEA4C9"/>
<circle cx="155.474" cy="155.474" r="2.91971" fill="#EEA4C9"/>
<circle cx="155.474" cy="169.343" r="2.91971" fill="#EEA4C9"/>
<circle cx="155.474" cy="183.212" r="2.91971" fill="#EEA4C9"/>
<circle cx="155.474" cy="197.08" r="2.91971" fill="#EEA4C9"/>
<circle cx="169.344" cy="2.91971" r="2.91971" fill="#EEA4C9"/>
<circle cx="169.344" cy="16.7884" r="2.91971" fill="#EEA4C9"/>
<circle cx="169.344" cy="30.6569" r="2.91971" fill="#EEA4C9"/>
<circle cx="169.344" cy="44.5255" r="2.91971" fill="#EEA4C9"/>
<circle cx="169.344" cy="58.3942" r="2.91971" fill="#EEA4C9"/>
<circle cx="169.344" cy="72.2627" r="2.91971" fill="#EEA4C9"/>
<circle cx="169.344" cy="86.1314" r="2.91971" fill="#EEA4C9"/>
<circle cx="169.344" cy="100" r="2.91971" fill="#EEA4C9"/>
<circle cx="169.344" cy="113.869" r="2.91971" fill="#EEA4C9"/>
<circle cx="169.344" cy="127.737" r="2.91971" fill="#EEA4C9"/>
<circle cx="169.344" cy="141.606" r="2.91971" fill="#EEA4C9"/>
<circle cx="169.344" cy="155.474" r="2.91971" fill="#EEA4C9"/>
<circle cx="169.344" cy="169.343" r="2.91971" fill="#EEA4C9"/>
<circle cx="169.344" cy="183.212" r="2.91971" fill="#EEA4C9"/>
<circle cx="169.344" cy="197.08" r="2.91971" fill="#EEA4C9"/>
<circle cx="183.212" cy="2.91971" r="2.91971" fill="#EEA4C9"/>
<circle cx="183.212" cy="16.7883" r="2.91971" fill="#EEA4C9"/>
<circle cx="183.212" cy="30.6569" r="2.91971" fill="#EEA4C9"/>
<circle cx="183.212" cy="44.5255" r="2.91971" fill="#EEA4C9"/>
<circle cx="183.212" cy="58.3942" r="2.91971" fill="#EEA4C9"/>
<circle cx="183.212" cy="72.2628" r="2.91971" fill="#EEA4C9"/>
<circle cx="183.212" cy="86.1314" r="2.91971" fill="#EEA4C9"/>
<circle cx="183.212" cy="100" r="2.91971" fill="#EEA4C9"/>
<circle cx="183.212" cy="113.869" r="2.91971" fill="#EEA4C9"/>
<circle cx="183.212" cy="127.737" r="2.91971" fill="#EEA4C9"/>
<circle cx="183.212" cy="141.606" r="2.91971" fill="#EEA4C9"/>
<circle cx="183.212" cy="155.474" r="2.91971" fill="#EEA4C9"/>
<circle cx="183.212" cy="169.343" r="2.91971" fill="#EEA4C9"/>
<circle cx="183.212" cy="183.212" r="2.91971" fill="#EEA4C9"/>
<circle cx="183.212" cy="197.08" r="2.91971" fill="#EEA4C9"/>
<circle cx="197.08" cy="2.91971" r="2.91971" fill="#EEA4C9"/>
<circle cx="197.08" cy="16.7884" r="2.91971" fill="#EEA4C9"/>
<circle cx="197.08" cy="30.6569" r="2.91971" fill="#EEA4C9"/>
<circle cx="197.08" cy="44.5255" r="2.91971" fill="#EEA4C9"/>
<circle cx="197.08" cy="58.3942" r="2.91971" fill="#EEA4C9"/>
<circle cx="197.08" cy="72.2627" r="2.91971" fill="#EEA4C9"/>
<circle cx="197.08" cy="86.1314" r="2.91971" fill="#EEA4C9"/>
<circle cx="197.08" cy="100" r="2.91971" fill="#EEA4C9"/>
<circle cx="197.08" cy="113.869" r="2.91971" fill="#EEA4C9"/>
<circle cx="197.08" cy="127.737" r="2.91971" fill="#EEA4C9"/>
<circle cx="197.08" cy="141.606" r="2.91971" fill="#EEA4C9"/>
<circle cx="197.08" cy="155.474" r="2.91971" fill="#EEA4C9"/>
<circle cx="197.08" cy="169.343" r="2.91971" fill="#EEA4C9"/>
<circle cx="197.08" cy="183.212" r="2.91971" fill="#EEA4C9"/>
<circle cx="197.08" cy="197.08" r="2.91971" fill="#EEA4C9"/>
</g>
</svg>
