<svg width="320" height="320" viewBox="0 0 320 320" fill="none" xmlns="http://www.w3.org/2000/svg">
<g opacity="0.06">
<path d="M305.946 64.2466C287.067 47.2339 265.827 35.4695 243.179 29.2702C238.776 12.4337 223.49 0 205.244 0C187.034 0 171.747 12.4337 167.309 29.2702C144.696 35.4695 123.421 47.2339 104.542 64.2466C98.3425 69.8118 97.8494 79.3572 103.45 85.5565C109.015 91.7557 118.56 92.2488 124.76 86.6484C139.025 73.792 154.875 64.6693 171.641 59.4563C178.51 70.8333 190.979 78.4767 205.209 78.4767C219.439 78.4767 231.908 70.8333 238.776 59.4563C255.542 64.6693 271.393 73.8272 285.658 86.6484C288.546 89.2549 292.174 90.5229 295.767 90.5229C299.888 90.5229 304.009 88.8322 306.968 85.5212C312.639 79.3572 312.146 69.8118 305.946 64.2466Z" fill="#5CBBE5"/>
<path d="M320 205.279C320 187.069 307.567 171.782 290.73 167.344C284.531 144.731 272.766 123.456 255.754 104.577C250.189 98.3776 240.643 97.8845 234.444 103.485C228.245 109.05 227.752 118.596 233.352 124.795C246.208 139.06 255.331 154.91 260.544 171.676C249.167 178.545 241.524 191.014 241.524 205.244C241.524 219.474 249.167 231.943 260.544 238.811C255.331 255.577 246.173 271.428 233.352 285.693C227.787 291.892 228.28 301.438 234.444 307.003C237.332 309.609 240.96 310.877 244.553 310.877C248.674 310.877 252.795 309.187 255.754 305.876C272.766 286.996 284.531 265.757 290.73 243.109C307.567 238.776 320 223.489 320 205.279Z" fill="#EEA4C9"/>
<path d="M216.48 234.409C210.915 228.209 201.37 227.716 195.171 233.317C180.905 246.173 165.055 255.296 148.289 260.509C141.42 249.132 128.951 241.488 114.721 241.488C100.491 241.488 88.0225 249.132 81.154 260.509C64.3879 255.296 48.5376 246.138 34.2723 233.317C28.073 227.751 18.5276 228.245 12.9624 234.409C7.3972 240.608 7.89031 250.153 14.0543 255.718C32.9338 272.731 54.1732 284.496 76.8216 290.695C81.2244 307.531 96.5112 319.965 114.757 319.965C132.967 319.965 148.254 307.531 152.692 290.695C175.305 284.496 196.579 272.731 215.459 255.718C221.553 250.153 222.046 240.608 216.48 234.409Z" fill="#5CBBE5"/>
<path d="M59.4563 148.288C70.8333 141.42 78.4767 128.951 78.4767 114.721C78.4767 100.491 70.8333 88.022 59.4563 81.1535C64.6693 64.3874 73.8272 48.5371 86.6484 34.2718C92.2136 28.0726 91.7205 18.5271 85.5565 12.9619C79.3572 7.39671 69.8118 7.88983 64.2466 14.0538C47.2339 32.9333 35.4695 54.1727 29.2702 76.8211C12.4337 81.2239 0 96.5107 0 114.756C0 133.002 12.4337 148.253 29.2702 152.691C35.4695 175.304 47.2339 196.579 64.2466 215.458C67.2405 218.769 71.3264 220.46 75.4475 220.46C79.0402 220.46 82.6682 219.192 85.5565 216.586C91.7557 211.02 92.2488 201.475 86.6484 195.276C73.8272 180.905 64.6693 165.054 59.4563 148.288Z" fill="#EEA4C9"/>
</g>
</svg>
