<svg width="46" height="46" viewBox="0 0 46 46" fill="none" xmlns="http://www.w3.org/2000/svg">
<circle opacity="0.1" cx="23" cy="23" r="23" fill="#F9FEFC"/>
<g clip-path="url(#clip0_1263_67)">
<path d="M32.4235 25.1231C32.5673 24.4714 32.6435 23.7977 32.6435 23.1047C32.6435 17.9111 28.3741 13.6999 23.1062 13.6999C22.5507 13.6999 22.0057 13.7474 21.4758 13.8374C20.6235 13.3075 19.6149 13 18.5338 13C15.4781 13 13.0022 15.4421 13.0022 18.4554C13.0022 19.4615 13.2803 20.4038 13.7621 21.2143C13.6352 21.8248 13.569 22.4572 13.569 23.1047C13.569 28.3001 17.8383 32.3545 23.1056 32.3545C23.7024 32.3545 24.2861 32.3001 24.8516 32.197C25.6309 32.6094 26.5208 33 27.4669 33C30.522 33 32.9979 30.5585 32.9979 27.5452C32.9979 26.676 32.791 25.853 32.4235 25.1231Z" fill="white"/>
<path d="M27.4559 26.9434C27.0878 27.4665 26.5491 27.8776 25.8399 28.1732C25.1306 28.4713 24.2908 28.6188 23.3191 28.6188C22.1536 28.6188 21.1925 28.4163 20.4345 28.0107C19.8983 27.7196 19.4615 27.3296 19.1253 26.8434C18.7904 26.3572 18.6223 25.8836 18.6223 25.423C18.6223 25.1568 18.7229 24.9281 18.9241 24.7387C19.1253 24.5468 19.3822 24.4525 19.6928 24.4525C19.9453 24.4525 20.1596 24.5256 20.3333 24.675C20.5083 24.8231 20.6576 25.0424 20.7801 25.3342C20.9307 25.6811 21.0926 25.9704 21.2681 26.2022C21.4419 26.434 21.6881 26.6265 22.0043 26.7771C22.3217 26.9265 22.7385 27.0027 23.2534 27.0027C23.9621 27.0027 24.5382 26.8514 24.9819 26.5471C25.4243 26.244 25.6468 25.8635 25.6468 25.4091C25.6468 25.0492 25.5268 24.7548 25.2881 24.5317C25.0487 24.3068 24.74 24.1349 24.3613 24.0168C23.9832 23.8975 23.4771 23.7712 22.8422 23.6381C21.9942 23.4563 21.2837 23.2413 20.7126 22.9976C20.1408 22.752 19.6859 22.419 19.3509 21.9972C19.0147 21.5735 18.8472 21.0486 18.8472 20.4218C18.8472 19.8232 19.024 19.2926 19.379 18.8284C19.7333 18.3634 20.2451 18.0066 20.9175 17.7566C21.5886 17.5067 22.3785 17.3823 23.2852 17.3823C24.0101 17.3823 24.6375 17.4655 25.1668 17.6298C25.6961 17.796 26.1342 18.016 26.4828 18.2903C26.8321 18.5647 27.0877 18.8521 27.2483 19.1539C27.4095 19.4539 27.4901 19.7501 27.4901 20.035C27.4901 20.2968 27.3901 20.5343 27.1889 20.7437C26.9877 20.9537 26.7365 21.0592 26.4359 21.0592C26.1615 21.0592 25.9535 20.9955 25.811 20.8699C25.6685 20.7437 25.5142 20.5375 25.3485 20.2506C25.1329 19.8407 24.8761 19.5207 24.5749 19.2914C24.2737 19.0615 23.7913 18.9465 23.1251 18.9465C22.5084 18.9465 22.0097 19.0702 21.631 19.3208C21.2523 19.5695 21.0624 19.8707 21.0624 20.2212C21.0624 20.4375 21.128 20.6262 21.2561 20.7843C21.3842 20.9436 21.5617 21.078 21.7885 21.1911C22.0128 21.3048 22.2415 21.3936 22.4721 21.4591C22.7026 21.5235 23.0845 21.6166 23.6169 21.7404C24.2818 21.8835 24.8848 22.0422 25.4247 22.2147C25.9641 22.3878 26.424 22.5984 26.8027 22.8439C27.1807 23.0914 27.4769 23.4051 27.6888 23.7838C27.9006 24.1613 28.0075 24.6243 28.0075 25.173C28.0077 25.8292 27.8228 26.4197 27.4559 26.9434Z" fill="#321B47"/>
</g>
<defs>
<clipPath id="clip0_1263_67">
<rect width="20" height="20" fill="white" transform="translate(13 13)"/>
</clipPath>
</defs>
</svg>
