<svg width="21" height="18" viewBox="0 0 21 18" fill="none" xmlns="http://www.w3.org/2000/svg">
<path d="M20.7736 5.34641L17.2328 1.8797C16.4083 1.07241 15.3187 0.627824 14.1648 0.627824H13.8616C13.83 0.601872 13.7953 0.578704 13.7577 0.558892L12.8306 0.0708396C12.5304 -0.0872054 12.1592 0.0281048 12.0012 0.328149C11.9508 0.423893 11.9285 0.526841 11.9308 0.627865H9.0272C9.02953 0.526882 9.00722 0.423893 8.95683 0.328149C8.79887 0.0280639 8.42748 -0.0871644 8.12748 0.0708396L7.20037 0.558892C7.16275 0.578704 7.12804 0.601872 7.0964 0.627824H6.7932C5.63928 0.627824 4.54967 1.07241 3.72522 1.8797L0.184458 5.34641C-0.0517292 5.57765 -0.0624539 5.95432 0.160103 6.19861L2.47535 8.74023C2.69083 8.97678 3.05182 9.00818 3.30496 8.81243L4.74247 7.70051L4.88815 17.3952C4.89318 17.7307 5.16658 18 5.50207 18H15.4561C15.7916 18 16.065 17.7307 16.07 17.3952L16.2157 7.70051L17.6532 8.81243C17.9063 9.00818 18.2673 8.97682 18.4828 8.74023L20.7981 6.19861C21.0205 5.95432 21.0098 5.57765 20.7736 5.34641ZM8.6073 8.88996C8.6073 9.22906 8.33239 9.50397 7.9933 9.50397C7.6542 9.50397 7.37929 9.22906 7.37929 8.88996V4.25197C7.37929 3.91288 7.6542 3.63796 7.9933 3.63796C8.33239 3.63796 8.6073 3.91288 8.6073 4.25197V8.88996ZM13.5787 7.53252C13.5787 8.61959 12.6944 9.50397 11.6073 9.50397C10.5202 9.50397 9.6358 8.61959 9.6358 7.53252V5.60945C9.6358 4.52238 10.5202 3.63796 11.6073 3.63796C12.6944 3.63796 13.5787 4.52234 13.5787 5.60945V7.53252Z" fill="#DED9E2"/>
</svg>
