<svg width="46" height="46" viewBox="0 0 46 46" fill="none" xmlns="http://www.w3.org/2000/svg">
<circle opacity="0.1" cx="23" cy="23" r="23" fill="#F9FEFC"/>
<path d="M30.8059 18.507C29.7771 18.507 28.8278 18.1661 28.0655 17.5911C27.1912 16.932 26.5631 15.9651 26.3412 14.8507C26.2863 14.5753 26.2567 14.2912 26.2539 14H23.3149V22.0308L23.3114 26.4297C23.3114 27.6057 22.5455 28.6029 21.4839 28.9536C21.1758 29.0553 20.8431 29.1036 20.4966 29.0846C20.0544 29.0603 19.64 28.9268 19.2798 28.7113C18.5132 28.2529 17.9935 27.4212 17.9794 26.4698C17.9572 24.9829 19.1593 23.7706 20.6452 23.7706C20.9385 23.7706 21.2202 23.8185 21.4839 23.9054V21.7104V20.9213C21.2058 20.8801 20.9227 20.8587 20.6364 20.8587C19.01 20.8587 17.4889 21.5347 16.4016 22.7526C15.5798 23.6731 15.0869 24.8473 15.0108 26.0786C14.9112 27.6962 15.5031 29.2339 16.6509 30.3683C16.8196 30.5349 16.9967 30.6895 17.1819 30.8321C18.166 31.5894 19.3692 32 20.6364 32C20.9227 32 21.2058 31.9789 21.4839 31.9377C22.6677 31.7623 23.7599 31.2204 24.6219 30.3683C25.681 29.3215 26.2662 27.9318 26.2726 26.4526L26.2574 19.8837C26.7627 20.2735 27.3152 20.596 27.9081 20.8463C28.8303 21.2354 29.8081 21.4326 30.8144 21.4322V19.2981V18.5062C30.8151 18.507 30.8066 18.507 30.8059 18.507Z" fill="#F6F6F6"/>
</svg>
