<svg width="19" height="18" viewBox="0 0 19 18" fill="none" xmlns="http://www.w3.org/2000/svg">
<path d="M18.8955 8.68113C18.8955 13.0207 15.6947 16.6266 11.53 17.2624C11.5651 17.0698 11.575 16.8704 11.5513 16.6683C11.5513 16.6683 11.5264 16.4556 11.4939 16.1773C12.9725 15.9254 14.3075 15.2469 15.3656 14.2711C15.3021 14.2183 15.2388 14.1498 15.1765 14.0588C14.8954 13.6488 15.2629 13.2419 15.2629 12.8833C15.2629 12.5316 14.5538 12.5605 14.5278 12.3276C14.4382 11.5208 15.0229 11.5098 15.3346 11.1981C15.6463 10.8864 15.0265 10.1777 14.6262 10.2235C14.2231 10.2665 13.0885 10.0373 13.1922 9.16926C13.3185 8.11201 11.8452 8.20529 11.6343 7.71181C11.3267 6.99251 11.838 6.11023 12.5048 5.90979C13.4493 5.62589 14.3798 4.85534 14.3071 3.99757C14.2248 3.02609 13.7851 2.14995 13.0608 1.62949C12.3072 1.32417 11.4945 1.13537 10.6443 1.08773C9.88547 1.11774 9.21832 1.28638 9.24877 1.63378C9.32339 2.48513 11.7443 2.70626 11.3381 3.50209C11.1263 3.91696 9.53671 4.5025 9.83357 5.11994C10.0267 5.52147 10.5019 5.17734 10.3245 5.9482C10.2428 6.30289 9.93182 6.96933 9.45353 7.01234C8.96444 7.058 8.55717 5.7623 7.2259 5.71981C6.59654 5.69968 5.7099 6.70176 6.46276 7.41269C6.91866 7.84321 7.77417 6.89526 8.02667 7.63576C8.2046 8.15758 8.00271 9.25377 8.83316 9.71189C9.13589 9.8789 9.59997 10.0245 10.059 10.2577C9.3777 10.3968 8.54062 10.6564 7.55215 11.0372L6.71933 10.8174C7.06797 10.5272 7.63443 10.3229 7.49192 9.68874C7.28255 8.75702 5.66479 9.10841 4.5495 7.99314C4.20734 7.65105 3.47755 6.51506 3.48054 5.15026C2.9246 6.20625 2.6082 7.40717 2.6082 8.68116C2.6082 9.07331 2.63811 9.45862 2.69563 9.83496C2.68251 9.83474 2.66955 9.83246 2.65645 9.83246C2.30522 9.83246 1.96075 9.90625 1.6415 10.0458C1.57098 9.60102 1.53334 9.14549 1.53334 8.68119C1.53334 3.89448 5.4277 7.34311e-10 10.2144 7.34311e-10C15.0012 -6.17493e-05 18.8955 3.89442 18.8955 8.68113ZM12.3836 11.2114L10.2634 12.186L10.2963 11.724L11.6698 11.104C11.4739 11.0899 11.271 11.0846 11.0683 11.0846C10.3094 11.0846 9.02727 11.4687 7.60918 12.0316L3.06107 10.832C2.63605 10.7198 2.18354 10.7889 1.81128 11.0228L1.58765 11.1633C1.36934 11.3004 1.36702 11.6178 1.5833 11.7582L4.31725 13.5319C3.66415 13.8659 3.04452 14.2051 2.49828 14.5291L1.09538 13.7863C0.866228 13.665 0.595299 13.6507 0.354629 13.747L0.221835 13.8003C0.0238028 13.8795 -0.0591584 14.115 0.0455079 14.3009L0.818341 15.674L0.81868 15.6739C0.527097 15.9248 0.360927 16.1328 0.360927 16.2768C0.360927 16.7076 0.891175 16.8153 1.35856 16.8153C2.19219 16.8153 13.2012 14.2947 13.2012 12.011C13.2011 11.5588 12.8918 11.3326 12.3836 11.2114ZM7.74194 15.67L10.1645 14.8166C10.2712 14.779 10.3852 14.8502 10.3984 14.9626L10.6108 16.7785C10.6638 17.2322 10.4198 17.6689 10.0055 17.8615L9.77827 17.9671C9.63637 18.0331 9.46804 17.9977 9.36464 17.8803L7.66812 15.9531C7.58553 15.8592 7.624 15.7116 7.74194 15.67Z" fill="#DED9E2"/>
</svg>
