<svg width="165" height="160" viewBox="0 0 165 160" fill="none" xmlns="http://www.w3.org/2000/svg">
<path opacity="0.1" d="M84.6034 0.0359868C42.5959 -1.18687 6.20617 28.8988 0.708313 68.3787C-5.30336 111.544 27.7808 150.378 68.4866 156.601C119.121 164.338 168.23 119.579 163.823 71.0187C160.5 34.4359 127.307 1.2817 84.6034 0.0359868Z" fill="#F4F7FA"/>
<path d="M99.4076 44.1959L94.7547 44.2016C94.435 41.1273 93.6928 38.173 92.5966 35.4016L96.5302 33.1159C97.6035 32.493 97.9746 31.0816 97.3523 29.9673L95.6967 26.9902C95.0744 25.8702 93.6871 25.453 92.6023 26.0702L88.7202 28.2759C86.9104 25.7388 84.7523 23.453 82.3089 21.4873L84.5411 17.6473C85.1805 16.5445 84.8037 15.0931 83.6905 14.4016L80.716 12.5559C79.5913 11.8588 78.1469 12.1902 77.4961 13.2988L75.2581 17.0988C72.3807 15.7559 69.2693 14.7902 65.9923 14.2702V9.76165C65.9923 8.43023 64.9018 7.30452 63.5488 7.24166L59.9292 7.07595C58.559 7.01309 57.4458 8.05309 57.4458 9.39594V13.9559C54.066 14.2359 50.8061 14.9959 47.7403 16.1731L45.3254 12.0588C44.6174 10.8474 43.036 10.3788 41.7971 11.0131L38.4859 12.7102C37.2356 13.3502 36.8017 14.8645 37.5267 16.0874L40.033 20.3045C37.2927 22.2416 34.8435 24.5673 32.7654 27.1959L28.238 24.6302C26.9535 23.9045 25.3036 24.2816 24.5614 25.4759L22.5689 28.6702C21.8153 29.8759 22.2663 31.4359 23.5623 32.1559L28.2495 34.7502C26.9478 37.7502 26.0743 40.9616 25.6918 44.3216L20.0683 44.333C18.5554 44.333 17.3223 45.4816 17.3223 46.8987V50.6587C17.3223 52.0701 18.5554 53.2015 20.0683 53.1844L25.8402 53.1101C26.3255 56.3901 27.2903 59.5101 28.6548 62.4072L23.5623 65.2986C22.2606 66.0358 21.8153 67.6072 22.5689 68.8015L24.5614 71.9672C25.3093 73.1558 26.9535 73.5043 28.238 72.7615L33.3876 69.7729C35.4486 72.2072 37.8407 74.3501 40.4955 76.1329L37.5267 81.1786C36.8017 82.4072 37.2299 83.9157 38.4859 84.5386L41.7971 86.19C43.036 86.8072 44.6117 86.3157 45.3254 85.0929L48.2712 80.03C51.1829 81.0586 54.2601 81.71 57.4458 81.9329V87.5786C57.4458 88.9214 58.559 89.9443 59.9292 89.8643L63.5488 89.6472C64.9018 89.5672 65.9923 88.4243 65.9923 87.0929V81.51C69.0866 80.9786 72.0268 80.0529 74.7671 78.7958L77.5018 83.3957C78.1526 84.4929 79.597 84.8072 80.7217 84.0929L83.6962 82.2015C84.8094 81.4929 85.1862 80.0415 84.5468 78.9443L81.8921 74.4186C84.2671 72.5386 86.3794 70.3615 88.1778 67.9558L92.6023 70.4072C93.6871 71.0072 95.0744 70.5786 95.6967 69.4472L97.3523 66.4472C97.9746 65.3215 97.6035 63.9215 96.5302 63.3101L92.2484 60.8872C93.4073 58.1672 94.218 55.2701 94.6291 52.253L99.4076 52.1958C100.641 52.1787 101.634 51.1387 101.634 49.8701V46.493C101.634 45.2187 100.641 44.1901 99.4076 44.1959ZM61.7447 71.9786C47.9801 72.4872 36.4591 61.7958 36.4591 48.0758C36.4591 34.3559 47.9801 23.5159 61.7447 23.853C75.0412 24.1788 85.4945 34.8759 85.4945 47.7673C85.4945 60.653 75.0412 71.4872 61.7447 71.9786Z" fill="#97A6B7"/>
<path d="M46.3426 10.836L43.0256 10.7217L41.8838 13.6988L46.3426 10.836Z" fill="#97A6B7"/>
<path d="M79.1973 12.2129L83.0166 12.2472V15.07L79.1973 12.2129Z" fill="#97A6B7"/>
<path d="M93.7617 25.8188L97.5697 25.9731L96.6163 28.1103L93.7617 25.8188Z" fill="#97A6B7"/>
<path d="M99.7393 44.2358L103.587 44.5387L102.331 46.4073L99.7393 44.2358Z" fill="#97A6B7"/>
<path d="M93.3389 70.653L97.0725 71.1844L97.5293 68.1387L93.3389 70.653Z" fill="#97A6B7"/>
<path d="M79.0607 84.413L82.4118 85.0244L82.6744 82.5444L79.0607 84.413Z" fill="#97A6B7"/>
<path d="M62.2988 90.3614L59.2901 89.8299L61.882 85.9785L62.2988 90.3614Z" fill="#97A6B7"/>
<path d="M45.9995 87.1215L42.4941 86.3958L45.2003 83.1157L45.9995 87.1215Z" fill="#97A6B7"/>
<path d="M26.3086 24.293L29.9624 24.4073L28.518 27.0758L26.3086 24.293Z" fill="#97A6B7"/>
<path d="M19.0352 53.0015L22.3864 53.4986L22.1181 50.75L19.0352 53.0015Z" fill="#97A6B7"/>
<path d="M26.2287 73.0929L29.5057 73.6243L29.774 71.4529L26.2287 73.0929Z" fill="#97A6B7"/>
<path d="M103.17 44.4986L98.4771 44.5044C98.1517 41.4015 97.4095 38.4244 96.302 35.6301L100.27 33.3273C101.355 32.6987 101.726 31.2816 101.098 30.1558L99.4306 27.1559C98.8026 26.0244 97.4038 25.6073 96.3134 26.2301L92.397 28.453C90.5758 25.8987 88.4006 23.5902 85.9343 21.6073L88.1894 17.733C88.8345 16.6245 88.452 15.1616 87.333 14.4645L84.3357 12.6016C83.1996 11.8988 81.7495 12.2302 81.0872 13.3502L78.8264 17.1845C75.9262 15.8302 72.7919 14.8588 69.4807 14.333V9.78449C69.4807 8.44164 68.3788 7.3045 67.0143 7.24165L63.3662 7.07593C61.9846 7.01308 60.8599 8.05879 60.8599 9.41878V14.0131C57.4516 14.2988 54.1632 15.0645 51.0745 16.253L48.6368 12.0988C47.9231 10.8759 46.3303 10.4016 45.08 11.0473L41.7402 12.7616C40.4785 13.4073 40.0446 14.933 40.7753 16.1616L43.2988 20.413C40.5356 22.3673 38.0635 24.7102 35.974 27.3616L31.4067 24.773C30.1108 24.0416 28.4494 24.4187 27.6958 25.6244L25.6919 28.8473C24.9326 30.0587 25.3836 31.6358 26.691 32.3616L31.4181 34.9787C30.1051 38.0015 29.2201 41.2358 28.8376 44.6186L23.1685 44.6301C21.6442 44.6301 20.3996 45.7901 20.3996 47.2129V51.0015C20.3996 52.4243 21.6385 53.5672 23.1685 53.5443L28.9861 53.47C29.4771 56.7786 30.4476 59.9215 31.8292 62.8472L26.691 65.7671C25.3836 66.51 24.9326 68.0928 25.6919 69.2986L27.7015 72.4871C28.4551 73.6814 30.1165 74.0414 31.4124 73.2871L36.6077 70.27C38.6858 72.7271 41.0951 74.8871 43.7783 76.6814L40.7811 81.7671C40.0503 83.0071 40.4842 84.5271 41.7459 85.1556L45.0857 86.8242C46.336 87.4471 47.9231 86.9499 48.6425 85.7214L51.6112 80.6128C54.5457 81.6471 57.6457 82.3042 60.8599 82.5328V88.2242C60.8599 89.5785 61.9846 90.6128 63.3662 90.527L67.0143 90.3099C68.3788 90.2299 69.4807 89.0756 69.4807 87.7328V82.1042C72.5978 81.5728 75.5666 80.6357 78.3241 79.3671L81.0815 84.0071C81.7381 85.1156 83.1939 85.4299 84.33 84.7099L87.3273 82.8071C88.4463 82.0928 88.8345 80.6242 88.1837 79.5271L85.5061 74.9671C87.8982 73.07 90.0334 70.8757 91.8489 68.4471L96.3134 70.9157C97.4095 71.5214 98.8026 71.0871 99.4306 69.9443L101.098 66.9214C101.72 65.79 101.355 64.3729 100.27 63.7614L95.9537 61.3157C97.1241 58.5729 97.9405 55.6529 98.3515 52.6072L103.17 52.55C104.415 52.5329 105.414 51.4872 105.414 50.2072V46.8015C105.414 45.5272 104.409 44.4929 103.17 44.4986ZM65.1931 72.51C51.3143 73.0243 39.6963 62.2472 39.6963 48.4129C39.6963 34.5844 51.3143 23.653 65.1931 23.9902C78.6038 24.3159 89.1428 35.1044 89.1428 48.0986C89.1428 61.0872 78.5981 72.0128 65.1931 72.51Z" fill="#D8DEE8"/>
<path d="M146.856 44.5273L144.356 44.0587C144.493 42.373 144.396 40.7102 144.082 39.1045L146.428 38.2759C147.068 38.0473 147.41 37.3273 147.188 36.6645L146.599 34.8988C146.377 34.2302 145.675 33.8702 145.029 34.093L142.717 34.8873C141.998 33.3388 141.073 31.8931 139.954 30.5902L141.541 28.7502C141.998 28.2245 141.941 27.4016 141.41 26.9216L140 25.6302C139.463 25.1388 138.658 25.1731 138.196 25.7045L136.609 27.5216C135.198 26.5102 133.623 25.6759 131.91 25.0645L132.367 22.6417C132.504 21.9274 132.024 21.2074 131.305 21.0417L129.375 20.5845C128.644 20.4131 127.942 20.8588 127.805 21.5845L127.343 24.0359C125.499 23.8474 123.666 23.9274 121.902 24.2474L121.017 21.7845C120.754 21.0588 119.955 20.6474 119.224 20.8645L117.272 21.4417C116.535 21.6588 116.147 22.4302 116.415 23.1617L117.335 25.6816C115.668 26.4474 114.115 27.4474 112.733 28.6531L110.558 26.8131C109.941 26.2931 109.017 26.3274 108.497 26.8988L107.104 28.4131C106.579 28.9845 106.659 29.8702 107.287 30.3902L109.547 32.2588C108.548 33.7388 107.749 35.3788 107.207 37.1445L104.181 36.5788C103.365 36.4245 102.588 36.9216 102.445 37.6816L102.069 39.7045C101.926 40.4645 102.474 41.1959 103.29 41.3387L106.402 41.8816C106.333 43.693 106.533 45.4701 106.978 47.1673L103.947 48.2073C103.176 48.4701 102.776 49.2701 103.062 49.9901L103.816 51.893C104.095 52.6073 104.946 52.9615 105.711 52.693L108.782 51.6073C109.645 53.1273 110.718 54.5215 111.962 55.7444L109.856 58.1558C109.342 58.7444 109.422 59.5958 110.033 60.0587L111.648 61.2815C112.254 61.7387 113.15 61.6358 113.652 61.0472L115.748 58.6187C117.209 59.4644 118.796 60.1272 120.492 60.5672L119.921 63.6015C119.784 64.3272 120.281 64.9901 121.028 65.0815L122.998 65.3329C123.735 65.4244 124.437 64.9215 124.574 64.2072L125.139 61.2015C126.857 61.2301 128.53 61.0301 130.129 60.6301L131.134 63.3787C131.373 64.0358 132.116 64.3501 132.795 64.0758L134.588 63.3615C135.256 63.0929 135.609 62.3501 135.375 61.6987L134.405 58.9958C135.872 58.2244 137.231 57.2701 138.441 56.1558L140.576 57.9215C141.102 58.3558 141.889 58.2644 142.335 57.7158L143.528 56.2701C143.973 55.7273 143.916 54.9387 143.402 54.4987L141.347 52.7616C142.243 51.413 142.974 49.9387 143.499 48.3559L146.074 48.8073C146.736 48.9216 147.376 48.4644 147.507 47.7787L147.85 45.9616C147.953 45.3044 147.519 44.6473 146.856 44.5273ZM123.797 55.6644C116.341 54.5501 111.226 47.6301 112.608 40.253C113.989 32.8759 121.28 28.2074 128.65 29.7788C135.769 31.2988 140.314 38.1102 139.012 45.0416C137.716 51.973 131.002 56.7444 123.797 55.6644Z" fill="#97A6B7"/>
<path d="M121.679 21.2246L119.909 20.8303L118.996 22.3103L121.679 21.2246Z" fill="#97A6B7"/>
<path d="M139.212 25.2817L141.267 25.6932L140.982 27.2074L139.212 25.2817Z" fill="#97A6B7"/>
<path d="M145.675 34.0759L147.707 34.5388L146.977 35.5959L145.675 34.0759Z" fill="#97A6B7"/>
<path d="M147.027 44.5786L149.066 45.1329L148.203 46.0129L147.027 44.5786Z" fill="#97A6B7"/>
<path d="M140.925 58.1443L142.877 58.8072L143.431 57.2129L140.925 58.1443Z" fill="#97A6B7"/>
<path d="M131.853 64.0987L133.594 64.7673L133.988 63.4587L131.853 64.0987Z" fill="#97A6B7"/>
<path d="M122.244 65.6073L120.68 65.013L122.461 63.2073L122.244 65.6073Z" fill="#97A6B7"/>
<path d="M113.801 62.2128L111.991 61.4699L113.778 59.9785L113.801 62.2128Z" fill="#97A6B7"/>
<path d="M109.548 26.436L111.506 26.8703L110.456 28.156L109.548 26.436Z" fill="#97A6B7"/>
<path d="M102.742 41.1388L104.495 41.7446L104.626 40.2417L102.742 41.1388Z" fill="#97A6B7"/>
<path d="M104.586 52.6701L106.293 53.293L106.658 52.1501L104.586 52.6701Z" fill="#97A6B7"/>
<path d="M148.848 45.0701L146.325 44.6015C146.462 42.8987 146.365 41.2244 146.051 39.6072L148.414 38.773C149.06 38.5444 149.402 37.8187 149.179 37.1501L148.586 35.3672C148.363 34.693 147.655 34.333 146.999 34.5558L144.669 35.3558C143.944 33.7958 143.008 32.3387 141.883 31.0244L143.487 29.1673C143.95 28.6358 143.887 27.8073 143.356 27.3216L141.929 26.0187C141.392 25.5273 140.576 25.5558 140.108 26.093L138.509 27.9273C137.088 26.9044 135.495 26.0644 133.771 25.4473L134.227 23.0016C134.364 22.2816 133.885 21.5559 133.16 21.3844L131.213 20.9273C130.476 20.7559 129.769 21.2016 129.632 21.933L129.169 24.4073C127.308 24.213 125.464 24.2987 123.683 24.6244L122.792 22.1444C122.529 21.413 121.724 21.0016 120.988 21.2187L119.018 21.8016C118.276 22.0244 117.888 22.8016 118.156 23.533L119.087 26.0758C117.403 26.8473 115.838 27.8587 114.445 29.0758L112.247 27.2244C111.625 26.6987 110.695 26.733 110.169 27.3101L108.765 28.8358C108.234 29.413 108.32 30.3044 108.948 30.8301L111.225 32.7158C110.215 34.2072 109.416 35.8587 108.868 37.6415L105.819 37.0758C104.997 36.9215 104.215 37.4187 104.072 38.1844L103.689 40.2244C103.547 40.9901 104.101 41.7272 104.923 41.8701L108.057 42.4187C107.988 44.2472 108.194 46.0358 108.639 47.7501L105.585 48.8015C104.803 49.0701 104.403 49.8758 104.689 50.5958L105.448 52.5158C105.733 53.2358 106.59 53.5958 107.36 53.3215L110.46 52.2244C111.328 53.7558 112.407 55.1615 113.669 56.3958L111.545 58.8301C111.026 59.4243 111.106 60.2815 111.722 60.75L113.349 61.9843C113.96 62.4472 114.862 62.3386 115.37 61.75L117.483 59.3043C118.956 60.1558 120.56 60.8243 122.261 61.27L121.684 64.3329C121.547 65.0643 122.05 65.7329 122.798 65.8243L124.785 66.0758C125.527 66.1672 126.235 65.6586 126.372 64.9386L126.937 61.91C128.667 61.9386 130.357 61.7386 131.972 61.3329L132.988 64.1043C133.228 64.7672 133.982 65.0815 134.661 64.8072L136.465 64.0872C137.139 63.8186 137.493 63.0643 137.259 62.4072L136.283 59.6815C137.761 58.9043 139.131 57.9386 140.347 56.8186L142.5 58.5958C143.025 59.0301 143.824 58.9386 144.275 58.3901L145.474 56.9329C145.925 56.3843 145.868 55.5901 145.349 55.1501L143.276 53.4015C144.184 52.0415 144.915 50.5558 145.446 48.9615L148.043 49.4186C148.711 49.5386 149.356 49.0701 149.488 48.3844L149.83 46.5558C149.95 45.8529 149.516 45.1958 148.848 45.0701ZM125.595 56.2986C118.076 55.1729 112.921 48.2015 114.314 40.7615C115.707 33.3215 123.06 28.6187 130.488 30.2015C137.664 31.733 142.249 38.6015 140.936 45.5844C139.628 52.5729 132.857 57.3843 125.595 56.2986Z" fill="#D8DEE8"/>
<path d="M15.1868 135.161C12.3379 135.327 10.0029 133.333 10.0029 130.716V36.2931C10.0029 33.676 12.3322 31.6246 15.1868 31.7331L149.779 36.6188C151.96 36.6988 153.724 38.6131 153.724 40.8931V122.933C153.724 125.207 151.96 127.167 149.779 127.293L15.1868 135.161Z" fill="url(#paint0_linear_270_5615)"/>
<path d="M102.935 145.613C100.783 144.864 99.1784 142.944 98.7217 140.59L95.5931 124.316L68.8061 125.316L65.512 142.27C65.0495 144.647 66.8993 147.024 69.0288 147.898L80.2357 152.504C82.3195 153.361 84.5575 153.704 86.7897 153.504L110.471 151.378C111.162 151.316 111.721 150.744 111.801 150.013C111.881 149.281 112.366 148.458 111.704 148.224L102.935 145.613Z" fill="url(#paint1_linear_270_5615)"/>
<path d="M103.198 144.624C101.052 143.887 99.4416 141.99 98.9905 139.664L95.862 123.596L69.7314 124.584L66.4373 141.327C65.9749 143.67 67.1966 146.024 69.3204 146.887L80.5159 151.436C82.5997 152.281 84.8377 152.618 87.0585 152.418L110.717 150.316C111.408 150.253 111.962 149.693 112.042 148.967C112.121 148.241 111.705 147.561 111.048 147.333L103.198 144.624Z" fill="url(#paint2_linear_270_5615)"/>
<path d="M16.2493 135.161C13.4004 135.327 11.0654 133.333 11.0654 130.716V36.2931C11.0654 33.676 13.3947 31.6246 16.2493 31.7331L150.841 36.6188C153.022 36.6988 154.786 38.6131 154.786 40.8931V122.933C154.786 125.207 153.022 127.167 150.841 127.293L16.2493 135.161Z" fill="url(#paint3_linear_270_5615)"/>
<path d="M150.847 38.5503L16.2495 33.9331C14.7252 33.8817 13.4863 34.9731 13.4863 36.3731V109.83V130.579C13.4863 131.979 14.7252 133.042 16.2495 132.956L150.841 125.356C152.012 125.287 152.954 124.247 152.954 123.024V104.276V40.8303C152.959 39.6131 152.012 38.5903 150.847 38.5503Z" fill="url(#paint4_linear_270_5615)"/>
<path d="M16.2489 124.933C15.6552 124.961 15.1699 124.544 15.1699 123.996V36.4245C15.1699 35.8817 15.6552 35.4531 16.2489 35.4702L150.841 39.8988C151.298 39.9159 151.669 40.3159 151.669 40.7902V117.419C151.669 117.893 151.298 118.299 150.841 118.321L16.2489 124.933Z" fill="white"/>
<path d="M146.262 113.601L22.1581 119.058V48.5615L146.262 51.1672V113.601Z" fill="url(#paint5_linear_270_5615)"/>
<path d="M146.263 49.0358L22.1584 46.1502V40.1331L146.263 43.7045V49.0358Z" fill="url(#paint6_linear_270_5615)"/>
<path d="M136.837 46.1215C136.837 46.5044 136.54 46.8015 136.169 46.7958C135.798 46.7844 135.501 46.4701 135.501 46.0872C135.501 45.7044 135.803 45.4072 136.169 45.4129C136.534 45.4244 136.837 45.7444 136.837 46.1215Z" fill="white"/>
<path d="M139.583 46.1959C139.583 46.573 139.286 46.8759 138.915 46.8644C138.549 46.853 138.247 46.5387 138.247 46.1616C138.247 45.7787 138.544 45.4816 138.915 45.493C139.286 45.4987 139.583 45.813 139.583 46.1959Z" fill="white"/>
<path d="M142.312 46.2642C142.312 46.6414 142.015 46.9443 141.649 46.9328C141.284 46.9214 140.987 46.6071 140.987 46.2299C140.987 45.8528 141.284 45.5499 141.649 45.5613C142.015 45.5728 142.312 45.8871 142.312 46.2642Z" fill="white"/>
<g opacity="0.68">
<path opacity="0.68" d="M121.142 102.35L24.8642 105.379V50.3901L121.142 52.2587V102.35Z" fill="white"/>
</g>
<path opacity="0.68" d="M144.937 66.8185L122.826 66.7156V52.2871L144.937 52.7157V66.8185Z" fill="white"/>
<path d="M144.937 69.4013L122.826 69.3556V68.2756L144.937 68.3442V69.4013Z" fill="white"/>
<path d="M136.711 71.2243H122.826V70.1443L136.711 70.1614V71.2243Z" fill="white"/>
<path opacity="0.68" d="M144.937 87.5043L122.826 87.8758V73.4529L144.937 73.4072V87.5043Z" fill="white"/>
<path d="M144.937 90.0873L122.826 90.5215V89.4416L144.937 89.0359V90.0873Z" fill="white"/>
<path d="M136.711 92.0873L122.826 92.3844V91.3044L136.711 91.0244V92.0873Z" fill="white"/>
<path opacity="0.68" d="M144.937 108.196L122.826 109.041V94.6128L144.937 94.0928V108.196Z" fill="white"/>
<path d="M144.937 110.778L122.826 111.681V110.601L144.937 109.721V110.778Z" fill="white"/>
<path d="M136.711 112.956L122.826 113.55V112.47L136.711 111.887V112.956Z" fill="white"/>
<path d="M91.4894 109.098L24.8643 111.573V107.956L91.4894 105.704V109.098Z" fill="white"/>
<path d="M121.142 107.996L111.637 108.35V105.024L121.142 104.698V107.996Z" fill="white"/>
<path d="M110.17 108.401L100.447 108.761V105.401L110.17 105.07V108.401Z" fill="white"/>
<path d="M55.3451 114.681L24.8643 115.938V114.133L55.3451 112.927V114.681Z" fill="white"/>
<path d="M121.118 95.1786C119.606 93.5614 123.796 87.4815 126.04 84.8186C127.998 82.4929 130.013 80.0986 132.485 80.4015C134.655 80.6701 136.773 82.9615 136.898 85.1558C137.241 91.07 123.271 97.4814 121.118 95.1786Z" fill="url(#paint7_linear_270_5615)"/>
<path d="M139.301 157.641C139.587 157.875 139.638 158.453 139.672 158.83C139.69 159.001 139.695 159.081 139.678 159.144C139.541 159.578 138.696 159.624 137.372 159.761C135.282 159.973 134.66 160.138 134.494 159.83C134.34 159.538 134.711 159.058 134.751 159.007C134.974 158.721 135.254 158.618 135.785 158.447C136.772 158.121 137.44 157.944 137.64 157.893C138.902 157.55 139.113 157.487 139.301 157.641Z" fill="url(#paint8_linear_270_5615)"/>
<path d="M138.057 155.727L137.846 158.115C137.903 158.23 138.616 158.578 139.176 158.281L139.712 155.938L138.057 155.727Z" fill="#D8DEE8"/>
<path d="M122.71 157.333C123.053 157.71 123.127 158.407 122.83 158.75C122.539 159.087 122.1 158.835 120.855 158.87C119.519 158.91 119.171 159.224 118.269 158.973C117.903 158.87 117.258 158.624 117.27 158.361C117.281 158.178 117.607 158.081 118.708 157.715C120.267 157.19 120.261 157.161 120.592 157.11C121.426 156.973 122.259 156.835 122.71 157.333Z" fill="url(#paint9_linear_270_5615)"/>
<path d="M121.854 155.156L121.187 157.384C121.238 157.504 121.917 157.904 122.5 157.647L123.493 155.487L121.854 155.156Z" fill="#D8DEE8"/>
<path d="M127.798 106.378C127.701 113.864 127.193 122.281 125.966 131.424C124.755 140.458 123.06 148.624 121.21 155.807C122.066 156.035 122.917 156.264 123.768 156.498C125.931 154.475 128.666 151.298 129.985 146.801C130.801 144.013 130.533 142.578 131.047 139.144C131.875 133.681 133.547 130.818 135.277 126.413C136.83 122.453 138.668 116.641 139.656 108.876C135.705 108.041 131.755 107.207 127.798 106.378Z" fill="url(#paint10_linear_270_5615)"/>
<path d="M135.505 105.664C136.03 115.184 136.458 124.881 136.784 134.75C137.029 142.155 137.206 149.47 137.326 156.681C138.199 156.79 139.067 156.898 139.941 157.007C140.786 155.435 141.905 153.035 142.67 149.961C143.6 146.224 143.383 144.007 143.794 140.133C144.251 135.79 144.919 134.841 146.095 129.367C148.487 118.247 149.686 112.687 147.014 109.23C146.147 108.104 143.429 105.287 135.505 105.664Z" fill="url(#paint11_linear_270_5615)"/>
<path d="M148.214 81.7385C146.17 81.1614 143.178 80.4928 139.513 80.2871C134.284 79.99 131.675 79.8414 129.819 81.0871C125.543 83.9671 128.854 90.6071 127.102 107.07C126.85 109.418 126.793 111.79 126.616 114.144C126.314 118.047 126.251 118.258 126.519 118.653C128.221 121.133 134.569 117.39 143.875 118.87C149.082 119.698 151.439 121.601 152.867 120.23C154.528 118.624 153.101 114.316 151.873 110.601C150.463 106.338 149.595 106.287 148.79 103.076C147.951 99.7213 148.459 97.9956 148.591 92.7042C148.653 90.1728 148.642 86.4071 148.214 81.7385Z" fill="url(#paint12_linear_270_5615)"/>
<g opacity="0.3">
<path opacity="0.3" d="M135.556 112.647C137.989 112.458 139.564 113.83 141.665 112.761C144.543 111.293 145.467 106.716 145.285 103.476C145.005 98.5556 142.202 97.2585 142.681 94.0756C142.944 92.3556 144.172 90.0699 148.573 87.7385C148.63 89.7042 148.619 91.3728 148.59 92.7042C148.459 97.9956 147.957 99.7213 148.79 103.076C149.589 106.287 150.463 106.338 151.873 110.601C153.101 114.316 154.528 118.624 152.866 120.23C151.439 121.607 149.081 119.698 143.875 118.87C135.859 117.596 130.042 120.196 127.495 119.35C130.567 114.264 133.358 112.818 135.556 112.647Z" fill="url(#paint13_linear_270_5615)"/>
</g>
<path d="M144.891 82.0757C146.627 80.6472 150.121 82.2643 151.051 82.6986C156.258 85.11 160.934 91.6014 159.775 98.4642C159.604 99.4928 158.799 104.31 154.722 106.641C151.046 108.744 146.085 108.207 142.105 105.224C141.563 104.744 141.021 104.259 140.472 103.779C139.936 103.201 139.405 102.624 138.868 102.041C139.707 101.344 141.135 100.333 143.144 99.6871C145.788 98.8357 147.712 100.367 148.939 99.2014C149.784 98.3957 149.79 96.9785 149.578 96.1157C149.156 94.3785 147.632 93.8928 146.353 92.6643C143.367 89.7671 142.813 83.7843 144.891 82.0757Z" fill="url(#paint14_linear_270_5615)"/>
<path d="M119.937 104.482L143.213 104.133L137.024 107.127L119.874 106.002L119.937 104.482Z" fill="url(#paint15_linear_270_5615)"/>
<path d="M144.035 104.756C144.035 105.19 143.761 105.578 143.356 105.733L135.917 108.653L135.883 106.63L143.213 104.138C143.624 104.018 144.035 104.327 144.035 104.756Z" fill="url(#paint16_linear_270_5615)"/>
<path d="M140.449 103.373C140.592 103.339 139.753 101.67 139.096 101.859C138.44 102.053 135.214 103.921 134.923 104.687C134.632 105.459 134.632 105.459 134.632 105.459C134.632 105.459 136.036 105.567 136.91 105.276C137.778 104.99 139.29 103.636 140.449 103.373Z" fill="white"/>
<path d="M135.267 92.4242L136.905 107.378C136.962 107.893 136.243 108.664 135.723 108.641L111.654 107.161C111.26 107.144 110.929 106.853 110.86 106.458L107.84 92.0128C107.749 91.487 108.696 90.9442 109.227 90.9613L134.456 91.6699C134.873 91.687 135.221 92.007 135.267 92.4242Z" fill="url(#paint17_linear_270_5615)"/>
<path d="M134.712 92.8642L136.35 107.818C136.407 108.333 135.991 108.778 135.471 108.756L111.093 107.601C110.699 107.584 110.368 107.293 110.3 106.898L107.81 92.3899C107.719 91.8642 108.136 91.3899 108.667 91.4013L133.895 92.1099C134.318 92.1213 134.666 92.4413 134.712 92.8642Z" fill="url(#paint18_linear_270_5615)"/>
<path opacity="0.3" d="M120.399 104.093C122.529 103.19 121.775 101.47 124.287 99.3212C127.604 96.4926 130.984 97.7155 132.165 95.5269C132.537 94.8412 132.708 93.7784 132.068 92.0583L133.895 92.1098C134.318 92.1212 134.666 92.4412 134.712 92.8641L136.35 107.818C136.407 108.333 135.991 108.778 135.471 108.756L111.093 107.601C110.699 107.584 110.368 107.293 110.3 106.898L109.957 104.898C110.699 104.487 111.578 104.11 112.612 103.904C116.197 103.173 117.95 105.133 120.399 104.093Z" fill="url(#paint19_linear_270_5615)"/>
<path d="M109.563 105.504C109.523 105.384 109.608 105.258 109.734 105.253C110.248 105.224 111.447 105.218 112.103 105.618C112.96 106.144 114.067 107.104 113.137 107.584L112.263 108.036C112.223 108.058 112.178 108.064 112.138 108.053C111.829 107.984 110.528 107.693 110.385 107.624C110.254 107.567 109.757 106.087 109.563 105.504Z" fill="#D8DEE8"/>
<path d="M139.119 74.5671C139.108 76.1157 139.279 77.35 139.445 78.19C139.633 79.1557 139.764 79.4071 139.941 79.6071C140.198 79.91 140.592 80.1671 142.813 80.7157C144.023 81.0128 144.177 81.0071 144.206 81.1271C144.337 81.71 141.043 83.7099 137.635 83.2242C135.551 82.9271 133.656 81.7385 133.77 81.1157C133.89 80.4871 135.968 80.8242 136.59 79.6871C137.024 78.8985 136.539 77.7728 135.968 76.8414C136.522 75.8128 138.571 75.6071 139.119 74.5671Z" fill="white"/>
<path d="M135.254 75.1843C134.763 74.5328 134.735 73.39 135.3 72.67C135.785 72.0471 136.556 71.9614 137.013 71.91C138.343 71.7557 140.021 72.31 140.61 73.5386C140.958 74.2643 140.204 75.7728 140.09 76.0471C139.959 76.3557 139.719 76.4585 139.496 76.6928C139.188 77.0128 138.703 77.5271 137.915 78.3842C137.852 78.1328 137.761 77.8185 137.612 77.4814C137.555 77.35 137.327 76.8414 136.979 76.4185C136.282 75.5614 135.723 75.8014 135.254 75.1843Z" fill="url(#paint20_linear_270_5615)"/>
<path d="M139.04 77.6528C139.04 77.6528 138.167 79.0871 136.426 78.9785C134.867 78.8757 134.639 75.3785 135.632 74.6357C135.963 74.3899 136.631 74.2871 137.174 74.4357C137.493 74.5271 137.602 74.6585 138.127 74.7957C138.612 74.9214 138.749 74.8699 138.892 74.9899C139.075 75.1442 139.212 75.5214 138.903 76.5442C139.2 76.2414 139.56 76.1271 139.811 76.2471C139.851 76.2642 139.96 76.3385 140.017 76.4471C140.234 76.8471 139.868 77.3557 139.04 77.6528Z" fill="white"/>
<path d="M138.96 74.7786C138.885 74.8358 139.114 75.1158 139.131 75.5158C139.165 76.2872 138.383 77.2129 137.589 77.2929C137.121 77.3386 136.99 77.0529 136.214 76.9729C135.734 76.9215 135.329 76.9843 135.077 77.0358C134.832 77.8815 135.06 78.7272 135.626 79.1158C136.236 79.5386 137.013 79.2815 137.338 79.1729C137.555 79.0986 138.252 78.8758 138.617 78.2358C138.994 77.5672 138.623 77.1672 139.057 76.7158C139.274 76.4872 139.565 76.3901 139.844 75.9501C139.919 75.8301 139.97 75.7272 140.004 75.6529C139.599 75.2301 139.068 74.6929 138.96 74.7786Z" fill="url(#paint21_linear_270_5615)"/>
<path d="M135.643 77.3442C135.643 77.3442 135.98 77.5214 136.562 77.4871C136.59 77.4871 136.619 77.4928 136.625 77.5099C136.636 77.5671 136.265 77.8128 135.922 77.7157C135.677 77.6471 135.489 77.4128 135.523 77.3557C135.529 77.3328 135.586 77.3385 135.643 77.3442Z" fill="white"/>
<path d="M141.957 35.4645L141.717 60.7101C141.677 64.6701 138.457 67.8244 134.501 67.8244H80.9839C76.7249 67.8244 73.3223 64.5273 73.3965 60.3959L73.4422 57.8416L73.4536 57.333L73.8818 34.0302C73.9503 30.1102 77.1645 26.9902 81.1437 26.8131C81.3264 26.8074 81.5148 26.8074 81.6975 26.8074L81.766 26.8131L134.912 28.1788C138.846 28.2759 141.991 31.5388 141.957 35.4645Z" fill="url(#paint22_linear_270_5615)"/>
<path d="M86.128 67.8245H59.5521C58.9926 67.8245 58.7814 67.1845 59.2495 66.8816L72.6202 58.3617L73.4423 57.8531L77.4844 55.276L78.0667 54.8474L86.128 67.8245Z" fill="url(#paint23_linear_270_5615)"/>
<path d="M141.141 35.4646L140.901 60.7673C140.861 64.693 137.698 67.8244 133.787 67.8759C133.753 67.8759 133.719 67.8187 133.685 67.8187H80.1676C75.9086 67.8187 72.506 64.5216 72.5802 60.3902L72.6202 58.3616L72.6259 57.853L73.0655 34.0246C73.1397 29.9217 76.6508 26.6932 80.8812 26.8017L81.1381 26.8074L81.9317 26.8303L134.101 28.1732C138.035 28.276 141.181 31.5389 141.141 35.4646Z" fill="url(#paint24_linear_270_5615)"/>
<path d="M85.3113 67.8245H58.7355C58.1703 67.8245 57.9648 67.1845 58.4329 66.8817L72.62 57.836L73.4421 57.3274L77.2444 54.9045L77.4727 55.2188L85.3113 67.8245Z" fill="url(#paint25_linear_270_5615)"/>
<path d="M100.401 44.7959V42.2188L95.2057 45.2816L91.3407 47.573V49.0873L100.395 53.7901V51.2244L94.041 48.2187L96.2961 47.0016L100.401 44.7959Z" fill="white"/>
<path d="M107.612 40.1673L103.929 51.3559L102.405 55.9844L105.043 56.013L106.424 51.8301L110.289 40.1331L107.612 40.1673Z" fill="white"/>
<path d="M112.276 42.093V44.7159L119.024 48.1673L112.276 51.2473V53.8587L115.416 52.333L122.136 49.0702V47.4816L112.276 42.093Z" fill="white"/>
<path opacity="0.3" d="M133.605 67.9388V67.8245H58.7355C58.1703 67.8245 57.9648 67.1845 58.4329 66.8816L72.62 57.8359L73.0596 34.0189C73.1338 29.916 76.6449 26.6932 80.8753 26.8017L81.1323 26.8132C81.3149 26.8075 81.5034 26.8075 81.686 26.8075L81.7545 26.8132C81.8116 26.8189 81.8687 26.8303 81.9201 26.836C85.8936 27.4703 90.5066 29.5332 91.9339 35.476C92.8816 39.436 93.7094 42.7103 95.1823 45.2817C95.5306 45.8931 95.9131 46.4645 96.347 46.996C97.9969 49.036 100.332 50.4931 103.917 51.356C104.688 51.5445 105.521 51.6988 106.412 51.8302C108.108 52.076 110.037 52.2245 112.23 52.2702C112.743 52.2817 113.269 52.2874 113.817 52.2874C114.353 52.2874 114.776 52.3045 115.267 52.3388C126.48 53.1217 127.165 62.4416 133.605 67.9388Z" fill="url(#paint26_linear_270_5615)"/>
<path d="M55.1798 150.601C52.4109 147.675 48.8142 142.978 47.4383 136.555C45.6342 128.133 49.2481 124.144 49.6991 110.093C49.9846 101.207 50.0987 95.0013 45.8226 91.4299C42.4771 88.6299 36.8365 87.7727 33.2512 89.9727C30.2711 91.8013 28.3642 95.9556 27.6791 98.9613C27.1196 101.413 27.3423 103.224 25.8408 104.447C24.3051 105.693 22.7807 104.847 21.3592 105.75C18.4818 107.584 19.6864 114.304 19.8805 115.396C22.05 127.481 32.5376 136.167 37.1562 139.898C40.9813 142.973 46.9302 147.138 55.1798 150.601Z" fill="url(#paint27_linear_270_5615)"/>
<g opacity="0.5">
<g opacity="0.5">
<path opacity="0.5" d="M58.3884 153.018L58.5026 152.761C49.762 148.83 38.9375 141.933 37.0193 131.424C36.3113 127.561 36.8765 123.63 37.6587 118.19C38.281 113.847 39.1145 110.83 39.851 108.161C40.8101 104.676 41.5751 101.921 41.3981 97.8528C41.2212 93.7214 40.1136 89.5614 38.0983 85.4814L37.8471 85.6072C39.8453 89.6471 40.9414 93.7729 41.1184 97.8643C41.2897 101.893 40.5361 104.624 39.5827 108.087C38.8462 110.761 38.0069 113.79 37.3789 118.15C36.6253 123.407 36.0259 127.561 36.7395 131.476C37.653 136.476 40.6731 141.144 45.7199 145.35C49.134 148.19 53.393 150.767 58.3884 153.018Z" fill="white"/>
</g>
<g opacity="0.5">
<path opacity="0.5" d="M37.9599 115.139L38.1084 115.081C38.1369 115.07 41.1228 113.956 44.2 111.139C47.0431 108.539 50.5599 103.916 51.1594 96.6473L50.8796 96.6244C50.2859 103.796 46.8147 108.361 44.0116 110.927C41.3626 113.35 38.7935 114.493 38.1598 114.756C36.2415 106.721 32.3022 101.522 29.3278 98.5673C26.0793 95.3445 23.2362 94.0188 23.2076 94.0073L23.0878 94.2645C23.1163 94.2759 25.9252 95.5845 29.1394 98.7787C32.1081 101.727 36.0417 106.927 37.9257 114.979L37.9599 115.139Z" fill="white"/>
</g>
<g opacity="0.5">
<path opacity="0.5" d="M36.6186 126.915L36.6814 126.835C36.7099 126.795 39.8271 122.784 43.7378 119.378C47.6257 115.99 56.3035 115.247 56.3892 115.241L56.3663 114.961C56.2807 114.967 47.5058 115.715 43.5551 119.167C39.9356 122.327 36.9897 125.995 36.5215 126.584C27.6667 123.264 19.2915 101.556 19.2058 101.338L18.9432 101.441C18.9661 101.498 21.0956 107.047 24.3041 112.921C28.6258 120.83 32.7364 125.527 36.5215 126.887L36.6186 126.915Z" fill="white"/>
</g>
<g opacity="0.5">
<path opacity="0.5" d="M44.4176 144.201L44.292 143.95C42.2253 139.807 42.8076 135.619 46.0333 131.499C48.4482 128.413 51.514 126.533 51.5483 126.516L51.3998 126.276C51.3713 126.293 48.2598 128.196 45.8163 131.321C42.6307 135.39 41.9798 139.704 43.9209 143.819C42.8933 143.607 39.0796 142.75 34.3639 140.779C29.2828 138.659 22.0722 134.779 16.6143 128.333L6.00685 115.819L5.7899 116.001L16.3974 128.516C21.8953 135.001 29.1458 138.91 34.2611 141.041C39.799 143.35 44.1036 144.139 44.1436 144.15L44.4176 144.201Z" fill="white"/>
</g>
</g>
<path d="M46.347 152.95C40.0499 153.795 31.903 153.973 23.7676 151.464C21.6894 150.824 8.86113 146.875 9.59189 141.161C9.8488 139.15 11.5729 138.618 11.9612 135.933C12.4236 132.75 10.2998 131.464 8.47862 127.801C7.3939 125.618 4.20823 119.224 7.74215 115.013C9.85451 112.499 14.2676 110.87 17.8301 111.241C23.0539 111.784 25.4289 116.504 29.3054 124.567C32.7422 131.716 32.3369 133.624 34.9003 138.727C36.8014 142.515 40.1298 147.635 46.347 152.95Z" fill="url(#paint28_linear_270_5615)"/>
<g opacity="0.5">
<g opacity="0.5">
<path opacity="0.5" d="M57.7193 154.681C62.9717 154.681 68.2926 153.596 73.5963 151.43L73.4879 151.167C66.8196 153.881 60.1286 154.893 53.5917 154.167C30.2072 151.573 18.692 126.83 15.7233 119.31C14.0391 115.041 13.6337 110.133 14.5243 104.71L14.2446 104.664C13.3426 110.133 13.7536 115.099 15.4606 119.413C17.9041 125.601 22.3629 134.561 29.6991 142.076C36.767 149.316 44.794 153.481 53.5688 154.453C54.9447 154.607 56.332 154.681 57.7193 154.681Z" fill="white"/>
</g>
<g opacity="0.5">
<path opacity="0.5" d="M21.6152 131.493L21.6837 131.384C21.7008 131.361 23.1909 128.927 24.19 125.378C25.1149 122.099 25.8057 117.156 23.8303 112.264L23.5677 112.373C25.5145 117.19 24.8351 122.059 23.9217 125.293C23.0482 128.39 21.8036 130.618 21.5067 131.127C7.0456 124.127 5.9152 114.167 5.9152 111.276C5.9152 111.184 5.9152 111.156 5.90949 111.133L5.62975 111.167C5.62975 111.184 5.62975 111.219 5.62975 111.276C5.62975 114.219 6.77727 124.361 21.4953 131.436L21.6152 131.493Z" fill="white"/>
</g>
<g opacity="0.5">
<path opacity="0.5" d="M21.0046 143.276C23.5052 143.276 26.4111 142.921 29.7224 141.996L29.7966 141.973L29.8194 141.899C29.848 141.819 32.4684 133.613 30.3389 123.19L28.1923 112.681L27.9183 112.739L30.0649 123.247C32.0745 133.087 29.8251 140.916 29.5739 141.744C21.5869 143.961 16.0262 142.819 12.7606 141.464C9.21529 139.996 7.54253 137.967 7.5254 137.95L7.30846 138.127C7.37697 138.213 9.0326 140.219 12.635 141.721C14.599 142.533 17.3793 143.276 21.0046 143.276Z" fill="white"/>
</g>
</g>
<path d="M54.5339 105.687L58.8956 154.699C58.9641 155.442 58.4446 156.099 57.7481 156.167L34.141 158.596C32.7308 158.67 31.9829 157.904 31.9201 157.133L27.7297 106.247C27.6669 105.499 28.3691 104.79 29.7621 104.739L53.1523 104.396C53.8488 104.379 54.4711 104.962 54.5339 105.687Z" fill="url(#paint29_linear_270_5615)"/>
<path d="M55.6069 105.562L60.0087 154.864C60.0772 155.613 59.5576 156.276 58.8554 156.339L34.3577 158.602C33.6041 158.67 32.9361 158.093 32.8733 157.316L28.6486 106.122C28.5858 105.367 29.1453 104.739 29.8932 104.722L54.2196 104.259C54.9219 104.253 55.5384 104.836 55.6069 105.562Z" fill="url(#paint30_linear_270_5615)"/>
<path d="M55.0592 108.281L59.1298 153.979C59.1926 154.676 58.7073 155.293 58.0508 155.356L35.0203 157.447C34.3238 157.51 33.7015 156.973 33.6387 156.247L29.7223 108.904C29.6652 108.201 30.1847 107.607 30.8812 107.596L53.7632 107.07C54.4198 107.059 55.0021 107.601 55.0592 108.281Z" fill="white"/>
<path d="M55.0584 108.281C54.9956 107.601 54.419 107.059 53.7682 107.07L30.8861 107.601C30.1896 107.619 29.6701 108.207 29.7272 108.91L30.2867 115.687L55.6636 115.076L55.0584 108.281Z" fill="url(#paint31_linear_270_5615)"/>
<path d="M42.8416 105.979C42.8645 106.236 42.6818 106.447 42.4306 106.453C42.1794 106.459 41.9625 106.253 41.9396 105.996C41.9168 105.739 42.0995 105.527 42.3507 105.521C42.6019 105.521 42.8188 105.721 42.8416 105.979Z" fill="url(#paint32_linear_270_5615)"/>
<path d="M46.0107 133.841L34.5582 134.407L32.9768 118.207L44.4921 117.91L46.0107 133.841Z" fill="url(#paint33_linear_270_5615)"/>
<path d="M54.5 133.419L47.7747 133.75L46.2675 117.864L53.0328 117.693L54.5 133.419Z" fill="url(#paint34_linear_270_5615)"/>
<path d="M55.6877 146.093L35.8315 147.459L34.7639 136.51L54.6943 135.464L55.6877 146.093Z" fill="url(#paint35_linear_270_5615)"/>
<path d="M56.304 152.71L36.4935 154.27L36.0196 149.367L55.8587 147.944L56.304 152.71Z" fill="url(#paint36_linear_270_5615)"/>
<g opacity="0.48">
<path opacity="0.48" d="M49.7208 139.407C47.3458 131.104 40.4207 131.933 38.3483 124.43C36.647 118.264 40.5692 115.019 38.1885 109.859C37.0695 107.43 35.1113 105.79 33.0788 104.67L29.8932 104.733C29.1453 104.744 28.5858 105.379 28.6486 106.133L32.8733 157.327C32.9361 158.104 33.6041 158.682 34.3577 158.613L54.4422 156.756C53.1577 155.127 51.9417 153.127 51.091 150.733C49.3041 145.653 51.0339 144.002 49.7208 139.407Z" fill="white"/>
</g>
<defs>
<linearGradient id="paint0_linear_270_5615" x1="25.0205" y1="85.4934" x2="48.8893" y2="83.0019" gradientUnits="userSpaceOnUse">
<stop offset="0.003597" stop-color="#26264F"/>
<stop offset="1" stop-color="#444B8C"/>
</linearGradient>
<linearGradient id="paint1_linear_270_5615" x1="75.8999" y1="158.478" x2="80.9631" y2="151.232" gradientUnits="userSpaceOnUse">
<stop stop-color="#444B8C"/>
<stop offset="0.9964" stop-color="#26264F"/>
</linearGradient>
<linearGradient id="paint2_linear_270_5615" x1="91.2087" y1="156.62" x2="83.4555" y2="114.569" gradientUnits="userSpaceOnUse">
<stop stop-color="#444B8C"/>
<stop offset="0.9964" stop-color="#26264F"/>
</linearGradient>
<linearGradient id="paint3_linear_270_5615" x1="110.302" y1="40.5298" x2="149.08" y2="-14.7658" gradientUnits="userSpaceOnUse">
<stop stop-color="#444B8C"/>
<stop offset="0.9964" stop-color="#26264F"/>
</linearGradient>
<linearGradient id="paint4_linear_270_5615" x1="93.4798" y1="47.0992" x2="44.9521" y2="201.09" gradientUnits="userSpaceOnUse">
<stop stop-color="#444B8C"/>
<stop offset="0.9964" stop-color="#26264F"/>
</linearGradient>
<linearGradient id="paint5_linear_270_5615" x1="96.1056" y1="56.5269" x2="50.6201" y2="150.232" gradientUnits="userSpaceOnUse">
<stop offset="0.00359712" stop-color="#E38DDD"/>
<stop offset="1" stop-color="#9571F6"/>
</linearGradient>
<linearGradient id="paint6_linear_270_5615" x1="84.1121" y1="45.3825" x2="81.4273" y2="67.5868" gradientUnits="userSpaceOnUse">
<stop stop-color="#FF9085"/>
<stop offset="1" stop-color="#FB6FBB"/>
</linearGradient>
<linearGradient id="paint7_linear_270_5615" x1="125.006" y1="71.2373" x2="142.439" y2="154.744" gradientUnits="userSpaceOnUse">
<stop stop-color="#FFC444"/>
<stop offset="0.9964" stop-color="#F36F56"/>
</linearGradient>
<linearGradient id="paint8_linear_270_5615" x1="134.482" y1="158.709" x2="139.692" y2="158.859" gradientUnits="userSpaceOnUse">
<stop stop-color="#444B8C"/>
<stop offset="0.9964" stop-color="#26264F"/>
</linearGradient>
<linearGradient id="paint9_linear_270_5615" x1="117.565" y1="157.273" x2="122.905" y2="158.74" gradientUnits="userSpaceOnUse">
<stop stop-color="#444B8C"/>
<stop offset="0.9964" stop-color="#26264F"/>
</linearGradient>
<linearGradient id="paint10_linear_270_5615" x1="119.385" y1="148.252" x2="134.176" y2="114.939" gradientUnits="userSpaceOnUse">
<stop stop-color="#AA80F9"/>
<stop offset="0.9964" stop-color="#6165D7"/>
</linearGradient>
<linearGradient id="paint11_linear_270_5615" x1="126.637" y1="149.831" x2="145.398" y2="118.584" gradientUnits="userSpaceOnUse">
<stop stop-color="#AA80F9"/>
<stop offset="0.9964" stop-color="#6165D7"/>
</linearGradient>
<linearGradient id="paint12_linear_270_5615" x1="131.031" y1="69.9793" x2="148.465" y2="153.486" gradientUnits="userSpaceOnUse">
<stop stop-color="#FFC444"/>
<stop offset="0.9964" stop-color="#F36F56"/>
</linearGradient>
<linearGradient id="paint13_linear_270_5615" x1="145.997" y1="141.403" x2="139.381" y2="110.004" gradientUnits="userSpaceOnUse">
<stop stop-color="#FFC444"/>
<stop offset="0.9964" stop-color="#F36F56"/>
</linearGradient>
<linearGradient id="paint14_linear_270_5615" x1="142.953" y1="67.4906" x2="160.386" y2="150.998" gradientUnits="userSpaceOnUse">
<stop stop-color="#FFC444"/>
<stop offset="0.9964" stop-color="#F36F56"/>
</linearGradient>
<linearGradient id="paint15_linear_270_5615" x1="128.116" y1="114.116" x2="130.937" y2="106.131" gradientUnits="userSpaceOnUse">
<stop stop-color="#311944"/>
<stop offset="1" stop-color="#893976"/>
</linearGradient>
<linearGradient id="paint16_linear_270_5615" x1="140.419" y1="102.545" x2="139.384" y2="109.685" gradientUnits="userSpaceOnUse">
<stop stop-color="#311944"/>
<stop offset="1" stop-color="#893976"/>
</linearGradient>
<linearGradient id="paint17_linear_270_5615" x1="119.96" y1="103.17" x2="125.457" y2="95.3717" gradientUnits="userSpaceOnUse">
<stop stop-color="#444B8C"/>
<stop offset="0.9964" stop-color="#26264F"/>
</linearGradient>
<linearGradient id="paint18_linear_270_5615" x1="130.49" y1="116.085" x2="118.457" y2="91.6651" gradientUnits="userSpaceOnUse">
<stop stop-color="#311944"/>
<stop offset="1" stop-color="#893976"/>
</linearGradient>
<linearGradient id="paint19_linear_270_5615" x1="136.36" y1="100.406" x2="109.963" y2="100.406" gradientUnits="userSpaceOnUse">
<stop stop-color="#311944"/>
<stop offset="1" stop-color="#893976"/>
</linearGradient>
<linearGradient id="paint20_linear_270_5615" x1="141.05" y1="82.4524" x2="137.14" y2="72.4209" gradientUnits="userSpaceOnUse">
<stop stop-color="#311944"/>
<stop offset="1" stop-color="#6B3976"/>
</linearGradient>
<linearGradient id="paint21_linear_270_5615" x1="139.844" y1="82.9278" x2="135.93" y2="72.8861" gradientUnits="userSpaceOnUse">
<stop stop-color="#311944"/>
<stop offset="1" stop-color="#6B3976"/>
</linearGradient>
<linearGradient id="paint22_linear_270_5615" x1="132.408" y1="14.831" x2="84.5595" y2="78.0308" gradientUnits="userSpaceOnUse">
<stop stop-color="#311944"/>
<stop offset="1" stop-color="#893976"/>
</linearGradient>
<linearGradient id="paint23_linear_270_5615" x1="119.624" y1="5.21242" x2="71.8012" y2="68.3793" gradientUnits="userSpaceOnUse">
<stop stop-color="#311944"/>
<stop offset="1" stop-color="#893976"/>
</linearGradient>
<linearGradient id="paint24_linear_270_5615" x1="131.609" y1="14.8417" x2="83.7611" y2="78.0411" gradientUnits="userSpaceOnUse">
<stop offset="0.00359712" stop-color="#E38DDD"/>
<stop offset="1" stop-color="#9571F6"/>
</linearGradient>
<linearGradient id="paint25_linear_270_5615" x1="118.707" y1="5.34945" x2="70.9791" y2="68.3902" gradientUnits="userSpaceOnUse">
<stop offset="0.00359712" stop-color="#E38DDD"/>
<stop offset="1" stop-color="#9571F6"/>
</linearGradient>
<linearGradient id="paint26_linear_270_5615" x1="107.99" y1="43.6801" x2="78.3475" y2="82.8325" gradientUnits="userSpaceOnUse">
<stop offset="0.00359712" stop-color="#E38DDD"/>
<stop offset="1" stop-color="#9571F6"/>
</linearGradient>
<linearGradient id="paint27_linear_270_5615" x1="19.4694" y1="119.659" x2="55.177" y2="119.659" gradientUnits="userSpaceOnUse">
<stop stop-color="#FFC444"/>
<stop offset="0.9964" stop-color="#F36F56"/>
</linearGradient>
<linearGradient id="paint28_linear_270_5615" x1="33.4604" y1="116.185" x2="22.9517" y2="144.367" gradientUnits="userSpaceOnUse">
<stop stop-color="#AA80F9"/>
<stop offset="0.9964" stop-color="#6165D7"/>
</linearGradient>
<linearGradient id="paint29_linear_270_5615" x1="26.8074" y1="130.873" x2="59.7493" y2="132.098" gradientUnits="userSpaceOnUse">
<stop stop-color="#444B8C"/>
<stop offset="0.9964" stop-color="#26264F"/>
</linearGradient>
<linearGradient id="paint30_linear_270_5615" x1="40.7913" y1="139.308" x2="45.8203" y2="126.837" gradientUnits="userSpaceOnUse">
<stop stop-color="#444B8C"/>
<stop offset="0.9964" stop-color="#26264F"/>
</linearGradient>
<linearGradient id="paint31_linear_270_5615" x1="36.01" y1="121.453" x2="53.1755" y2="96.5703" gradientUnits="userSpaceOnUse">
<stop stop-color="#FF9085"/>
<stop offset="1" stop-color="#FB6FBB"/>
</linearGradient>
<linearGradient id="paint32_linear_270_5615" x1="43.1561" y1="104.131" x2="12.3243" y2="178.875" gradientUnits="userSpaceOnUse">
<stop stop-color="#FFC444"/>
<stop offset="0.9964" stop-color="#F36F56"/>
</linearGradient>
<linearGradient id="paint33_linear_270_5615" x1="36.8008" y1="121.302" x2="50.8083" y2="150.422" gradientUnits="userSpaceOnUse">
<stop offset="0.00359712" stop-color="#E38DDD"/>
<stop offset="1" stop-color="#9571F6"/>
</linearGradient>
<linearGradient id="paint34_linear_270_5615" x1="42.5275" y1="111.682" x2="58.6512" y2="145.201" gradientUnits="userSpaceOnUse">
<stop offset="0.00359712" stop-color="#E38DDD"/>
<stop offset="1" stop-color="#9571F6"/>
</linearGradient>
<linearGradient id="paint35_linear_270_5615" x1="38.3143" y1="129.073" x2="49.4742" y2="152.273" gradientUnits="userSpaceOnUse">
<stop offset="0.00359712" stop-color="#E38DDD"/>
<stop offset="1" stop-color="#9571F6"/>
</linearGradient>
<linearGradient id="paint36_linear_270_5615" x1="41.5624" y1="142.879" x2="49.004" y2="158.349" gradientUnits="userSpaceOnUse">
<stop offset="0.00359712" stop-color="#E38DDD"/>
<stop offset="1" stop-color="#9571F6"/>
</linearGradient>
</defs>
</svg>
