<svg width="12" height="18" viewBox="0 0 12 18" fill="none" xmlns="http://www.w3.org/2000/svg">
<path d="M9.28813 15.2788C9.12574 15.2537 9.00315 15.2363 8.90337 15.2222C8.59684 15.1787 8.51452 15.167 8.15618 15.0554C8.01495 15.0115 7.4625 14.4542 7.4625 13.3637C7.4625 11.9588 7.79608 10.7181 7.9394 10.2499C7.94319 10.2377 7.95253 10.2024 7.96547 10.1545C7.98917 10.0666 8.16309 9.53573 8.16309 9.53573C8.25737 9.26568 8.35496 8.98634 8.41835 8.69941L8.42175 8.68472C8.51744 8.26926 8.83157 6.75065 8.85385 4.65005C8.85385 4.43809 8.67764 4.25366 8.57242 4.14352C8.55315 4.12329 8.53607 4.10558 8.52333 4.09069C8.42199 3.97286 8.2886 3.82741 8.13409 3.65908C8.03232 3.54807 7.92023 3.42576 7.79944 3.29198C7.6062 3.07827 7.39074 2.88275 7.18228 2.69375C6.92595 2.46145 6.66106 2.22122 6.44336 1.9504C6.118 1.54579 5.8172 0.83761 5.87164 0.266865C5.87991 0.180757 5.85982 0.106373 5.81511 0.0572381C5.76549 0.00260577 5.68765 -0.0144212 5.61911 0.012676C5.55046 -0.0144212 5.47258 0.00260577 5.42305 0.0572381C5.37839 0.106373 5.3582 0.180757 5.36657 0.266865C5.42091 0.83761 5.12012 1.54579 4.79485 1.9504C4.57705 2.22122 4.31216 2.46145 4.05583 2.69375C3.84747 2.88275 3.63186 3.07827 3.43873 3.29198C3.31798 3.42576 3.20575 3.54807 3.10402 3.65908C2.94947 3.82741 2.81617 3.97286 2.71474 4.09069C2.70199 4.10558 2.68506 4.12329 2.66575 4.14352C2.56052 4.25366 2.38427 4.43809 2.38427 4.65112C2.4066 6.75065 2.72072 8.26926 2.81641 8.68472L2.81977 8.69941C2.88316 8.98634 2.9808 9.26573 3.07498 9.53573C3.07498 9.53573 3.24885 10.0666 3.27254 10.1545C3.28553 10.2024 3.29492 10.2377 3.29871 10.2499C3.44198 10.7181 3.77552 11.9588 3.77552 13.3637C3.77552 14.4543 3.22311 15.0115 3.08194 15.0554C2.72359 15.167 2.64123 15.1787 2.33465 15.2222C2.23487 15.2363 2.11237 15.2537 1.94998 15.2788C0.190021 15.4661 0 16.3398 0 16.7068C0 16.8052 0.050935 17.1248 0.283232 17.4195C0.491983 17.6842 0.907734 18 1.70353 18C1.82291 18 1.9492 17.9929 2.079 17.9789C2.60863 17.922 3.14241 17.8364 3.65852 17.7538C3.84601 17.7238 4.03316 17.6938 4.22065 17.6651C4.47042 17.6268 4.92056 17.6014 5.55839 17.5897C5.58826 17.5891 5.60904 17.5887 5.61911 17.5884C5.62918 17.5887 5.64995 17.5892 5.67972 17.5897C6.31765 17.6014 6.76775 17.6268 7.01756 17.6651C7.20495 17.6938 7.39215 17.7238 7.5796 17.7538C8.09576 17.8364 8.62958 17.922 9.15912 17.9789C9.28891 17.9928 9.4152 18 9.53459 18C10.3305 18 10.7464 17.6844 10.955 17.4195C11.1873 17.1249 11.2381 16.8051 11.2381 16.7068C11.238 16.3398 11.0481 15.4661 9.28813 15.2788ZM6.5497 8.12609C6.52348 8.12609 6.49862 8.1204 6.47347 8.10848C6.3916 8.07584 6.28661 7.91943 6.27683 7.85872C6.68461 7.575 6.9601 7.03607 6.9601 6.4175C6.9601 5.50403 6.86368 4.76345 5.61901 4.76345C4.37433 4.76345 4.27791 5.50403 4.27791 6.4175C4.27791 7.03607 4.55341 7.575 4.96113 7.85872C4.95155 7.91929 4.84418 8.06825 4.76454 8.10848C4.73944 8.1204 4.71463 8.12609 4.68831 8.12609C4.42624 8.12619 4.09777 7.55218 4.01151 7.32378C3.86455 6.93571 3.68109 6.26869 3.64174 5.29528L3.64013 5.25782C3.63006 5.05277 3.93893 4.52838 3.97984 4.43867C4.03608 4.31516 4.76571 3.203 4.98239 2.93952C5.05911 2.84636 5.44777 2.33029 5.61906 2.10252C5.7903 2.33029 6.17891 2.84636 6.25558 2.93952C6.4724 3.203 7.20184 4.31516 7.25817 4.43867C7.29914 4.52838 7.60801 5.05277 7.59798 5.25782L7.59638 5.29528C7.55697 6.26874 7.37362 6.93576 7.2265 7.32378C7.14025 7.55214 6.81187 8.12609 6.5497 8.12609Z" fill="#DED9E2"/>
</svg>
