<svg width="36" height="36" viewBox="0 0 36 36" fill="none" xmlns="http://www.w3.org/2000/svg">
<circle cx="18" cy="18" r="18" fill="#EEA4C9"/>
<path d="M15.4555 17.7842C15.9714 17.7842 16.4565 17.7806 16.9382 17.7842C17.2081 17.7877 17.355 17.9061 17.3823 18.1321C17.413 18.4155 17.2559 18.6056 16.9621 18.6092C16.4087 18.6164 15.8586 18.6128 15.3052 18.6128C15.1446 18.6128 14.9875 18.62 14.8269 18.6092C14.6288 18.5984 14.4341 18.5554 14.3384 18.3402C14.2427 18.1249 14.3111 17.9312 14.4409 17.7555C14.967 17.0524 15.4965 16.3457 16.026 15.6427C16.0568 15.5996 16.0875 15.5566 16.1183 15.5171C16.0841 15.4561 16.0363 15.4848 15.9953 15.4812C15.6263 15.4777 15.254 15.4812 14.885 15.4777C14.7996 15.4777 14.7142 15.4669 14.6322 15.449C14.4375 15.4023 14.3179 15.1979 14.3623 14.997C14.3931 14.8607 14.4955 14.7495 14.6254 14.7172C14.7074 14.6957 14.7928 14.6849 14.8782 14.6849C15.4863 14.6813 16.0978 14.6813 16.7059 14.6849C16.8152 14.6813 16.9211 14.6957 17.027 14.7244C17.2593 14.8069 17.3584 15.0329 17.2661 15.2696C17.1841 15.4741 17.0543 15.6498 16.9245 15.8256C16.477 16.4246 16.0294 17.0201 15.5819 17.612C15.5443 17.6586 15.5102 17.7052 15.4555 17.7842Z" fill="#F6F6F6"/>
<path fill-rule="evenodd" clip-rule="evenodd" d="M12.9434 23.7029C12.8716 23.7675 12.916 23.7997 12.9775 23.8284C13.8487 24.0078 14.6993 23.8858 15.5329 23.6132C15.8164 23.5235 16.1 23.4339 16.387 23.3585C16.5817 23.3083 16.7867 23.3155 16.9745 23.3872C19.1439 24.1692 21.2825 24.1011 23.3835 23.129C24.2409 22.7308 25.0233 22.1676 25.686 21.4681C25.6942 21.4595 25.7018 21.4499 25.7095 21.4401C25.7338 21.4093 25.7589 21.3776 25.8056 21.3749C25.8283 21.4147 25.8249 21.4545 25.8216 21.4929C25.8204 21.5064 25.8192 21.5197 25.8192 21.5327V23.6527C25.8192 24.8472 24.8934 25.8157 23.7524 25.8157C22.9325 25.8205 22.1126 25.8189 21.2927 25.8173C20.8828 25.8165 20.4728 25.8157 20.0628 25.8157H15.1298C15.0614 25.8157 14.9931 25.8121 14.9248 25.8085C14.6571 25.8095 14.3896 25.8129 14.1224 25.8163C13.4552 25.8247 12.7893 25.8331 12.1235 25.8049C11.02 25.7619 10.1762 24.7898 10.1762 23.6276C10.1762 22.379 10.1769 21.1308 10.1777 19.8829C10.1792 17.3879 10.1807 14.8939 10.1762 12.4C10.1728 11.1194 11.1225 10.2262 12.2225 10.1903C13.0209 10.1679 13.821 10.1732 14.6216 10.1785C14.972 10.1808 15.3225 10.1831 15.673 10.1831C15.6768 10.1831 15.6807 10.1828 15.6847 10.1824C15.702 10.1807 15.7199 10.179 15.731 10.2082C15.7258 10.2572 15.6912 10.2732 15.6569 10.289C15.6459 10.294 15.635 10.299 15.6251 10.3051C14.9487 10.7212 14.3304 11.2198 13.8111 11.8368C12.9502 12.8555 12.3592 14.0285 12.1576 15.3844C11.8023 17.7878 12.5129 19.8217 14.1322 21.5219C14.4226 21.8233 14.4602 22.0636 14.2279 22.4725C13.9512 22.9639 13.531 23.2975 13.0834 23.6025C13.0356 23.6347 12.9878 23.667 12.9434 23.7029ZM15.5336 17.6735C15.5123 17.7038 15.4891 17.7386 15.4555 17.7842C15.6301 17.7842 15.7995 17.7838 15.9676 17.7834C16.2962 17.7826 16.6149 17.7818 16.9336 17.7842C17.2069 17.7878 17.3538 17.9061 17.3777 18.1321C17.4084 18.4191 17.2513 18.6056 16.9575 18.6092C16.5425 18.6146 16.1294 18.6139 15.7154 18.6133C15.5773 18.613 15.439 18.6128 15.3006 18.6128C15.2546 18.6128 15.2087 18.6134 15.1628 18.614C15.0484 18.6154 14.9345 18.6169 14.8223 18.6092C14.6242 18.5949 14.4294 18.5554 14.3338 18.3402C14.2381 18.125 14.3064 17.9313 14.4363 17.7555C14.701 17.404 14.9649 17.0515 15.2288 16.6991C15.4927 16.3467 15.7566 15.9942 16.0214 15.6427C16.0522 15.6032 16.0829 15.5602 16.1136 15.5172C16.09 15.4675 16.0543 15.473 16.0204 15.4782C16.0102 15.4797 16.0001 15.4813 15.9907 15.4813C15.8062 15.4795 15.6209 15.4795 15.4355 15.4795C15.2502 15.4795 15.0649 15.4795 14.8804 15.4777C14.795 15.4813 14.7096 15.4705 14.6276 15.449C14.4978 15.4167 14.3953 15.3091 14.3611 15.1728C14.3133 14.9683 14.4294 14.7639 14.6207 14.7136C14.7027 14.6921 14.7881 14.6813 14.8735 14.6813C15.4816 14.6778 16.0932 14.6778 16.7012 14.6813C16.8106 14.6742 16.9199 14.6885 17.0224 14.7208C17.2547 14.8069 17.3572 15.0293 17.2615 15.266C17.1795 15.4741 17.0497 15.6499 16.9199 15.822C16.4725 16.421 16.025 17.0163 15.5776 17.6116C15.5632 17.6313 15.5491 17.6514 15.5336 17.6735ZM18.0575 15.7682C18.5187 15.4813 18.9901 15.5064 19.4172 15.8974C19.4992 15.7862 19.5812 15.6821 19.7281 15.6499C19.9945 15.5925 20.2507 15.7754 20.2542 16.0624C20.261 16.7797 20.2576 17.4971 20.2542 18.2144C20.2542 18.4009 20.1414 18.5662 19.9706 18.62C19.7998 18.6881 19.6051 18.6307 19.4923 18.4801C19.4343 18.4048 19.4103 18.3904 19.3284 18.4586C19.0175 18.724 18.6656 18.7706 18.2864 18.6415C17.6783 18.437 17.4255 17.9384 17.3606 17.3286C17.2923 16.6758 17.4972 16.1126 18.0575 15.7682ZM23.3664 18.7097C22.4781 18.8029 21.771 18.125 21.7846 17.2282C21.7573 16.3063 22.3347 15.6176 23.1511 15.5925C24.0223 15.5638 24.6577 16.1772 24.685 17.0739C24.7124 17.9815 24.1829 18.6236 23.3664 18.7097ZM21.4848 15.9517C21.4844 16.139 21.484 16.3265 21.484 16.5144C21.484 16.6533 21.4842 16.7923 21.4844 16.9313C21.4851 17.3483 21.4857 17.7653 21.4806 18.1824C21.484 18.229 21.4772 18.272 21.4669 18.3151C21.4054 18.5626 21.1629 18.7097 20.9272 18.6415C20.7563 18.5949 20.6265 18.4012 20.6265 18.1788V15.327C20.6265 15.2707 20.6261 15.2148 20.6258 15.159C20.625 15.0478 20.6243 14.9371 20.6265 14.8248C20.6299 14.5486 20.7973 14.3693 21.0501 14.3657C21.3098 14.3621 21.484 14.5415 21.484 14.8284C21.4863 15.2037 21.4855 15.5775 21.4848 15.9517ZM18.8408 16.4175C18.4684 16.396 18.2053 16.7009 18.2087 17.2067C18.2156 17.3645 18.2634 17.5152 18.3488 17.6407C18.383 17.6874 18.4206 17.7268 18.4616 17.7591C18.7109 17.9528 19.0628 17.899 19.2473 17.6407C19.4386 17.3681 19.4386 16.9161 19.2473 16.6471C19.1516 16.5072 19.0013 16.4247 18.8408 16.4175ZM23.2716 16.4211C22.9027 16.3996 22.6431 16.6973 22.6431 17.1421C22.6396 17.3215 22.6875 17.4973 22.79 17.6443C22.8173 17.6838 22.848 17.7197 22.8856 17.7484C23.1282 17.9492 23.4835 17.9062 23.6748 17.6515C23.8729 17.3825 23.8729 16.9197 23.6782 16.6471C23.5825 16.5108 23.4322 16.4247 23.2716 16.4211Z" fill="#F6F6F6"/>
</svg>
