<svg width="46" height="46" viewBox="0 0 46 46" fill="none" xmlns="http://www.w3.org/2000/svg">
<circle opacity="0.1" cx="23" cy="23" r="23" fill="#F9FEFC"/>
<path d="M19.7488 22.7243C20.408 22.7243 21.0278 22.7197 21.6433 22.7243C21.9882 22.7289 22.1759 22.8802 22.2108 23.1689C22.2501 23.531 22.0493 23.7739 21.6739 23.7785C20.9667 23.7877 20.2639 23.7831 19.5568 23.7831C19.3516 23.7831 19.1508 23.7923 18.9456 23.7785C18.6924 23.7648 18.4436 23.7098 18.3214 23.4348C18.1992 23.1597 18.2865 22.9122 18.4524 22.6876C19.1246 21.7893 19.8012 20.8863 20.4778 19.988C20.5171 19.933 20.5564 19.878 20.5957 19.8275C20.552 19.7496 20.4909 19.7863 20.4385 19.7817C19.9671 19.7771 19.4913 19.7817 19.0198 19.7771C18.9107 19.7771 18.8016 19.7634 18.6968 19.7404C18.448 19.6809 18.2952 19.4196 18.352 19.1629C18.3912 18.9888 18.5222 18.8467 18.6881 18.8054C18.7928 18.7779 18.902 18.7642 19.0111 18.7642C19.7881 18.7596 20.5695 18.7596 21.3465 18.7642C21.4862 18.7596 21.6215 18.7779 21.7568 18.8146C22.0537 18.92 22.1803 19.2088 22.0624 19.5113C21.9576 19.7725 21.7917 19.9971 21.6259 20.2217C21.054 20.9872 20.4822 21.748 19.9103 22.5043C19.8623 22.5639 19.8187 22.6235 19.7488 22.7243Z" fill="#F6F6F6"/>
<path fill-rule="evenodd" clip-rule="evenodd" d="M16.5388 30.2871C16.4472 30.3696 16.5039 30.4109 16.5825 30.4476C17.6956 30.6767 18.7826 30.5209 19.8477 30.1726C20.21 30.058 20.5723 29.9434 20.939 29.8471C21.1878 29.783 21.4497 29.7921 21.6898 29.8838C24.4617 30.883 27.1944 30.7959 29.879 29.5538C30.9746 29.045 31.9743 28.3254 32.8211 27.4316C32.8316 27.4206 32.8413 27.4083 32.8512 27.3958C32.8822 27.3565 32.9142 27.3159 32.9739 27.3124C33.003 27.3633 32.9986 27.4142 32.9943 27.4633C32.9928 27.4805 32.9914 27.4975 32.9914 27.5141V30.223C32.9914 31.7493 31.8084 32.9868 30.3504 32.9868C29.3028 32.9929 28.2551 32.9909 27.2074 32.9889C26.6836 32.9878 26.1598 32.9868 25.636 32.9868H19.3326C19.2453 32.9868 19.158 32.9822 19.0707 32.9777C18.7286 32.979 18.3868 32.9833 18.0454 32.9876C17.1929 32.9983 16.3421 33.0091 15.4912 32.9731C14.0812 32.9181 13.003 31.6759 13.003 30.1909C13.003 28.5955 13.004 27.0006 13.005 25.406C13.0069 22.218 13.0088 19.0312 13.003 15.8445C12.9987 14.2082 14.2122 13.0669 15.6178 13.0211C16.638 12.9924 17.6603 12.9991 18.6833 13.0059C19.131 13.0089 19.5788 13.0119 20.0267 13.0119C20.0315 13.0119 20.0366 13.0114 20.0416 13.0109C20.0638 13.0088 20.0867 13.0067 20.1009 13.044C20.0942 13.1065 20.05 13.1269 20.0061 13.1471C19.9921 13.1536 19.9782 13.16 19.9655 13.1677C19.1012 13.6994 18.3111 14.3365 17.6476 15.1249C16.5476 16.4266 15.7924 17.9254 15.5348 19.658C15.0809 22.7289 15.9888 25.3278 18.0579 27.5004C18.429 27.8854 18.477 28.1925 18.1802 28.715C17.8266 29.3429 17.2897 29.7692 16.7178 30.1588C16.6567 30.2 16.5956 30.2413 16.5388 30.2871ZM19.8485 22.5829C19.8214 22.6216 19.7917 22.666 19.7488 22.7243C19.9719 22.7243 20.1884 22.7238 20.4031 22.7233C20.823 22.7223 21.2302 22.7213 21.6374 22.7243C21.9866 22.7289 22.1743 22.8802 22.2049 23.1689C22.2442 23.5356 22.0434 23.774 21.668 23.7786C21.1377 23.7854 20.6099 23.7846 20.0809 23.7837C19.9044 23.7834 19.7278 23.7831 19.5508 23.7831C19.4921 23.7831 19.4334 23.7839 19.3748 23.7846C19.2286 23.7865 19.083 23.7884 18.9397 23.7786C18.6865 23.7602 18.4377 23.7098 18.3155 23.4348C18.1933 23.1598 18.2806 22.9123 18.4464 22.6877C18.7847 22.2385 19.122 21.7882 19.4592 21.3379C19.7964 20.8875 20.1336 20.4372 20.4719 19.988C20.5112 19.9376 20.5505 19.8826 20.5898 19.8276C20.5596 19.7642 20.5139 19.7711 20.4706 19.7778C20.4576 19.7798 20.4447 19.7817 20.4326 19.7817C20.1969 19.7794 19.9601 19.7794 19.7233 19.7794C19.4865 19.7794 19.2497 19.7794 19.0139 19.7771C18.9048 19.7817 18.7957 19.768 18.6909 19.7405C18.525 19.6992 18.3941 19.5617 18.3504 19.3876C18.2893 19.1263 18.4377 18.865 18.6822 18.8009C18.7869 18.7734 18.8961 18.7596 19.0052 18.7596C19.7822 18.755 20.5636 18.755 21.3406 18.7596C21.4803 18.7504 21.62 18.7688 21.7509 18.81C22.0478 18.92 22.1787 19.2042 22.0565 19.5067C21.9517 19.7726 21.7858 19.9972 21.62 20.2172C21.0482 20.9824 20.4765 21.7431 19.9048 22.5039C19.8864 22.529 19.8684 22.5546 19.8485 22.5829ZM23.0736 20.1484C23.6629 19.7817 24.2653 19.8138 24.8109 20.3134C24.9157 20.1713 25.0205 20.0384 25.2082 19.9972C25.5487 19.9238 25.8761 20.1576 25.8804 20.5243C25.8892 21.4409 25.8848 22.3575 25.8804 23.2741C25.8804 23.5124 25.7364 23.7236 25.5181 23.7923C25.2998 23.8794 25.051 23.8061 24.907 23.6135C24.8328 23.5173 24.8022 23.499 24.6974 23.586C24.3002 23.9252 23.8506 23.9848 23.3661 23.8198C22.589 23.5585 22.266 22.9214 22.1831 22.1422C22.0958 21.308 22.3577 20.5884 23.0736 20.1484ZM29.8571 23.9069C28.7222 24.0261 27.8186 23.1598 27.836 22.0139C27.8011 20.8359 28.5388 19.9559 29.5821 19.9238C30.6953 19.8872 31.5072 20.6709 31.5421 21.8168C31.577 22.9764 30.9004 23.7969 29.8571 23.9069ZM27.4529 20.3829C27.4524 20.6222 27.4519 20.8617 27.4519 21.1018C27.4519 21.2794 27.4522 21.457 27.4524 21.6346C27.4533 22.1674 27.4541 22.7003 27.4475 23.2331C27.4519 23.2927 27.4432 23.3477 27.4301 23.4027C27.3515 23.719 27.0416 23.9069 26.7404 23.8198C26.5221 23.7602 26.3562 23.5127 26.3562 23.2285V19.5846C26.3562 19.5127 26.3557 19.4412 26.3553 19.3699C26.3543 19.2278 26.3533 19.0864 26.3562 18.9429C26.3606 18.59 26.5745 18.3608 26.8975 18.3563C27.2293 18.3517 27.4519 18.5809 27.4519 18.9475C27.4548 19.4271 27.4538 19.9046 27.4529 20.3829ZM24.0744 20.9781C23.5986 20.9506 23.2625 21.3402 23.2668 21.9864C23.2756 22.1881 23.3367 22.3806 23.4458 22.5411C23.4895 22.6006 23.5375 22.6511 23.5899 22.6923C23.9085 22.9398 24.3581 22.8711 24.5939 22.5411C24.8383 22.1927 24.8383 21.6152 24.5939 21.2714C24.4716 21.0927 24.2796 20.9872 24.0744 20.9781ZM29.7361 20.9827C29.2647 20.9552 28.9329 21.3356 28.9329 21.9039C28.9285 22.1331 28.9896 22.3577 29.1206 22.5456C29.1555 22.5961 29.1948 22.6419 29.2428 22.6786C29.5528 22.9352 30.0067 22.8802 30.2512 22.5548C30.5044 22.211 30.5044 21.6198 30.2556 21.2714C30.1333 21.0972 29.9413 20.9872 29.7361 20.9827Z" fill="#F6F6F6"/>
</svg>
